<?xml version="1.0" encoding="UTF-8"?>
<!DOCTYPE svg PUBLIC "-//W3C//DTD SVG 1.1//EN" "http://www.w3.org/Graphics/SVG/1.1/DTD/svg11.dtd">
<!-- Creator: CorelDRAW -->
<svg xmlns="http://www.w3.org/2000/svg" xml:space="preserve" width="34.3764mm" height="39.9488mm" version="1.1" style="shape-rendering:geometricPrecision; text-rendering:geometricPrecision; image-rendering:optimizeQuality; fill-rule:evenodd; clip-rule:evenodd"
viewBox="0 0 3913.09 4547.4"
 xmlns:xlink="http://www.w3.org/1999/xlink"
 xmlns:xodm="http://www.corel.com/coreldraw/odm/2003">
 <defs>
  <style type="text/css">
   <![CDATA[
    .fil0 {fill:#3D3A3B;fill-rule:nonzero}
   ]]>
  </style>
 </defs>
 <g id="Layer_x0020_1">
  <metadata id="CorelCorpID_0Corel-Layer"/>
  <path class="fil0" d="M1885.97 0c-1047.87,6.7 -1885.97,161.96 -1885.97,352.52l0 307.84c0,79.26 144.87,152.37 389.48,211.33 -30.27,-21.25 -46.44,-43.47 -46.44,-66.27 0,-153.25 722.38,-277.41 1613.5,-277.41 891.12,0 1613.53,124.16 1613.53,277.41 0,22.8 -16.21,45.02 -46.48,66.27 244.61,-58.95 389.49,-132.07 389.49,-211.33l0 -307.84c0,-190.56 -838.14,-345.82 -1885.97,-352.52l-141.15 0zm70.58 756.75c-799.11,0 -1446.94,116.76 -1446.94,260.9l0 108.12c8.74,-4.97 18.28,-9.93 28.55,-14.74 107.96,-51.17 232.57,28.78 232.57,147.71l0 2369.52 131.62 0 0 -2495.61c0,-70.53 52.03,-130.35 122.24,-140.19 1.12,-0.19 2.22,-0.32 3.32,-0.49 106.11,-14.82 201.02,66.89 201.02,173.49l0 2925.55 185.24 0 0 -2972.9c0,-93.41 73.64,-170.67 167.43,-175 1.21,-0.05 2.41,-0.11 3.6,-0.17 100.57,-4.53 184.82,74.86 184.82,175l0 3429.48 389.96 0 0 -3428.61c0,-100.01 84.17,-179.83 184.6,-175.06 1.17,0.08 2.38,0.13 3.59,0.2 93.88,4.51 167.68,81.5 167.68,175.05l0 2972.02 185.24 0 0 -2923.18c0,-106.83 95.38,-188.66 201.74,-173.35 1.06,0.11 2.14,0.32 3.2,0.43 69.91,10.17 121.61,69.86 121.61,140.15l0 2493.21 131.65 0 0 -2360.68c0,-123.84 134.26,-203.78 242.6,-142.7l1.63 0.89 0 -108.12c0,-144.14 -647.82,-260.9 -1446.96,-260.9z"/>
 </g>
</svg>
