<?xml version="1.0" encoding="UTF-8"?>
<!DOCTYPE svg PUBLIC "-//W3C//DTD SVG 1.1//EN" "http://www.w3.org/Graphics/SVG/1.1/DTD/svg11.dtd">
<!-- Creator: CorelDRAW -->
<svg xmlns="http://www.w3.org/2000/svg" xml:space="preserve" width="97.1081mm" height="72.9936mm" version="1.1" style="shape-rendering:geometricPrecision; text-rendering:geometricPrecision; image-rendering:optimizeQuality; fill-rule:evenodd; clip-rule:evenodd"
viewBox="0 0 9539.96 7170.94"
 xmlns:xlink="http://www.w3.org/1999/xlink"
 xmlns:xodm="http://www.corel.com/coreldraw/odm/2003">
 <defs>
  <style type="text/css">
   <![CDATA[
    .fil2 {fill:black}
    .fil4 {fill:#C4E6E6}
    .fil5 {fill:white}
    .fil3 {fill:black;fill-rule:nonzero}
    .fil0 {fill:#C4E6E6;fill-rule:nonzero}
    .fil1 {fill:white;fill-rule:nonzero}
   ]]>
  </style>
 </defs>
 <g id="Layer_x0020_1">
  <metadata id="CorelCorpID_0Corel-Layer"/>
  <path class="fil0" d="M2866.23 2871.94c-117.06,1052.5 -286.16,1195.44 -975.52,2001.07 -358.86,419.36 -252.56,1055.85 -40.13,1586.59 184.37,460.63 666.62,700.36 1162.97,700.36l3923.18 0c376.63,0 1761.84,-1086.88 2029.86,-1351.37 1066.58,-1052.52 455.25,-3170.55 -299.16,-3586.36 -754.42,-415.81 -1612.89,376.84 -2965.64,-844.61 -1352.73,-1221.44 -2727.17,519.75 -2835.56,1494.33z"/>
  <path class="fil0" d="M6907.95 1634.68c-402.15,-116.35 -740.78,-436.33 -859.85,-581.77 -198.43,-409.88 754.04,-171.88 1058.28,0 304.27,171.89 714.37,224.77 634.98,409.9 -79.37,185.1 -330.71,317.33 -833.4,171.87z"/>
  <path class="fil1" d="M5782.79 7159.95l-1349.39 0c-375.62,-138.79 -876.41,-305.38 -751.23,-624.63 125.22,-319.26 751.23,111.05 918.15,-194.33 166.94,-305.37 -1182.45,-347.03 -1043.34,-735.68 139.11,-388.67 987.69,111.05 876.41,-263.74 -111.29,-374.79 -1057.26,-235.97 -1015.53,-624.64 41.72,-388.66 751.21,249.86 834.67,-194.34 83.48,-444.18 -681.65,-1235.4 -83.47,-1374.19 598.19,-138.82 431.25,1304.8 639.93,1374.19 208.66,69.41 403.43,-680.17 695.56,-347.03 292.14,333.14 -208.66,1082.72 0,1429.74 208.66,347.02 500.8,-943.91 834.67,-347.03 267.11,477.49 -259.67,1466.74 -556.44,1901.67z"/>
  <path class="fil1" d="M7403.27 3712.33l127.95 269.53 23.42 311.19c-134.85,54.4 -409.98,164.57 -431.59,170.19 -21.6,5.63 -215.27,-88.11 -309.4,-135.69l-31.62 -453.28c-246.59,-16.49 -408.39,-331.05 -458.48,-486.26 -223.01,-634.17 188.05,-827.84 269.09,-848.98 81.02,-21.13 594.23,-154.89 802.57,367.71 166.67,418.09 74.83,711.26 8.07,805.58z"/>
  <path class="fil2" d="M6941.56 2544.86c156.63,27.84 328.8,119.74 429.22,371.6 164.03,411.45 71.72,694.94 11.03,780.66l-8.88 12.56 132.44 279.01 21.61 287.16c-66.8,26.91 -159.49,64.07 -240.31,96.14 -44.14,17.51 -84.69,33.47 -115.52,45.41 -15.43,5.97 -28.36,10.89 -38.04,14.5 -4.86,1.79 -8.8,3.22 -11.81,4.28 -0.74,0.26 -1.41,0.49 -2.01,0.69 -1.16,-0.26 -2.73,-0.63 -4.78,-1.21 -6.39,-1.8 -15.21,-4.84 -26.22,-9.09 -21.96,-8.46 -50.55,-20.89 -81.84,-35.15 -56.8,-25.91 -121.17,-57.33 -167.64,-80.64l-32.16 -461.23 -22.88 -1.53c-112.23,-7.51 -208.21,-83.25 -283.91,-180.98 -75.31,-97.21 -127.01,-211.79 -151.31,-287.12l-0.1 -0.31 -0.12 -0.34c-109.34,-310.97 -61.96,-509.12 17.74,-631.28 80.76,-123.82 197.65,-174.27 233.16,-183.53 39.99,-10.41 183.83,-47.77 342.32,-19.6zm180.01 1892.38c0,0 -0.14,-0.02 -0.37,-0.04 0.28,0.04 0.39,0.04 0.37,0.04zm-535.35 -1923.71l-0.22 0.06c-45.53,11.88 -174.67,68.82 -263.93,205.68 -90.3,138.42 -136.93,354.12 -23.42,677.14 25.81,79.86 80,200 159.67,302.83 74.8,96.6 175.24,181.89 299.02,198.91l31.12 446.12 13.33 6.74c47.23,23.88 119.54,59.39 182.85,88.25 31.59,14.42 61.33,27.34 84.73,36.37 11.65,4.5 22.22,8.22 30.95,10.65 4.32,1.22 8.74,2.27 12.89,2.89 3.32,0.5 9.76,1.26 16.47,-0.5 7.29,-1.89 30.53,-10.65 60.45,-22.24 31.05,-12.01 71.76,-28.04 115.95,-45.56 88.39,-35.08 190.94,-76.22 258.39,-103.43l17.83 -7.19 -25.24 -335.24 -123.69 -260.54c70.96,-113.84 148.91,-409.4 -13.76,-817.45 -107.93,-270.74 -296.52,-373.26 -468.83,-403.91 -170.14,-30.23 -323.18,9.67 -364.55,20.43z"/>
  <path class="fil1" d="M8783.98 7142.65l-2191.17 0 -2777.36 -13.97c-173.63,-113.24 -220.93,-296.67 -220.41,-451.06 0.41,-122.62 88.62,-221.25 199.1,-274.49 449.67,-216.75 1136.25,-554.13 1263.43,-642.18 181.44,-125.61 348.92,-809.48 683.87,-1339.82 267.97,-424.28 772.28,-521.06 976.95,-516.39 18.63,83.73 97.71,251.2 376.84,251.2 279.13,0 395.44,-167.47 432.64,-251.2 144.22,0 544.32,78.15 879.27,390.78 418.41,390.5 599.88,1282.76 767.26,2105.72l0.33 1.71c134,658.76 -204.67,758.3 -390.77,739.7z"/>
  <path class="fil2" d="M6698.05 3930.89c12.99,44.03 40.03,101.28 93.31,150.21 62.48,57.37 158.66,101.13 303.89,101.13 276.09,0 402.13,-157.4 449.12,-250.91 151.16,5.66 527.64,87.34 844.85,383.39 204.03,190.42 352.34,505.58 470.65,879.41 118.1,373.17 205.04,800.53 288.81,1212.35l0.33 1.71c66.26,325.72 14.02,505.36 -69.45,601.38 -83.63,96.22 -204.92,115.74 -292.95,106.93l-1.32 -0.15 -2192.48 0 -2769.37 -13.9c-158.1,-106.79 -202.61,-277.1 -202.11,-424.73 0.35,-109 79.06,-200.24 184.22,-250.93 224.92,-108.39 509.1,-247.01 753.04,-369.53 242.86,-121.99 448.44,-229.35 513.95,-274.7 51.32,-35.53 98.3,-107.38 144.69,-197.32 47.02,-91.16 95.83,-205.97 148.95,-332.24 3.59,-8.55 7.21,-17.17 10.86,-25.84 104.22,-247.92 226.15,-537.9 386.64,-792.02 130.38,-206.43 318.53,-333.65 500.04,-408.78 170.2,-70.47 333.26,-94.55 434.33,-95.48zm-454.45 46.9c-188.79,78.15 -386.77,211.45 -524.36,429.3 -162.87,257.87 -286.27,551.42 -390.14,798.51 -3.82,9.06 -7.6,18.08 -11.37,27.03 -53.3,126.68 -101.32,239.53 -147.2,328.52 -46.51,90.18 -88.49,150.91 -127.9,178.19 -61.69,42.71 -262.98,148.06 -507.63,270.97 -243.56,122.35 -527.49,260.8 -752.27,369.15 -115.8,55.81 -213.53,161.82 -213.98,298.09 -0.52,159.15 48.33,353.16 232.34,473.16l6.49 4.23 2785.09 13.99 0.14 0 2189.87 0c98,9.5 238.25,-11.8 336.54,-124.88 98.91,-113.78 149.02,-313.3 81.3,-646.33l-0.52 -2.54c-83.59,-410.9 -171.03,-840.81 -290.05,-1216.9 -118.86,-375.64 -270.49,-701.87 -484.89,-901.98 -340.46,-317.76 -747.24,-397.85 -897.19,-397.85l-17.06 0 -6.96 15.61c-34.34,77.28 -142.83,235.61 -408.62,235.61 -133.92,0 -216.83,-39.99 -268.33,-87.29 -52,-47.74 -74.37,-105.19 -82.85,-143.36l-4.47 -20.1 -20.59 -0.47c-106.01,-2.42 -286.87,21.31 -475.41,99.34z"/>
  <path class="fil3" d="M7848.89 6067.98l-209.36 -851.34 41.87 851.34 -957.89 233.64c-119.45,29.14 -230.98,103.35 -254.53,224.02 -43.35,222.27 39.52,459.89 137.76,547.23 -83.73,-119.83 -83.73,-572.22 13.96,-642 78.16,-55.83 1046.75,-237.27 1521.26,-321.02l-293.07 -41.86z"/>
  <polygon class="fil3" points="5769.37,4993.33 5252.97,7142.62 5029.67,7142.62 "/>
  <path class="fil3" d="M7184.35 3480.94c135.71,299.24 220.91,312.6 246.56,281.89 314.78,-341.66 103.19,-1115.97 -199.38,-1318.2 -279.47,-186.78 -416.87,-49.99 -890.72,-41.87 -473.83,8.15 -573.12,235.93 -428.7,457.9 207.87,319.54 528.42,35.34 633.51,51.2 105.11,15.88 254.82,92.24 365.17,294.25 110.33,201.99 126.79,154.43 135.63,22.33 8.82,-132.11 71.11,-335.84 208.47,-140.88 109.88,155.97 -1.24,327.23 -70.55,393.38z"/>
  <path class="fil1" d="M5629.86 7142.62c0,-379.6 562.92,-493.13 837.38,-502.42 0,189.8 116.31,414.04 181.44,502.42l-1018.82 0z"/>
  <path class="fil2" d="M6493.53 6613.01l-27.16 0.92c-139.39,4.72 -352.3,35.81 -531.33,114.56 -178.25,78.41 -331.44,208.42 -331.44,414.13l0 26.3 1097.11 0 -30.85 -41.89c-31.13,-42.22 -75.47,-118.42 -111.99,-207.55 -36.58,-89.28 -64.33,-189.18 -64.33,-279.28l0 -27.19zm-51.82 54.63c4.86,91.68 33.12,187.82 67.52,271.76 28.18,68.81 61.04,130.73 90.04,176.95l-942.13 0c12.25,-159.46 136.05,-268.05 299.06,-339.75 160.25,-70.49 350.97,-101.56 485.51,-108.97z"/>
  <path class="fil1" d="M2917.18 7116.97c0,-337.42 446.09,-409.14 686.72,-417.4 0,168.71 149.39,338.84 206.49,417.4l-893.21 0z"/>
  <path class="fil2" d="M3630.19 6672.37l-27.18 0.93c-121.65,4.19 -297.12,24.37 -443.12,87.41 -146.35,63.19 -268.97,172.61 -268.97,356.26l0 26.29 971.09 0 -30.34 -41.72c-8.01,-11.03 -17.45,-23.38 -27.82,-36.97 -28.32,-37.06 -63.59,-83.23 -95.62,-136.1 -43.66,-72.06 -78.03,-151.74 -78.03,-228.9l0 -27.2zm-51.41 54.59c6.94,81.97 43.68,161.4 84.47,228.73 31.33,51.72 66.61,98.62 94.37,135.01l-813.15 0c10.82,-138.46 107.37,-226.09 236.25,-281.73 127.48,-55.05 281.44,-76.04 398.06,-82.01z"/>
  <path class="fil2" d="M9204.55 6637.03c7.07,270.21 -87.17,505.6 -376.12,505.6l-253.87 0c67,-446.6 421.35,-716.43 588.83,-795.51 0.02,0.04 0.04,0.1 0.04,0.14 3.66,18.03 7.33,36.01 10.99,53.97l0.33 1.71c17.71,87.02 27.15,164.75 29.8,234.1z"/>
  <path class="fil3" d="M7040.2 3802.59c-114.86,74.7 -208.39,72.97 -256.6,66.87l8.76 199.64c162.23,-64.66 225.41,-209.38 247.84,-266.52z"/>
  <path class="fil3" d="M3400.82 5772.44c4.63,-29.58 32.33,-49.82 61.92,-45.21 29.58,4.6 49.82,32.3 45.21,61.9l-204.28 1312.29c-4.6,29.57 -32.3,49.83 -61.9,45.23 -29.57,-4.6 -49.83,-32.32 -45.21,-61.9l204.26 -1312.31z"/>
  <path class="fil1" d="M3161.12 6992.78c10.14,-131.85 226.6,-171.18 354.35,-175.72 14.04,-0.5 25.59,10.6 26.23,24.64l11.17 245.59c0.68,14.95 -11.28,27.46 -26.27,27.56 -193.45,1.3 -375.84,12.52 -365.48,-122.06z"/>
  <path class="fil2" d="M3300.75 6826.94c81.83,-27.63 177.04,-36.61 239.82,-36.61l0 52.57c-59.17,0 -148.27,8.62 -222.99,33.85 -77.05,26.01 -126.19,64.95 -130.27,118.05 -2.15,28.14 5.97,44.93 19.43,56.8 15.02,13.24 39.7,22.98 75.07,29.14 55.65,9.66 127.03,8.94 205.21,8.18 21.91,-0.22 44.33,-0.44 67.12,-0.44l0 52.56c-20.97,0 -42.16,0.23 -63.32,0.42 -78.99,0.82 -157.13,1.61 -217.99,-8.94 -38.81,-6.74 -74.97,-18.69 -100.85,-41.51 -27.45,-24.21 -40.32,-57.92 -37.07,-100.24 6.75,-87.85 86.37,-136.99 165.84,-163.83z"/>
  <path class="fil1" d="M1314.05 896.48c0,-96.84 78.5,-175.34 175.34,-175.34l3211 0c96.84,0 175.33,78.5 175.33,175.34l0 4116.03c0,96.84 -78.49,175.32 -175.33,175.32l-3211 0c-96.84,0 -175.34,-78.48 -175.34,-175.32l0 -4116.03z"/>
  <path class="fil2" d="M1287.77 896.48c0,-111.36 90.26,-201.61 201.62,-201.61l3211 0c111.36,0 201.62,90.25 201.62,201.61l0 4116.03c0,111.35 -90.26,201.61 -201.62,201.61l-3211 0c-111.35,0 -201.62,-90.26 -201.62,-201.61l0 -4116.03zm201.62 -149.05c-82.33,0 -149.06,66.73 -149.06,149.05l0 4116.03c0,82.32 66.73,149.05 149.06,149.05l3211 0c82.32,0 149.06,-66.73 149.06,-149.05l0 -4116.03c0,-82.32 -66.74,-149.05 -149.06,-149.05l-3211 0z"/>
  <path class="fil3" d="M1314.05 896.48c0,-96.84 78.5,-175.34 175.34,-175.34l3211 0c96.84,0 175.33,78.5 175.33,175.34l0 437.74 -3561.67 0 0 -437.74z"/>
  <path class="fil1" d="M1868.74 1027.68c0,72.55 -58.82,131.37 -131.37,131.37 -72.56,0 -131.38,-58.82 -131.38,-131.37 0,-72.56 58.82,-131.37 131.38,-131.37 72.55,0 131.37,58.81 131.37,131.37z"/>
  <path class="fil1" d="M2306.68 1027.68c0,72.55 -58.83,131.37 -131.39,131.37 -72.55,0 -131.37,-58.82 -131.37,-131.37 0,-72.56 58.82,-131.37 131.37,-131.37 72.56,0 131.39,58.81 131.39,131.37z"/>
  <path class="fil1" d="M2744.59 1027.68c0,72.55 -58.84,131.37 -131.4,131.37 -72.55,0 -131.37,-58.82 -131.37,-131.37 0,-72.56 58.82,-131.37 131.37,-131.37 72.56,0 131.4,58.81 131.4,131.37z"/>
  <polygon class="fil4" points="2831.87,1887.45 4322.6,1887.45 4322.6,1940.01 2831.87,1940.01 "/>
  <polygon class="fil4" points="2831.87,3025.83 4322.6,3025.83 4322.6,3078.39 2831.87,3078.39 "/>
  <polygon class="fil4" points="2831.87,4245.51 4322.6,4245.51 4322.6,4298.07 2831.87,4298.07 "/>
  <polygon class="fil4" points="2831.87,2212.7 4322.6,2212.7 4322.6,2265.26 2831.87,2265.26 "/>
  <polygon class="fil4" points="2831.87,3351.07 4322.6,3351.07 4322.6,3403.62 2831.87,3403.62 "/>
  <polygon class="fil4" points="2831.87,4570.76 4322.6,4570.76 4322.6,4623.32 2831.87,4623.32 "/>
  <path class="fil3" d="M1829.02 1899.33c0,-96.84 78.51,-175.34 175.35,-175.34l326.93 0c96.84,0 175.32,78.5 175.32,175.34l0 326.93c0,96.84 -78.48,175.35 -175.32,175.35l-326.93 0c-96.84,0 -175.35,-78.51 -175.35,-175.35l0 -326.93z"/>
  <path class="fil2" d="M1793.95 3091.91c0,-116.19 94.2,-210.39 210.42,-210.39l326.93 0c116.19,0 210.39,94.2 210.39,210.39l0 326.93c0,116.21 -94.2,210.41 -210.39,210.41l-326.93 0c-116.22,0 -210.42,-94.2 -210.42,-210.41l0 -326.93zm210.42 -140.27c-77.48,0 -140.28,62.82 -140.28,140.27l0 326.93c0,77.47 62.8,140.27 140.28,140.27l326.93 0c77.45,0 140.27,-62.8 140.27,-140.27l0 -326.93c0,-77.45 -62.82,-140.27 -140.27,-140.27l-326.93 0z"/>
  <path class="fil2" d="M1793.95 4284.51c0,-116.22 94.2,-210.42 210.42,-210.42l326.93 0c116.19,0 210.39,94.2 210.39,210.42l0 326.93c0,116.19 -94.2,210.39 -210.39,210.39l-326.93 0c-116.22,0 -210.42,-94.2 -210.42,-210.39l0 -326.93zm210.42 -140.28c-77.48,0 -140.28,62.8 -140.28,140.28l0 326.93c0,77.45 62.8,140.27 140.28,140.27l326.93 0c77.45,0 140.27,-62.82 140.27,-140.27l0 -326.93c0,-77.48 -62.82,-140.28 -140.27,-140.28l-326.93 0z"/>
  <polygon class="fil5" points="2446.11,1943.36 2073,2269.82 1902.02,2030.43 1987.56,1969.32 2091.11,2114.3 2376.88,1864.22 "/>
  <path class="fil0" d="M7235.85 135.69l73.99 -122.93c13.16,-21.9 46.68,-14.01 48.7,11.46l11.13 139.67c0.68,8.45 5.4,16.06 12.65,20.43l131.39 79.06c21.15,12.73 14.66,44.97 -9.78,48.53l-153.37 22.28c-7.47,1.08 -14.1,5.31 -18.22,11.62l-93.21 142.49c-13.84,21.15 -46.66,12.48 -48.22,-12.76l-9.87 -159.34c-0.48,-7.76 -4.36,-14.91 -10.62,-19.53l-139.8 -103.07c-20.55,-15.16 -9.58,-47.77 15.95,-47.43l166.4 2.24c9.34,0.12 18.07,-4.73 22.89,-12.73z"/>
  <path class="fil0" d="M8214.88 1611.07l38.64 -25.59c21.29,-14.11 48.18,7.41 39.06,31.29l-16.03 42.02c-3.03,7.91 -2.03,16.81 2.64,23.88l31.01 46.84c13.65,20.6 -6.07,46.91 -29.68,39.62l-55.25 -17.09c-7.2,-2.21 -15.01,-1.26 -21.45,2.67l-55.25 33.68c-21.58,13.16 -47.5,-8.78 -38.06,-32.24l21.71 -53.99c2.91,-7.21 2.45,-15.34 -1.22,-22.21l-30.89 -57.76c-12.07,-22.53 11.85,-47.26 34.78,-35.97l53.87 26.52c8.37,4.13 18.33,3.49 26.11,-1.67z"/>
  <path class="fil1" d="M1208.92 6681.21c0,-14.52 11.77,-26.27 26.29,-26.27l1817.62 0c14.52,0 26.27,11.75 26.27,26.27l0 408.21c0,14.51 -11.75,26.29 -26.27,26.29l-1817.62 0c-14.52,0 -26.29,-11.78 -26.29,-26.29l0 -408.21z"/>
  <path class="fil2" d="M1182.64 6681.21c0,-29.02 23.54,-52.56 52.57,-52.56l1817.62 0c29.02,0 52.56,23.54 52.56,52.56l0 408.21c0,29.03 -23.54,52.56 -52.56,52.56l-1817.62 0c-29.03,0 -52.57,-23.53 -52.57,-52.56l0 -408.21zm1870.19 0l-1817.62 0 0 408.21 1817.62 0 0 -408.21z"/>
  <path class="fil3" d="M1534.17 6193.33c0,-14.52 11.77,-26.29 26.28,-26.29l1817.63 0c14.5,0 26.27,11.77 26.27,26.29l0 408.21c0,14.51 -11.77,26.27 -26.27,26.27l-1817.63 0c-14.51,0 -26.28,-11.76 -26.28,-26.27l0 -408.21z"/>
  <path class="fil1" d="M1290.23 6003.61c0,-14.52 11.77,-26.29 26.29,-26.29l1817.63 0c14.5,0 26.27,11.77 26.27,26.29l0 137.16c0,14.52 -11.77,26.27 -26.27,26.27l-1817.63 0c-14.52,0 -26.29,-11.75 -26.29,-26.27l0 -137.16z"/>
  <path class="fil2" d="M1263.95 6003.61c0,-29.04 23.54,-52.56 52.57,-52.56l1817.63 0c29.02,0 52.56,23.52 52.56,52.56l0 137.16c0,29.02 -23.54,52.56 -52.56,52.56l-1817.63 0c-29.03,0 -52.57,-23.54 -52.57,-52.56l0 -137.16zm1870.2 0l-1817.63 0 0 137.16 1817.63 0 0 -137.16z"/>
  <path class="fil3" d="M1060.36 6933.98c0,-40.31 -32.68,-72.97 -73.01,-72.97l-914.34 0c-40.32,0 -73.01,32.67 -73.01,72.97l0 153c0,40.31 32.69,72.97 73.01,72.97l914.34 0c40.33,0 73.01,-32.67 73.01,-72.97l0 -153z"/>
  <path class="fil3" d="M1715.51 5309.93c84.1,32.28 178.48,-9.71 210.78,-93.77 32.3,-84.06 -9.69,-178.4 -93.79,-210.68 -84.1,-32.3 -178.47,9.68 -210.79,93.75 -32.29,84.06 9.7,178.39 93.8,210.7z"/>
  <path class="fil2" d="M597.92 5274.35c-105.85,315.89 -119.8,836.18 -92.06,1601.14l48.64 -1.77c-27.81,-766.85 -12.97,-1277.91 89.58,-1583.91 50.97,-152.11 122.6,-250.37 218.61,-305.19 96.27,-54.98 221.29,-68.76 384.14,-42.72l7.69 -48.04c-168.61,-26.95 -306.32,-14.1 -415.98,48.52 -109.92,62.78 -187.38,173.13 -240.62,331.98z"/>
  <path class="fil1" d="M1311.62 4669.89c-57.89,-11.13 -115.43,20.82 -136.56,75.82l-121.91 317.29c-21.13,55 0.22,117.25 50.67,147.69l500.09 301.96c38.91,23.5 89.6,6.11 105.91,-36.29l229.89 -598.37c16.29,-42.42 -9.72,-89.24 -54.37,-97.83l-573.74 -110.28z"/>
  <path class="fil2" d="M1316.22 4645.99c-69.48,-13.34 -138.52,24.99 -163.88,91l-121.91 317.29c-25.36,66.01 0.27,140.69 60.81,177.26l500.1 301.95c51.87,31.33 119.46,8.14 141.19,-48.39l229.91 -598.39c21.73,-56.54 -12.99,-118.98 -72.49,-130.43l-573.74 -110.28zm-118.45 108.45c16.91,-43.99 62.94,-69.56 109.25,-60.66l573.74 110.28c29.76,5.72 47.11,36.95 36.23,65.22l-229.89 598.37c-10.88,28.28 -44.67,39.85 -70.61,24.2l-500.09 -301.95c-40.37,-24.37 -57.45,-74.17 -40.54,-118.16l121.91 -317.29z"/>
 </g>
</svg>
