<?xml version="1.0" encoding="UTF-8"?>
<!DOCTYPE svg PUBLIC "-//W3C//DTD SVG 1.1//EN" "http://www.w3.org/Graphics/SVG/1.1/DTD/svg11.dtd">
<!-- Creator: CorelDRAW -->
<svg xmlns="http://www.w3.org/2000/svg" xml:space="preserve" width="240.591mm" height="96.9412mm" version="1.1" style="shape-rendering:geometricPrecision; text-rendering:geometricPrecision; image-rendering:optimizeQuality; fill-rule:evenodd; clip-rule:evenodd"
viewBox="0 0 35719.36 14392.39"
 xmlns:xlink="http://www.w3.org/1999/xlink"
 xmlns:xodm="http://www.corel.com/coreldraw/odm/2003">
 <defs>
  <style type="text/css">
   <![CDATA[
    .fil0 {fill:#424242}
    .fil1 {fill:#EDE6E6}
   ]]>
  </style>
 </defs>
 <g id="Layer_x0020_1">
  <metadata id="CorelCorpID_0Corel-Layer"/>
  <path class="fil0" d="M17192.79 13314.83c174.88,-243.84 152.09,-220.47 456.43,-304.34 -50.18,410.14 27.09,303.76 -456.43,304.34zm-4672.93 -826.42c132.59,15.92 597.91,159.12 745.56,202.85 -266.21,735.38 -666.58,321.96 -1504.89,184.48 363.1,-419.44 363.53,-435.21 759.33,-387.33zm5680.68 -311.36c5.73,-6.87 167.85,-138.04 182.63,-163.85l463.73 209.01c-248.43,165.14 -268.2,218.32 -697.1,272.94 2.29,4.44 565.22,430.04 -486.25,334.15l537 -652.25zm-5052.09 1150.96l454.99 -712.16 -612.82 -211.16c775.67,-97.33 958.3,83.44 1776.53,256.61 -114.82,530.09 -459.86,709 -734.67,1226.63l-3212.19 -754.16c183.92,-452.55 397.95,-444.53 638.62,-540.71 86.58,156.82 90.46,24.36 0.73,370.98 528.52,150.08 1111.4,372.86 1688.81,363.96zm676.04 -1212.17c72.97,-47.58 -78.27,-315.07 626.73,-102.78 478.07,143.94 303.33,156.41 406.82,391.78 -459.29,-18.5 -667.01,-11.05 -1033.56,-289zm5470.1 -364.1c-51.74,78.69 135.33,426.75 -720.62,196.95 28.54,-262.75 103.5,-245.56 317.37,-309.21 404.39,-120.7 403.25,112.25 403.25,112.25zm-4662.18 154.67c-315.93,-16.2 -241.97,-152.1 -246.56,-155.68 244.12,-262.34 353.21,-140.63 631.45,1.01 -220.62,186.35 27.24,175.89 -384.9,154.67zm3380.49 -306.19c-328.85,1008.9 -1013.78,1529.83 -1669.46,2169.74 -399.65,-215.17 -808.35,-457.87 -1304.62,-743.41 -22.08,-325.84 6.29,-741.84 130.87,-978.65 162.55,-309.06 35.13,-270.5 393.64,-191.95l203.69 77.26c550.76,-732.79 343.19,-839.3 1063.08,-1167.87l-501.01 1016.21c424.46,-254.89 739.4,-860.39 1031.85,-1198.41 -88.03,647.95 -347.35,697.68 -470.19,1274.53 542.86,-199.26 555.33,-512.19 1122.86,-849.64l-972.77 1309.94c485.81,-54.77 363.68,-84.73 711.01,-463.03l261.05 -254.72zm281.68 233.94c40.56,-511.03 -215.04,-274.94 368.25,-347.76 -213.15,412.27 246.42,89.45 -368.25,347.76zm-3283.29 -473.49l-734.1 182.78c1.87,13.18 4.87,61.21 6.16,72.97 2.3,19.49 -10.04,96.32 -29.66,176.6l-671.17 -223.77c219.18,-155.68 291.57,-144.78 652.67,-181.77l-16.05 -380.16c979.5,131.3 640.48,166.13 792.15,353.35zm4348.66 193.82c-524.81,-40 -81.72,-14.92 -269.49,-197.12 113.25,-100.48 170.44,-101.62 378.73,-90.16 636.75,34.7 28.8,-24.36 295.58,120.42 -140.48,107.93 253.88,217.03 -404.82,166.86zm-3546.48 -14.77c-623,221.61 -850.36,-167.57 -850.79,-168 38.7,-33.4 346.19,-103.79 479.79,-83.01 396.37,61.36 296.59,168.15 371,251.01zm-4945.73 1168.45c-398.94,-126.58 -58.35,158.26 -347.91,-261.33l-516.91 -1160.57 485.1 -134.9c297.6,232.1 323.4,325.27 481.22,730.37 234.38,601.92 291.01,499.44 -101.49,826.42zm2287.73 -1116.13c-18.63,-294.15 115.54,-248.71 349.34,-308.35 -122.41,467.62 171.88,228.07 -349.34,308.35zm5266.97 -325.69c10.75,-71.68 197.96,-193.23 318.24,-201.97 376.3,-27.53 361.82,184.76 363.98,186.64 -298.03,103.36 -378.3,203.56 -682.21,15.34zm-3050.05 -403.1c304.32,150.38 76.27,77.69 367.41,85.29 151.09,4.01 178.9,-20.07 346.62,14.04 -153.82,248.58 439.93,386.04 -1411.71,-14.19 55.47,-417.14 417.29,-223.77 697.68,-85.14zm-1760.49 328.55c40.86,-308.48 166.71,-268.63 456.86,-229.35 -169.58,145.35 -157.4,153.96 -456.86,229.35zm583.44 -481.65c-15.05,-36.42 -54.34,-45.16 -82.29,-66.94 227.21,-164.28 338.03,-20.5 426.33,16.2 -111.96,69.38 -24.38,82.13 -260.19,93.76 -17.62,0.85 -70.52,-10.62 -83.85,-43.01zm2376.6 -187.5c-64.37,78.26 -73.68,195.53 -282.54,233.22 -549.9,99.49 -40.58,35.84 -268.63,-147.8l551.18 -85.43zm-485.53 0.71c-270.79,131.6 -394.65,183.77 -698.97,75.97 -60.07,-165.29 67.51,-253.3 307.62,-262.47 348.2,-13.48 353.08,154.67 391.35,186.5zm-5235.58 500.15c461.3,-467.32 934.78,-995.15 1686.65,-1199.85 -443.38,357.52 -599.77,179.76 -743.56,697.7 697.4,-280.82 825.12,-495 1593.06,-682.21 -189.09,110.38 -461.74,241.98 -599.5,318.81 -442.66,247.14 -343.61,96.47 -523.22,561.79 492.27,-189.37 614.97,-396.08 1834.73,-849.64 -561.06,406.97 -1292.58,712.59 -1380.61,1091.47 324.84,-81.28 1037.28,-529.4 1441.67,-682.21l-789.29 714.31c-273.5,200.55 -545.45,407.27 -683.92,739.7l941.95 94.04c-352.78,369.41 -1749.59,471.18 -2247.01,486.95 -187.51,-425.03 -460.02,-915.44 -530.97,-1290.86zm3701.73 -1442.4c540.43,128.3 2197.57,407.98 2785.15,714.18 -649.8,453.13 -958.3,-291.01 -2245.28,-250.43 17.49,23.65 45.3,59.77 52.6,70.67 6.46,9.32 36.55,52.47 42.86,62.07l49.17 102.92c-306.05,263.63 -310.63,195.4 -684.07,182.64 244.98,-344.05 74.26,-196.11 539.43,-418.3l-483.82 -379.02c-11.31,-45.45 -36.83,-56.91 -56.05,-84.73zm-4505.78 1261.35c395.23,-452.55 1208.88,-741.84 1824.13,-1095.48 724.93,-416.73 868.57,-684.07 1383.47,-529.83l572.54 260.04c-2049.75,45.16 -2114.26,428.04 -3220.51,1442.96l-559.64 -77.69zm4399.85 -7268.86c2743.58,164.56 5386.23,786.85 8010.97,1093.48l-1531.27 6050.24 -7579.92 -1984.4 1100.22 -5159.31zm-6386.11 1304.19c145.5,-325.69 1003.88,-1146.23 1367.56,-1350.35 102.78,1127.16 -387.89,4638.23 -2095.78,4236.85 -470.04,-248.58 -22.79,10.32 -242.68,-501.16 -149.09,138.62 -4.16,-137.89 -198.26,284.99l-287.27 1018.93 -2450.43 -551.76c-290.58,-150.66 29.96,130.01 -206.86,-180.77 1125.16,-319.38 1360.4,-168.15 2288.44,-938.66 1094.92,-908.7 604.51,-1129.88 1067.09,-1215.6 165.57,-30.69 210.73,94.04 369.28,3 -471.48,-471.76 -452.12,-676.9 -36.98,-1154.11 322.39,120.42 17.49,-10.47 221.03,158.69 54.49,45.3 120.7,151.09 134.03,122.42 10.76,-23.09 45.88,46.72 70.82,67.51zm8495.94 9514.58c267.34,-381.75 -68.09,-739.83 559.92,-847.34 776.96,-133.04 606.38,-88.89 1140.79,-577.99 625.29,-572.41 1384.75,-1047.47 1895.08,-1671.04 -704.7,-401.24 -1927.78,-436.35 -2686.09,-848.34l1725.08 248.86c566.23,148.21 1286.99,261.76 1741.99,448.39 -101.49,552.9 -2039.59,2115.42 -2571.57,2531.57 -318.52,249.14 -507.02,476.91 -782.55,692.8 867.27,69.53 801.76,-154.52 1289.15,-545.15l2120.72 -1767.94c487.1,-373.14 425.89,-616.69 565.95,-1366.99 423.17,-2267.36 1208.58,-4099.96 1207.29,-6507.81 -1399.09,-203.41 -2864.13,-485.38 -4283.73,-669.87 -981.82,-127.58 -3447.87,-522.36 -4302.22,-451.13 -413.15,899.95 -978.8,3829.32 -1154.84,5034.88 -105.93,725.64 -4.59,733.39 -534.83,1042.73l-2848.23 1636.64c-384.03,-358.23 -334.58,-494.98 -641.21,-811.94 -235.24,-243.11 -500.3,-380.31 -750.73,-558.48 -1567.24,-1115.12 -1366.98,-170.02 -1264.2,-1431.65 1493.71,55.2 2185.94,-481.65 2426.77,-2291.44 1162.57,68.09 3204.74,611.81 3672.49,196.09l-3596.23 -435.21c322.67,-2628.03 444.67,-4869.02 -2249.31,-5365.31 -2410.72,-444.09 -4257.64,1084.88 -4298.93,3419.05 -23.09,1304.92 575.26,2002.02 643.21,3408 50.89,1053.78 499.44,958.88 -348.77,1111.83 -742.12,133.75 -878.31,267.64 -1205.72,735.1 -432.91,618.27 -2359.26,4984.87 -1975.51,5627.35 144.2,-176.6 1222.06,-3698.86 1529.12,-4375.76 904.97,-1994.42 1543.74,-2069.4 3896.54,-1483.95 3015.65,750.28 3574.86,1601.36 4878.34,4090.93 341.47,652.24 703.86,1627.31 1098.49,1766.22l-268.35 -713.46c1015.64,181.2 1779.55,409.41 2580.44,712.89l1092.33 -1121.71c807.78,220.04 1276.96,510.04 1699.27,1139.2z"/>
  <path class="fil0" d="M30135.73 10354.36c144.63,-1000.73 5.73,-1384.05 800.75,-1893.79 29.96,815.09 -75.26,1078.42 -581.86,1681.92 -133.31,158.69 -81.85,95.33 -218.88,211.87zm-1548.63 -3065.26c245.28,-616.4 57.78,-205.71 287.43,-421.88 273.8,364.97 379.58,433.36 853.93,608.23l-526.23 912.14c-176.9,331.57 -261.89,556.34 -493.69,761.91l-376.45 -205.43 255.02 -1654.97zm-1684.35 2126.6c189.07,-1222.64 480.51,-1864.69 1426.04,-2335.74 -53.61,437.79 -118.98,1198.4 -485.53,1512.19 -178.47,152.96 -334,204.42 -559.34,420.02 -157.25,150.51 -244.27,264.19 -381.17,403.53zm1547.04 574.55c-198.54,274.38 -289.28,641.06 -363.98,836.3 24.08,-20.79 53.18,-52.32 67.09,-68.09l180.9 -214.16c587.02,-811.08 77.13,-376.02 673.47,-657.12 419.3,-197.68 764.48,-491.84 1125.72,-677.19 -106.79,1048.48 -613.4,1781.57 -683.21,2512.94 440.66,-90.89 558.93,-463.88 788.85,-854.08 727.94,-1235.39 840.61,-938.52 861.39,-2397.25 10.6,-742.85 1866.56,-2664.45 1543.16,-5785.61 -26.09,-251.72 10.32,-237.96 -173.17,-523.65 3.3,1844.34 -77.69,3070.99 -803.48,4558.39 -422.74,866.12 -1677.91,2596.08 -2607.97,2632.05 144.22,-565.09 507.75,-1122.14 669.44,-1764.49l1015.78 250.86c-225.49,-239.82 -1535.99,-899.24 -1912.87,-1140.78 287.43,-1412.14 1705.73,-2848.36 1933.22,-3434.82 272.36,127.58 255.45,263.33 640.63,436.22 253.88,113.96 474.21,135.03 779.4,134.6 -203.99,-156.97 -286.7,-193.23 -578.12,-340.03l-549.6 -328.4c297.88,-443.52 905.96,-762.19 1322.97,-1056.21 -2345.22,495 -3553.65,4452.32 -4133.79,4817.43 -433.92,273.22 -642.35,264.62 -997,709.72 -296.74,372.29 -823.25,2098.21 -937.08,2704.01 724.06,-293 909.42,-1279.83 1681.78,-1637.63 70.97,1020.52 162.57,745.43 456.44,1287z"/>
  <path class="fil0" d="M32243.68 11146.38c299.88,-587.03 778.69,-1129.03 1444.54,-1321.84 411,-118.98 882.76,-113.96 1265.5,39.43 360.67,144.49 351.92,323.54 765.63,584.15 -787,-1593.06 -2908.28,-1017.64 -3584.34,376.29 -1174.18,-231.22 -1184.35,-160.4 -1819.68,534.99 401.09,-104.65 462.31,-357.24 830.43,-429.2 458.58,-89.88 634.32,131.6 1097.91,216.18z"/>
  <path class="fil0" d="M25294.5 13087.62c504.74,-275.37 2379.04,-2702.01 2748.16,-3399.56 -604.79,291.29 -2454.72,2730.97 -2748.16,3399.56z"/>
  <path class="fil0" d="M22888.65 7488.36c619.56,542.15 1435.79,409.56 1799.47,2428.07 1006.46,-2.02 549.17,72.24 1047.75,456 -169.29,-500.02 -401.95,-559.79 -834.43,-805.35 -242.12,-1117.41 -837.6,-1952.85 -2012.79,-2078.72z"/>
  <path class="fil0" d="M29951.23 6018.6c799.75,851.06 1725.79,-100.64 1184.22,-806.49 -10.04,1783.71 -1776.25,370.98 -482.1,-111.81l286.57 -91.32c21.5,-7.74 60.92,-24.23 89.58,-39.57l-773.37 -28.95c-264.19,321.1 -396.79,479.93 -304.9,1078.14z"/>
  <path class="fil0" d="M27920.82 11189.23c-517.79,206.14 -1539.58,2456.03 -1792.45,2990.73l321.53 -308.93c147.93,-194.82 133.32,-208.28 235.96,-367.99 439.09,-683.34 968.9,-1584.44 1234.96,-2313.82z"/>
  <path class="fil0" d="M28236.19 13179.36c302.9,-393.49 828.55,-2606.68 592.03,-3113.98 -228.5,705.57 -647.37,2257.04 -592.03,3113.98z"/>
  <path class="fil1" d="M14113.04 10643.22c27.96,21.78 67.24,30.52 82.29,66.94 13.33,32.4 66.23,43.86 83.85,43.01 235.81,-11.62 148.23,-24.38 260.19,-93.76 -88.31,-36.7 -199.12,-180.47 -426.33,-16.2z"/>
 </g>
</svg>
