<?xml version="1.0" encoding="UTF-8"?>
<!DOCTYPE svg PUBLIC "-//W3C//DTD SVG 1.1//EN" "http://www.w3.org/Graphics/SVG/1.1/DTD/svg11.dtd">
<!-- Creator: CorelDRAW -->
<svg xmlns="http://www.w3.org/2000/svg" xml:space="preserve" width="86.2781mm" height="107.716mm" version="1.1" style="shape-rendering:geometricPrecision; text-rendering:geometricPrecision; image-rendering:optimizeQuality; fill-rule:evenodd; clip-rule:evenodd"
viewBox="0 0 167.45 209.06"
 xmlns:xlink="http://www.w3.org/1999/xlink"
 xmlns:xodm="http://www.corel.com/coreldraw/odm/2003">
 <defs>
  <style type="text/css">
   <![CDATA[
    .fil0 {fill:#525252}
    .fil1 {fill:#757575}
    .fil2 {fill:#949392}
    .fil4 {fill:#BFBEAE}
    .fil3 {fill:#D4D4D4}
   ]]>
  </style>
 </defs>
 <g id="Layer_x0020_1">
  <metadata id="CorelCorpID_0Corel-Layer"/>
  <g id="_1923833088720">
   <path class="fil0" d="M49.49 148.4c4.08,1.62 7.98,9.85 10.63,14.44 5.24,9.06 11.46,9.18 13.77,11.93 -7.53,-0.35 -12.96,-5.93 -15.67,-9.69 -2.57,-3.57 -7.88,-11.5 -8.74,-16.68zm-22.19 -68.58c0.07,0.84 0.36,1.91 -0.25,2.48l-0.56 1.88c3.37,-0.69 6.63,-0.53 6.74,3.54 -2.81,1.88 -0.79,2.17 -8.41,2.04l-15.85 -0.02 -0.07 0.66c-4.27,3.6 -3.88,11.94 -1.69,17.55 3.19,8.19 6.23,9.15 9.85,12.66l0.29 0.73 1.3 -0.17 1.41 -0.41c0.91,-0.88 2.28,-4.28 6.54,-4.43 2.79,-0.1 4.5,0.69 6.09,2.6l1.29 1.59c4.22,-1.44 5,0.78 7.07,2.82l-20.68 0.06 -4.28 -0.09 -0.78 -0.07c-2.94,0.74 -9.26,-1.68 -9.13,6.32 0.08,4.72 0.81,9.56 2.01,13.91 3.31,11.94 6.98,13.25 11.21,20.33 4.1,6.86 5.72,16.81 2.65,25.59 -4.75,13.58 -15.36,13.74 -8.18,19.7l51.37 0c2.21,-1.56 1.84,-1.56 3.06,-4.6 2.83,-7.05 4.14,-9.35 5.81,-17.43 7.43,0.84 18.49,3.48 20.5,-4.19 0.5,-1.92 0.09,-3.62 -0.37,-5.41 -0.94,-3.69 -0.5,-2.79 0.93,-5.1 1.43,-2.29 -0.56,-1.74 1.08,-4.64 1.24,-2.18 0.03,-2.98 0.48,-5.71 2.34,-1.74 5.75,-1.09 6.27,-4.17 0.71,2.27 -7.32,-1.52 -7.89,2.91 -0.32,2.44 0.58,3.91 -1.94,4.79 -2.61,0.91 -2.73,0.42 -4.14,2.32 -4.82,6.5 -8.51,8.06 -17.99,3.33 -5.82,-2.9 -9.3,-7.48 -12.62,-13.29 -2.2,-3.84 -5.17,-12.37 -6.19,-13.45 -1.56,-1.65 -2.95,-0.08 -4.4,0.38 -0.79,-3.37 -1.97,-6.47 -2.7,-10.11 -0.59,-2.94 -1.37,-8.1 -2.42,-10.52l3.95 -0.03c0.49,-1.11 0.31,-3.27 0.29,-4.4 0.97,-9.42 -21.75,-11.43 -12.65,-23.51 8.02,-10.64 21.37,-12.48 17.98,-21.5 -1.62,0.62 -2.36,6.12 -6.7,7.63 2.76,-5.33 5.16,-11.33 -1.69,-13.93 -3.13,-1.19 -7.66,-2.63 -10.79,-1.81 -0.02,0.07 0.01,0.12 0.01,0.22 0.08,0.82 0.99,1.27 1.54,1.74 9.13,7.84 7.5,8.04 -7.37,11.24zm76.26 74.83c-0.35,0.77 -0.18,-0.27 -0.24,1.18 -0.06,1.29 0.05,1.03 0.21,1.2l0.03 -2.38z"/>
   <path class="fil1" d="M71.08 52.47l0.5 -0c-1.48,-1.03 -0.99,0.71 -0.7,-1.04 0.3,-1.79 -0.42,-0.14 0.73,-0.71 0.06,-2.06 0.89,-1.89 1.21,-2.03 0.13,-1.26 1.14,-2.7 2.27,-3.43l0.56 -0.27c-0.42,-0.94 -0.56,-0.8 0.4,-0.42 -0.4,-0.92 -0.54,-0.79 0.38,-0.41 -0.37,-0.92 -0.51,-0.78 0.41,-0.41 -0.38,-0.93 -0.5,-0.79 0.41,-0.38 -0.38,-0.97 -0.52,-0.82 0.43,-0.4l3.25 -2.43c0.06,-0.1 0.12,-0.39 0.17,-0.31 0.04,0.08 0.14,-0.22 0.19,-0.25 0.33,-0.18 0.24,-0.21 0.87,-0.24 0.54,-1.01 1.2,-1.23 2.42,-1.86 0.11,-0.06 0.43,-0.22 0.54,-0.28l1.34 -0.67c0.08,-0.04 0.19,-0.09 0.27,-0.14 0.09,-0.04 0.19,-0.09 0.28,-0.14 0.09,-0.04 0.19,-0.09 0.29,-0.14l4.34 -1.48c2.27,-0.57 6.48,-0.75 8.95,-0.26l14.3 7.95 5.21 4.65c1.24,1.21 3.39,1.57 5.19,1.84 2.16,0.33 4.11,0.75 6.08,0.87 14.55,0.83 16.74,-6.58 21.45,-13.46 2.24,-3.27 0.04,-4.02 1.47,-5.76 -0.66,-5.34 -2.52,-12.38 -6.4,-15.83 -4.61,-4.11 -10.14,-6.03 -16.53,-5.59l1.85 1.04c-1.12,0.91 -1.29,2.24 -0.63,3.94 0.25,0.64 0.7,1.23 1.13,1.73 1.1,1.28 0.55,1.94 0.95,0.92 0.02,-0.06 0.12,0.11 0.19,0.15 -1.67,-0.07 -1.47,-0.25 -3.12,-1.43l-3.63 -4.72 0.91 -0.98 -0.98 0.21 -0.75 0.07c-3.88,1.54 -9.29,3.13 -13.63,4.22 -2.51,0.62 -4.96,1.11 -7.51,1.51 -2.57,0.4 -5.83,0.09 -8.15,0.8 -0.65,0.75 -1.52,0.49 1.53,0.7 -4.99,1.28 -9.12,3.31 -14.07,-0.31 -3.57,-2.62 -6.16,-8.88 -7.33,-10.2 -0.43,6.07 -0.93,10.04 3.6,12.77 4.06,2.45 10.46,1.76 15.32,1.19 9.72,-1.14 20.52,-3.98 30.14,-3.67 28.23,0.93 20.85,29.07 6.02,25.46 -2.33,-0.57 -4.7,-2.09 -6.34,-2.24 0.37,-0.81 0.31,-0.47 -0.57,-0.22 -0.02,0.03 -1.71,0.41 0.57,0.22 -0.53,0.38 0.25,0.91 -3.41,-0.16 -1.29,-0.38 -2.16,-0.65 -3.42,-1.11 -6.33,-2.32 -13.1,-6.13 -18.38,-9.51l1.51 -1.11c-10.15,0.06 -17.02,2.15 -23.61,7.11 -5.68,4.28 -10.03,9.17 -14.21,16.56 -3.63,6.41 -6.57,14.33 -7.98,22.79 -0.79,4.74 -2.15,25.92 0.49,28.75 1.13,-0.33 2.12,2.29 8.44,1.93l-2.42 -20.98c-0.05,-6.91 1.21,-16.2 2.74,-22.47 0.03,-0.11 0.05,-0.22 0.08,-0.33l0.31 -1.3c0.12,-0.43 0.46,-1.46 0.51,-1.58l2.01 -5.37c1.03,-1.79 -0.02,-0.95 1.53,-1.33zm-0.48 63.18c1.98,-1.13 3.18,-1.42 5.58,-1.73l2.23 -0.33 -2.62 -0.01c1.24,-6.51 3.32,-15.54 5.53,-21.56 1.58,-4.29 4.41,-10.04 6.98,-13.49l2.95 -3.92 0.84 2.08c0.63,1.07 0.23,0.71 1.65,1.14 0.24,-0.55 0.39,0.16 -0.57,-0.57 -0.38,-0.29 -0.72,-0.5 -1.08,-0.79 0.08,-1.15 -0.09,-1.1 0.9,-2.28l0.46 -0.44c-4.07,1.36 -9.78,0.41 -14.43,0.57 -2.28,0.1 -7.51,0.75 -7.95,-1.76 0.79,-0.99 1.4,-0.81 2.75,-1.12 3.44,0.27 1.84,0.59 3.22,-1.71 0.92,-1.53 2.71,-1.34 4.6,-0.99 0.83,-6.16 8.47,-7.61 13.36,-4.75 1.81,1.06 2.02,1.55 3.13,3.89 -0.02,-0.11 -0.07,0.07 0.56,-0.26 1.85,-2.07 6.2,-1.8 8.65,-0.43 3.04,1.69 3.47,3.71 6.37,5.5 10,6.17 21.17,2.76 28.79,-5.43 0.58,-0.62 0.77,-0.97 1.31,-1.58 0.76,-0.87 0.91,-0.77 1.56,-1.71l2.41 -3.34c2.1,-3.29 4.67,-8.45 5.33,-12.39 -0.86,-0.21 -1.41,0.47 -2.78,1.52 -0.18,0.14 -1.03,0.75 -1.21,0.86 -5.51,3.47 -9.81,4.84 -16.58,4.95l2.03 0.31c-8.32,9.21 -19.99,11.6 -32.22,3.96 -1.52,-0.95 -2.89,-1.89 -4.43,-2.94l-3.48 -2.26c-0.74,-0.5 -0.69,-0.48 -1.18,-0.96 3.94,-0.17 11.87,3.49 14.9,5.66l0.32 -0.16c0.05,-0.13 -7.57,-4.47 -8.66,-5.01 -7.16,-3.5 -7.95,-1.29 -10.55,-2.13 -8.85,-2.85 -15.16,0.44 -19.93,5.1 -0.06,0.07 -0.14,0.1 -0.16,0.23 -0.02,0.13 -0.13,0.18 -0.16,0.24l-1.9 6.57c-0.06,0.32 -0.11,0.66 -0.17,1 -0.12,0.65 -0.21,1.15 -0.32,1.7 -1.48,7.59 -2.13,20.62 -1.11,28.4 0.69,5.29 3.32,18.2 5.09,20.36zm-1.29 -59.19l0.23 -0.59 -0.23 0.59zm29.28 13.42l0.03 -1.65 -0.03 1.65zm1.82 0.31l-1.74 0.47 -0.5 0.09c-0.16,-1.87 -0.61,1.26 -1.06,1.88 -1.01,1.38 -1.6,0.67 -3.54,0.93 2.41,0.13 2.94,0.44 3.33,-0.26 2.05,-3.63 5.02,-3.01 3.5,-3.1zm4.25 -0.03l-3.41 -0.49 3.41 0.49zm0.86 0.44l-0.34 -0.02 0.34 0.02zm3.71 4.9c-2.74,-0.77 -1.14,0.23 -1.69,-2.03 -0.4,-1.65 -0.47,-1.62 -1.7,-2.42 0.84,1.01 1.64,0.79 1.51,2.63 -0.13,1.9 0.07,0.6 -0.45,1.25l1.16 0.49c1.41,0.77 0.48,-0.01 1.18,0.97l-0.01 -0.88zm0.48 1.96l0.22 -0.93c-0.38,0.38 -0.14,-0.63 -0.3,0.36 -0.08,0.5 -0.11,0.05 0.08,0.56zm-0.8 0.36l0.38 0.02c-0.07,-0.03 -0.2,-0.18 -0.21,-0.1 -0.01,0.06 -0.15,-0.07 -0.16,-0.06 -1.01,0.15 -0.11,-0.03 -0.01,0.15zm-14.55 0.39l13.96 0.01c-0.07,-0.04 -0.2,-0.16 -0.23,-0.08l-12.97 -0.13c-1.04,0.15 -0.37,-0.01 -0.75,0.21zm-12.96 36.17l-2.18 -0.34c-1.48,0.03 0.05,0.13 0.61,0.25 0.55,0.12 0.62,0.12 0.87,0.14 0.87,0.06 0.41,0.07 0.7,-0.05zm0.91 0.35l-0.39 0.11 0.05 0.08c0.01,-0.01 0.14,-0.07 0.15,-0.08 0.02,-0.01 0.13,-0.07 0.19,-0.11zm0.8 0.8c0.59,0.79 0.19,0.42 0.47,-0.06l-0.47 0.06 -0.33 -0.28 0.33 0.28zm1.92 1.71l-0.94 -1.15c-0.33,0.37 -0.35,-0.17 0.33,0.63 0.57,0.67 0.56,0.53 0.61,0.52zm2.75 3.06l-1.33 0.24 -0.89 -2.91 0.22 1.45c0.16,0.53 0.41,1.3 0.61,1.7 2.62,0.23 0.57,0.11 1.4,-0.47zm37.83 -80.43l0.08 -0.06 -0.08 0.06zm-0.9 -0.65c0.04,0.14 0.08,0.31 0.13,0.43 0.56,1.35 0.37,-0.21 0.45,-0.32l-0.58 -0.11zm-39.49 -0.66c1.32,1.79 3.49,5.35 5.21,6.58 2.31,1.64 5.14,2.92 8.06,3.83 5.79,1.81 15.84,1.79 20.34,-1.44 -0.62,-1.55 -1.24,-1.74 -3.09,-3.11 -0.18,-0.13 -0.54,-0.4 -0.71,-0.53 -0.09,-0.08 -0.36,-0.3 -0.45,-0.38l-3.06 -2.65c-0.07,-0.05 -0.16,-0.12 -0.23,-0.17 -0.1,-0.07 -0.38,-0.27 -0.48,-0.34l-4.54 -2.83c-0.09,-0.04 -0.19,-0.09 -0.28,-0.13l-3.19 -1.28c-5.13,-1.63 -9.83,-0.93 -14.42,0.81l-2.27 1.01c-0.06,0.04 -0.87,0.62 -0.9,0.65zm-1.22 0.49c-0.79,-0.34 -0.55,-0.34 -0.24,0.43l0.24 -0.43zm-1.87 1.28c-0.89,-0.39 -0.61,-0.38 -0.26,0.48l0.26 -0.48zm-2.18 1.52c1.36,-0.46 0.5,-0.17 0.99,-0.7 -0.12,0.03 -0.31,-0.07 -0.35,0.09l-0.5 0.35c-0.04,0.04 -0.1,0.17 -0.14,0.26zm-1.54 1.29c0.93,-0.52 0.46,-0.29 0.81,-0.79 -2.12,0.64 0.47,-1.07 -0.56,0.27 -0.03,0.04 -0.13,0.19 -0.16,0.24 -0.03,0.05 -0.07,0.19 -0.09,0.29zm-3.71 3.84c0.43,-0.39 0.23,-0.15 0.65,-0.66 0.01,-0.01 0.38,-0.55 0.47,-0.67 -0.93,0.38 -0.06,-0.44 -0.72,0.43l-0.29 0.56c-0.04,0.07 -0.07,0.22 -0.11,0.33zm-1.18 1.73c0.62,-0.64 0.22,0.62 0.65,-1.04 -1.94,0.9 0.54,-1.75 -0.44,0.33 -0.03,0.07 -0.1,0.24 -0.13,0.31 -0.03,0.08 -0.06,0.26 -0.08,0.39zm-0.91 1.55c-0.78,-0.4 -0.8,-0.63 -0.38,0.22l0.38 -0.22zm-2.46 4.86c-0.8,-0.33 -0.73,-0.49 -0.36,0.32l0.36 -0.32zm13.7 1.84c-1.11,2.29 -3.28,4.75 -5.68,5.7 -3.33,1.33 -6.99,-0.54 -6.87,-3.64 0.19,-5.17 15.98,-9.12 12.55,-2.07zm50.37 -44.33c3.27,-0.48 4.69,1.4 4.23,4.65 -2.7,0.15 -4.56,-1.81 -4.23,-4.65z"/>
   <path class="fil1" d="M97.92 141.39l-0.17 -0.57 -0.4 -0.48c0.18,-4.08 1.59,-3.01 1.66,-5.52 -7.44,-5.5 -3.78,-7.58 -20.5,-10.8 4.31,-0.32 14.39,-0.72 18.07,0.57 -0.18,0.78 -0.32,0.62 0.46,0.43 -0.17,0.79 -0.35,0.66 0.43,0.52 -0.11,1.38 -0.15,0.44 0.45,0.72 -0.18,1.87 -0.17,0.61 0.41,0.85l-0.41 -0.85 -0.45 -0.72c0.07,-0.8 0.29,-0.72 -0.43,-0.52 0.18,-0.75 0.31,-0.58 -0.46,-0.43 0.17,-0.55 0.28,-0.44 -0.28,-0.36l-0.38 -0.49 -0.63 0.13 -0.63 -0.37 -4.27 -0.35 -0.4 -0.49c-0.68,-1.43 0.04,-0.46 -1.03,-1.34 0.19,0.59 0.09,0.36 0.51,1.04 0.5,0.82 0.23,0.34 0.66,0.96l-19.83 -0.07 -2.75 0.05c-1.07,0 -2.28,0.07 -3.32,0.04 -2.06,-0.05 -1.48,0.31 -2.08,-0.75l0.59 -0.13 -0.61 0 0.02 0.13c-0.92,1.08 0.1,0.27 -1.15,0.8l-13.74 -0.05c0.22,-1.67 0.52,-2.43 -0.3,-3.62 0.02,1.13 0.2,3.29 -0.29,4.4l-3.95 0.03c1.04,2.42 1.82,7.58 2.42,10.52 0.73,3.64 1.91,6.74 2.7,10.11 1.45,-0.46 2.85,-2.02 4.4,-0.38 1.02,1.08 3.99,9.6 6.19,13.45 3.33,5.81 6.81,10.39 12.62,13.29 9.48,4.72 13.17,3.16 17.99,-3.33 1.41,-1.9 1.53,-1.41 4.14,-2.32 2.52,-0.88 1.62,-2.35 1.94,-4.79 0.57,-4.43 8.6,-0.63 7.89,-2.91 0.76,0 0.48,0.15 0.51,-0.79 -0.16,-0.17 -0.27,0.09 -0.21,-1.2 0.06,-1.45 -0.11,-0.41 0.24,-1.18l-0.37 -1.42 -0.48 -0.38 -0.3 -0.7 -0.15 -0.73 -0.41 -0.45 0.14 -0.65 -0.13 1.08c0.21,0.8 0.23,0.41 0.55,0.76l-0.08 1.56c-0.06,-0.07 -0.15,-0.17 -0.19,-0.21 -1.85,-1.92 -3.13,-2.65 -4.73,-5.51 -1.8,-3.21 -1.93,-4.78 -0.92,-8.41 0.08,0.1 0.16,0.23 0.21,0.31 0.05,0.07 0.15,0.21 0.21,0.29 0.06,0.08 0.14,0.2 0.2,0.28l0.8 0.93zm-5.67 -7.68c-4.72,1.35 -12.21,-3.63 -8.78,-6.28 2.33,-1.8 11.27,1.53 8.78,6.28z"/>
   <path class="fil2" d="M132.54 55.57c-2.99,-0.08 -6.22,-1.36 -8.24,-2.87 -0.86,-0.64 -2.31,-1.91 -2.88,-2.51 -1.05,-1.09 -1.35,-1.86 -2.59,-2.64 -4.5,3.23 -14.55,3.25 -20.34,1.44 -2.92,-0.91 -5.75,-2.19 -8.06,-3.83 -1.72,-1.22 -3.89,-4.78 -5.21,-6.58 -0.33,0.06 -0.49,0.11 -0.7,0.18 -0.09,0.03 -0.42,0.23 -0.53,0.31l-0.24 0.43 -1.57 0.23 -0.05 0.63 -0.26 0.48 -0.92 -0.3 -0.01 0.65c-0.49,0.53 0.37,0.24 -0.99,0.7l-0.73 0.5c-0.35,0.51 0.12,0.27 -0.81,0.79l-0.72 -0.21c0.42,0.98 0.54,0.81 -0.43,0.4 0.39,0.9 0.49,0.74 -0.41,0.38 0.37,0.92 0.51,0.79 -0.41,0.41 0.36,0.91 0.52,0.8 -0.38,0.41 0.4,0.95 0.55,0.82 -0.4,0.42l0.18 0.7c-0.09,0.12 -0.46,0.65 -0.47,0.67 -0.42,0.51 -0.22,0.27 -0.65,0.66l-0.53 0.7c-0.43,1.65 -0.03,0.39 -0.65,1.04l-0.71 -0.05 -0.21 1.6 -0.38 0.22c-0.07,0.74 0.08,0.57 -0.62,0.21l-0.03 1.75 -0.5 0c-0.23,0.68 -0.4,0.86 -0.55,1.26 -0.38,1.02 -0.18,-0.16 -0.38,1.41l-0.36 0.32 -0.24 0.41 -0.23 0.59 0.02 0.69c4.77,-4.65 11.08,-7.94 19.93,-5.1 2.6,0.84 3.39,-1.37 10.55,2.13 1.09,0.53 8.71,4.87 8.66,5.01l-0.32 0.16c-3.03,-2.17 -10.96,-5.84 -14.9,-5.66 0.49,0.48 0.44,0.46 1.18,0.96l3.48 2.26c1.55,1.05 2.91,1.99 4.43,2.94 12.23,7.63 23.9,5.25 32.22,-3.96l-2.03 -0.31z"/>
   <path class="fil3" d="M105.85 71.06l-0.32 -0.45 -0.34 -0.02c0,-0.63 0.14,-0.46 -0.52,-0.42l-3.41 -0.49c-1.03,-0.19 -0.83,-0.45 -0.83,0.51 1.52,0.09 -1.46,-0.53 -3.5,3.1 -0.39,0.7 -0.92,0.38 -3.33,0.26 1.94,-0.25 2.53,0.46 3.54,-0.93 0.45,-0.62 0.9,-3.74 1.06,-1.88l0.5 -0.09 -0.08 -0.78 0.03 -1.65 0.07 -0.61c-0.63,0.32 -0.58,0.14 -0.56,0.26 -1.11,-2.34 -1.32,-2.83 -3.13,-3.89 -4.89,-2.85 -12.53,-1.41 -13.36,4.75 -1.89,-0.35 -3.68,-0.54 -4.6,0.99 -1.39,2.3 0.21,1.98 -3.22,1.71 0.49,0.65 -0.24,0.11 0.91,0.92 0.3,0.21 1.1,0.58 1.39,0.7 0.56,0.24 0.81,0.29 1.49,0.55l1.4 0.71c4.65,-0.16 10.36,0.79 14.43,-0.57l-0.46 0.44c-0.99,1.18 -0.82,1.13 -0.9,2.28 0.37,0.29 0.7,0.51 1.08,0.79 0.97,0.73 0.82,0.02 0.57,0.57 0,0.69 -0.14,0.48 0.62,0.4 0.38,-0.22 -0.29,-0.06 0.75,-0.21l12.97 0.13c0.04,-0.08 0.16,0.04 0.23,0.08 0.74,0.08 0.59,0.27 0.59,-0.4 -0.11,-0.18 -1,-0 0.01,-0.15 0.01,-0 0.15,0.12 0.16,0.06 0.01,-0.08 0.14,0.07 0.21,0.1l0.43 -0.38c-0.2,-0.51 -0.17,-0.07 -0.08,-0.56 0.17,-0.99 -0.08,0.02 0.3,-0.36l-0.7 -1.03 0.01 0.88c-0.7,-0.98 0.23,-0.19 -1.18,-0.97l-1.16 -0.49c0.52,-0.65 0.32,0.66 0.45,-1.25 0.13,-1.84 -0.67,-1.62 -1.51,-2.63z"/>
   <path class="fil3" d="M14.84 75.8c-0.23,0.53 0.99,0.71 -0.82,0.41 -0.3,0.37 0.33,0.42 -1.21,0.91 0.36,0.95 0.47,0.76 -0.48,0.4 0.36,0.93 0.53,0.79 -0.42,0.47l-0.33 0.55c0.19,1.23 0.45,1.09 -0.66,0.55 -0.77,-0.45 -0.67,-0.74 -0.67,0.06 0.56,0.67 1.2,0.19 0.41,1.18 -2.36,0 -1.59,0.43 -3.27,-0.9l0.05 0.09c0.37,1.67 1.36,1.87 -0.87,0.19l-0.03 0.33c1.45,2.78 -0.19,-0.31 -0.41,3.22 2.9,1.38 5.68,2.69 8.93,3.78 2,0.67 8.56,2 9.77,2.71 7.62,0.13 5.59,-0.17 8.41,-2.04 -0.1,-4.07 -3.37,-4.22 -6.74,-3.54l0.56 -1.88c0.31,-1.83 0.09,-0.78 -0.1,-2.36 -0.01,-0.1 -0.06,-0.83 -0.06,-0.97 0.12,-1.92 -0.97,0.92 0.25,-0.53l-0.49 -0.28 -0.35 0.47 -0.13 -0.6c-0.85,0.23 -0.66,0.36 -0.43,-0.5 -0.88,0.24 -0.75,0.43 -0.51,-0.45l-0.57 -0.23 0.5 -0.25 -0.29 -0.53c-0.09,0.09 0.04,1.43 -0.63,0.37 -0.05,-0.08 -0.15,-0.16 -0.22,-0.24l-1.98 -0.63 0.46 -0.17 -0.51 -0.34c-0.73,0.63 -1.12,0.27 -1.49,0.24 -4.04,-0.37 -3.69,0.83 -4.53,-0.29l-0.51 0.34 0.52 0.39 -1.15 0.05z"/>
   <path class="fil0" d="M82.18 39.72c-0.63,0.03 -0.55,0.06 -0.87,0.24 -0.05,0.03 -0.16,0.33 -0.19,0.25 -0.04,-0.09 -0.11,0.21 -0.17,0.31l-3.25 2.43c-0.95,-0.42 -0.82,-0.57 -0.43,0.4 -0.91,-0.41 -0.79,-0.56 -0.41,0.38 -0.92,-0.37 -0.78,-0.51 -0.41,0.41 -0.93,-0.38 -0.79,-0.5 -0.38,0.41 -0.96,-0.38 -0.82,-0.52 -0.4,0.42l-0.56 0.27c-1.12,0.73 -2.13,2.18 -2.27,3.43 -0.32,0.14 -1.16,-0.04 -1.21,2.03 -1.15,0.57 -0.44,-1.08 -0.73,0.71 -0.29,1.75 -0.78,0.01 0.7,1.04l0.03 -1.75c0.71,0.36 0.55,0.53 0.62,-0.21 -0.41,-0.85 -0.4,-0.62 0.38,-0.22l0.21 -1.6 0.71 0.05c0.02,-0.13 0.04,-0.3 0.08,-0.39 0.03,-0.07 0.1,-0.25 0.13,-0.31 0.98,-2.08 -1.49,0.56 0.44,-0.33l0.53 -0.7c0.04,-0.11 0.08,-0.27 0.11,-0.33l0.29 -0.56c0.66,-0.87 -0.21,-0.05 0.72,-0.43l-0.18 -0.7c0.95,0.4 0.8,0.52 0.4,-0.42 0.91,0.39 0.75,0.5 0.38,-0.41 0.92,0.38 0.79,0.51 0.41,-0.41 0.91,0.36 0.81,0.53 0.41,-0.38 0.97,0.41 0.86,0.57 0.43,-0.4l0.72 0.21c0.03,-0.1 0.06,-0.24 0.09,-0.29 0.03,-0.04 0.12,-0.2 0.16,-0.24 1.03,-1.34 -1.56,0.37 0.56,-0.27l0.73 -0.5c0.04,-0.09 0.1,-0.22 0.14,-0.26l0.5 -0.35c0.04,-0.16 0.23,-0.06 0.35,-0.09l0.01 -0.65 0.92 0.3c-0.35,-0.86 -0.63,-0.87 0.26,-0.48l0.05 -0.63 1.57 -0.23c-0.31,-0.77 -0.54,-0.77 0.24,-0.43 0.11,-0.09 0.44,-0.28 0.53,-0.31 0.21,-0.07 0.37,-0.12 0.7,-0.18 0.03,-0.02 0.83,-0.61 0.9,-0.65l2.27 -1.01c4.59,-1.74 9.29,-2.44 14.42,-0.81l3.19 1.28c0.09,0.04 0.19,0.09 0.28,0.13l4.54 2.83c0.1,0.07 0.38,0.27 0.48,0.34 0.07,0.05 0.17,0.12 0.23,0.17l3.06 2.65c0.09,0.08 0.36,0.31 0.45,0.38 0.16,0.13 0.53,0.39 0.71,0.53 1.85,1.37 2.47,1.56 3.09,3.11 1.23,0.79 1.54,1.55 2.59,2.64 0.58,0.6 2.02,1.87 2.88,2.51 2.02,1.51 5.25,2.8 8.24,2.87 6.76,-0.11 11.07,-1.48 16.58,-4.95 0.18,-0.11 1.03,-0.72 1.21,-0.86 1.37,-1.05 1.93,-1.73 2.78,-1.52 1.42,-7.01 1.61,-9.92 1.23,-17.38 -1.43,1.74 0.77,2.49 -1.47,5.76 -4.71,6.89 -6.9,14.29 -21.45,13.46 -1.97,-0.11 -3.92,-0.54 -6.08,-0.87 -1.8,-0.27 -3.95,-0.63 -5.19,-1.84l-5.21 -4.65 -14.3 -7.95c-2.47,-0.49 -6.69,-0.31 -8.95,0.26l-4.34 1.48c-0.09,0.04 -0.2,0.09 -0.29,0.14 -0.09,0.04 -0.19,0.09 -0.28,0.14 -0.09,0.04 -0.19,0.09 -0.27,0.14l-1.34 0.67c-0.11,0.06 -0.43,0.22 -0.54,0.28 -1.22,0.62 -1.88,0.85 -2.42,1.86z"/>
   <path class="fil2" d="M165.59 67.97c0.06,-0.06 0.14,-0.26 0.16,-0.2l1.69 -4.82 0 -6.84 -1.33 -4.35c-2.6,-0.72 -2.1,-0.67 -4.75,-0.03 -0.83,3.1 -2.66,7.07 -3.89,10.15l-4.36 9.58 0.06 1.13c-0.06,0.08 -0.13,0.16 -0.19,0.23 -0.05,0.07 -0.13,0.15 -0.19,0.22 -0.05,0.06 -0.13,0.15 -0.19,0.21 -0.05,0.06 -0.14,0.16 -0.19,0.22l-0.56 0.67c4.7,1 7.14,-1.17 10.73,-3.57 1.78,-1.2 1.09,-1.01 1.84,-1.77 0,-0 -0.77,-0.06 1.14,-0.84zm-0.27 0.49c-0.89,0.03 -0.75,-0.2 -0.51,0.63l0.51 -0.63zm-13.15 3.73l0.48 -0.06 -0.48 0.06z"/>
   <path class="fil1" d="M153.12 71.46c-1.75,2.11 1.23,-0.9 -0.48,0.67l-0.48 0.06c-0.04,0.11 -0.13,0.15 -0.16,0.31l-0.34 0.58c-1.58,2.23 -6.11,5.54 -8.57,6.57 -4.76,1.99 -9.35,2.47 -14.89,2.09 0.61,0.85 0.29,0.53 1.14,1.1 4.32,2.87 15.17,3.87 21.64,0.75 3.18,-1.53 6.51,-3.78 8.25,-5.72 1.5,-1.67 5.49,-6.4 5.58,-8.78 -0.24,-0.83 -0.38,-0.6 0.51,-0.63l0.27 -0.49c-1.92,0.77 -1.14,0.83 -1.14,0.84 -0.75,0.75 -0.06,0.57 -1.84,1.77 -3.58,2.41 -6.03,4.57 -10.73,3.57l0.56 -0.67c0.05,-0.06 0.13,-0.16 0.19,-0.22 0.05,-0.06 0.13,-0.15 0.19,-0.21 0.05,-0.07 0.13,-0.15 0.19,-0.22 0.06,-0.07 0.13,-0.15 0.19,-0.23l-0.06 -1.13z"/>
   <path class="fil0" d="M57.88 103.89c-0.53,5.63 3.42,13.33 4.25,18.58l0.61 0c0.79,-1.38 1.53,-2.26 3.54,-2.76l1.06 -0.21c1,-2.17 1.03,-2.58 3.26,-3.86 -1.77,-2.16 -4.4,-15.08 -5.09,-20.36 -1.02,-7.78 -0.37,-20.81 1.11,-28.4 0.11,-0.55 0.21,-1.05 0.32,-1.7 0.06,-0.34 0.12,-0.68 0.17,-1l1.9 -6.57c0.03,-0.05 0.14,-0.1 0.16,-0.24 0.02,-0.13 0.1,-0.16 0.16,-0.23l-0.02 -0.69 0.23 -0.59 0.24 -0.41c-0.37,-0.81 -0.44,-0.65 0.36,-0.32 0.2,-1.56 0,-0.39 0.38,-1.41 0.15,-0.4 0.31,-0.58 0.55,-1.26 -1.55,0.38 -0.5,-0.46 -1.53,1.33l-2.01 5.37c-0.04,0.13 -0.39,1.16 -0.51,1.58l-0.31 1.3c-0.03,0.11 -0.05,0.22 -0.08,0.33 -1.54,6.27 -2.8,15.56 -2.74,22.47l2.42 20.98c-6.32,0.36 -7.32,-2.27 -8.44,-1.93z"/>
   <path class="fil3" d="M70.61 115.65c-2.23,1.27 -2.27,1.68 -3.26,3.86l-1.06 0.21 4.02 3.54 19.83 0.07c-0.43,-0.62 -0.16,-0.15 -0.66,-0.96 -0.42,-0.69 -0.32,-0.45 -0.51,-1.04 -0.53,-1.2 1.56,-0.57 -1.18,-1.01 -0.83,0.59 1.23,0.71 -1.4,0.47 -0.2,-0.39 -0.45,-1.17 -0.61,-1.7l-0.22 -1.45 -0.52 -0.39c-0.05,0 -0.04,0.15 -0.61,-0.52 -0.69,-0.8 -0.67,-0.26 -0.33,-0.63 0,-0.82 0.23,-0.69 -0.51,-0.61 -0.28,0.48 0.12,0.84 -0.47,0.06l-0.33 -0.28c0,-0.72 0.2,-0.58 -0.47,-0.52 -0.07,0.03 -0.18,0.1 -0.19,0.11 -0.01,0.01 -0.14,0.07 -0.15,0.08l-0.05 -0.08c0,-0.67 0.16,-0.5 -0.52,-0.46 -0.29,0.12 0.16,0.11 -0.7,0.05 -0.25,-0.02 -0.32,-0.02 -0.87,-0.14 -0.57,-0.12 -2.09,-0.22 -0.61,-0.25 0,-0.87 0.17,-0.6 -0.8,-0.46l-2.23 0.33c-2.4,0.3 -3.6,0.59 -5.58,1.73zm19.39 7.01l0.4 0.49 -0.4 -0.49z"/>
   <path class="fil2" d="M79.59 3.01c-0.97,1.1 -1.05,2.42 -1.43,4.07 1.18,1.33 3.76,7.58 7.33,10.2 4.94,3.62 9.08,1.6 14.07,0.31 -3.05,-0.22 -2.18,0.05 -1.53,-0.7l-1.04 -0.47c-1.42,-0.47 -2.61,-0.41 -4.98,-1.26 -8.43,-3.04 -8.99,-9.28 -10.82,-11.42 -0.45,-0.62 -0.64,1.21 -0.3,-0.9l0.07 0.03c-0.06,-0.84 0.2,-0.71 -0.46,-0.71 -0.04,-0.13 0.05,0.01 -0.16,-0.23 -0.02,-0.03 -0.26,-0.25 -0.36,-0.34 -0.71,0 -0.48,-0.16 -0.52,0.63 0.25,0.35 0.01,-0.55 0.26,0.53 0.22,0.99 -0.07,0.23 -0.12,0.26z"/>
   <path class="fil3" d="M20.06 120.75l-0.86 0.73 1.17 1.9 20.68 -0.06c-2.08,-2.04 -2.85,-4.26 -7.07,-2.82l-1.29 -1.59c-1.59,-1.91 -3.3,-2.7 -6.09,-2.6 -4.27,0.15 -5.63,3.55 -6.54,4.43z"/>
   <path class="fil2" d="M83.86 56.98c3.43,-7.05 -12.36,-3.1 -12.55,2.07 -0.11,3.1 3.54,4.96 6.87,3.64 2.4,-0.95 4.57,-3.42 5.68,-5.7z"/>
   <path class="fil1" d="M49.49 148.4c0.86,5.17 6.17,13.1 8.74,16.68 2.71,3.76 8.13,9.34 15.67,9.69 -2.31,-2.75 -8.53,-2.87 -13.77,-11.93 -2.65,-4.58 -6.55,-12.81 -10.63,-14.44z"/>
   <path class="fil2" d="M126.9 40.59c-2.27,0.19 -0.59,-0.19 -0.57,-0.22l-0.64 -0.54 -0.08 0.06 -0.32 -0.54c-0.08,0.11 0.11,1.68 -0.45,0.32 -0.05,-0.12 -0.09,-0.29 -0.13,-0.43 -0.21,-0.43 0.09,-0.17 -0.68,-0.75l-3.69 -2.42c-5.59,-3.49 -7.56,-6.45 -17.14,-7.37l-1.51 1.11c5.28,3.38 12.05,7.19 18.38,9.51 1.26,0.46 2.13,0.73 3.42,1.11 3.66,1.07 2.88,0.54 3.41,0.16z"/>
   <path class="fil4" d="M95.29 123.88l-0.63 -0.37 0.63 0.37zm3.72 10.94c1.05,-1.49 0.61,-5.61 -0.12,-6.96 -0.33,-0.61 -0.36,-0.56 -0.57,-0.75 -0.57,-0.24 -0.59,1.02 -0.41,-0.85 -0.59,-0.28 -0.55,0.65 -0.45,-0.72 -0.78,0.14 -0.6,0.28 -0.43,-0.52 -0.78,0.18 -0.64,0.34 -0.46,-0.43 -3.68,-1.29 -13.76,-0.89 -18.07,-0.57 16.72,3.22 13.07,5.3 20.5,10.8zm-3.1 -11.08l0.38 0.49 -0.38 -0.49z"/>
   <path class="fil4" d="M0.75 88.9l1.43 0.8c-0.7,-0.71 0.79,0.11 -0.65,-0.61 -1.05,-0.52 0.55,-0 -0.78,-0.19zm8.21 0.84l15.85 0.02c-1.2,-0.7 -7.77,-2.04 -9.77,-2.71 -3.26,-1.09 -6.03,-2.4 -8.93,-3.78 0.21,-3.53 1.86,-0.44 0.41,-3.22 -3.23,1.7 0.72,1.32 -3.67,3.64 -0.05,0.03 -0.18,0.08 -0.25,0.14 -0.07,0.12 -0.18,0.15 -0.23,0.35 -0.04,0.19 -0.36,0.52 -0.43,0.61 -0.72,0.95 -1.76,2.47 -0.26,3.73 0.05,0.04 0.16,0.13 0.22,0.18 2.2,1.79 2.76,0.9 7.06,1.03zm-7.4 -5.43l0.07 -0.4 -0.07 0.4zm5.85 -4.78l-0.87 0.19c2.22,1.68 1.23,1.48 0.87,-0.19zm2.82 -0.37l-2.87 0.28c1.68,1.34 0.91,0.9 3.27,0.9 0.79,-1 0.15,-0.52 -0.41,-1.18zm-7.02 11.03c-0,-0.63 0.13,-0.47 -0.52,-0.33l0.52 0.33zm3.23 -3.7c0.1,-0.06 0.25,-0.24 0.31,-0.14l1.42 -0.35c7.22,-0.86 5.37,4.34 0.66,2.78 -2.17,-0.72 -2.18,-1.97 -2.38,-2.29z"/>
   <path class="fil4" d="M92.26 133.71c2.49,-4.75 -6.45,-8.07 -8.78,-6.28 -3.43,2.65 4.06,7.63 8.78,6.28z"/>
   <path class="fil1" d="M128.67 91.19c0,0.75 -0.16,0.48 0.7,0.6l-0.07 0.1c1.79,1.93 5.47,2.46 8.02,1.39 0.33,-2.07 0.55,-2.8 -1.56,-3.78 -1.21,-0.56 -3.31,-1.46 -4.44,-1.79l-0.34 0.2c0,-0.77 0.16,-0.48 -0.77,-0.55 -1.6,0.96 -1.63,1.68 -1.97,3.95l0.42 -0.12z"/>
   <path class="fil4" d="M102.42 152.15c-0.32,-0.35 -0.35,0.04 -0.55,-0.76l0.13 -1.08 -4.07 -8.92 -0.8 -0.93c-0.06,-0.08 -0.14,-0.2 -0.2,-0.28 -0.06,-0.09 -0.16,-0.22 -0.21,-0.29 -0.05,-0.07 -0.13,-0.21 -0.21,-0.31 -1.01,3.63 -0.88,5.2 0.92,8.41 1.6,2.86 2.88,3.59 4.73,5.51 0.04,0.04 0.13,0.14 0.19,0.21l0.08 -1.56zm-5.07 -11.81l0.4 0.48 -0.4 -0.48zm4.51 10.62l0.41 0.45 -0.41 -0.45zm0.86 1.88l0.48 0.38 -0.48 -0.38z"/>
   <path class="fil1" d="M48.63 47.55c1.18,0.76 2.09,0.56 3.02,1.57 1.16,1.26 0.4,1.8 1.58,3.21 0.07,-0.11 0.14,-0.41 0.17,-0.34l0.56 -1.31c1.21,-3.21 0.77,-1.86 2.69,-2.96 0.6,-0.34 0.37,-0.14 0.8,-0.57 -0.07,-0.08 -0.21,-0.28 -0.25,-0.2l-2.61 -1.56 -1.35 -3.44 -0.89 1.91c-1.4,3.68 -2.55,1.66 -3.71,3.7z"/>
   <path class="fil1" d="M88.85 95.51c1.35,0.82 2.08,0.4 3.02,1.48l0.99 2.29c0.26,0.61 0.27,0.66 0.49,0.99l0.37 -0.63c0.7,-1.49 0.45,-1.78 1.1,-2.68 0.95,-1.29 1.49,-0.66 2.81,-1.86 -1.11,-1.17 -1.93,-0.73 -2.85,-1.82 -0.93,-1.11 -0.48,-2.05 -1.43,-3.45l-0.48 1.08c-0.09,0.26 -0.21,0.71 -0.32,1 -1.27,3.46 -2.75,1.57 -3.69,3.59z"/>
   <path class="fil0" d="M128.67 91.19l-0.42 0.12c0.34,-2.28 0.37,-3 1.97,-3.95l-8.21 -3.79c0.43,1.68 1.66,3.26 2.68,4.33 1.74,1.83 2.51,3.05 3.98,3.29zm2.66 -3.48l-0.34 0.2 0.34 -0.2zm-2.02 4.18l0.07 -0.1 -0.07 0.1z"/>
   <path class="fil2" d="M129.06 10.09l-0.91 0.98 3.63 4.72c1.65,1.18 1.46,1.36 3.12,1.43 -0.07,-0.05 -0.17,-0.21 -0.19,-0.15 -0.39,1.02 0.15,0.36 -0.95,-0.92 -0.43,-0.5 -0.88,-1.09 -1.13,-1.73 -0.67,-1.7 -0.49,-3.03 0.63,-3.94l-1.85 -1.04 -2.36 0.66zm-1.73 0.28l0.75 -0.07 -0.75 0.07z"/>
   <path class="fil4" d="M62.75 122.48l-0.59 0.13c0.6,1.05 0.02,0.7 2.08,0.75 1.04,0.02 2.25,-0.04 3.32,-0.04l2.75 -0.05 -4.02 -3.54c-2.01,0.49 -2.75,1.38 -3.54,2.76z"/>
   <path class="fil1" d="M108.4 0l-0.8 0c-0.39,3.84 -1.29,1.69 -2.72,3.75 3.27,1.75 1.17,-0.44 2.86,2.63l0.34 0.47c0.63,-0.9 0.48,-1.21 1.15,-2.02l1.26 -1.14c0.05,-0.05 0.15,-0.17 0.19,-0.21 0.04,-0.04 0.13,-0.14 0.18,-0.21 -1.76,-1.18 -2.04,-0.87 -2.46,-3.28z"/>
   <path class="fil0" d="M120.71 84.35c-0.24,1.62 -0.6,3.28 -0.38,5.01 0.46,3.55 5.15,4.59 2.41,-1.14l-1.19 -2.91c-0.64,-1.11 -0.26,-0.48 -0.84,-0.97z"/>
   <path class="fil3" d="M6.75 86.35c-0.06,-0.1 -0.21,0.09 -0.31,0.14 0.2,0.31 0.21,1.57 2.38,2.29 4.71,1.56 6.56,-3.64 -0.66,-2.78l-1.42 0.35z"/>
   <path class="fil2" d="M138.46 17.31c0.46,-3.26 -0.96,-5.14 -4.23,-4.65 -0.33,2.85 1.53,4.8 4.23,4.65z"/>
   <path class="fil4" d="M79.02 74.31l-1.4 -0.71c-0.69,-0.26 -0.93,-0.31 -1.49,-0.55 -0.29,-0.12 -1.09,-0.5 -1.39,-0.7 -1.16,-0.8 -0.43,-0.27 -0.91,-0.92 -1.35,0.31 -1.96,0.14 -2.75,1.12 0.44,2.51 5.67,1.86 7.95,1.76z"/>
   <path class="fil1" d="M25.78 63.19c0.75,0.48 2.63,1.64 3.53,-0.27 0.93,-1.96 -0.44,-2.77 -2.29,-2.83 -1.19,0.93 -1.49,1.3 -1.24,3.09z"/>
   <path class="fil1" d="M4.25 71.33c0.71,0.66 0.85,0.42 1.35,0.94l1.32 1.04c1.04,-1.75 0.19,-0.91 1.81,-1.97 -1.22,-1.4 -0.62,-0.04 -1.99,-2.39 -0.05,-0.08 -0.12,-0.22 -0.19,-0.33l-0.54 0.94c-0.92,1.43 -0.79,0.8 -1.76,1.77z"/>
   <path class="fil2" d="M15.98 75.01c0.83,1.12 0.49,-0.08 4.53,0.29 0.36,0.03 0.75,0.4 1.49,-0.24l-6.01 -0.05zm8.05 1.19c0.07,0.08 0.17,0.16 0.22,0.24 0.67,1.06 0.54,-0.28 0.63,-0.37l-0.85 0.13c-0.2,-0.23 0.05,-0.23 -0.58,-0.53 -1.04,-0.49 -0.05,-0.07 -0.94,-0.27l-0.46 0.17 1.98 0.63zm1.21 0.89c-0.24,0.87 -0.37,0.69 0.51,0.45 -0.23,0.86 -0.42,0.73 0.43,0.5l0.13 0.6 0.35 -0.47 -0.48 -0.13c0.17,-0.86 0.38,-0.76 -0.43,-0.5 0.26,-0.84 0.37,-0.63 -0.51,-0.45l-0.07 -0.48 -0.5 0.25 0.57 0.23zm1.81 5.21c0.61,-0.57 0.32,-1.64 0.25,-2.48l-0.16 -1.38c-1.22,1.45 -0.13,-1.39 -0.25,0.53 -0.01,0.15 0.04,0.88 0.06,0.97 0.19,1.57 0.41,0.53 0.1,2.36zm-12.21 -6.5c-1.82,-0.09 -0.71,-0.11 -0.82,0.41l-0.87 0.2c-1.41,0.12 0.01,-0.05 -0.33,0.71 -0.95,-0.3 -0.88,-0.52 -0.48,0.4 -0.91,-0.4 -0.7,-0.48 -0.42,0.47 -0.91,0.5 -0.02,-1.14 -1,1.1 1.11,0.54 0.86,0.68 0.66,-0.55l0.33 -0.55c0.95,0.32 0.78,0.46 0.42,-0.47 0.95,0.36 0.84,0.55 0.48,-0.4 1.53,-0.49 0.91,-0.54 1.21,-0.91 1.81,0.29 0.59,0.11 0.82,-0.41l1.15 -0.05 -0.52 -0.39c-1.45,0.1 -0.49,-0.04 -0.63,0.44z"/>
   <path class="fil2" d="M1.57 84.31c-1.24,1.26 -1.51,2.22 -0.81,4.59 1.33,0.18 -0.27,-0.34 0.78,0.19 1.45,0.72 -0.05,-0.1 0.65,0.61l0.51 0.16c0.66,-0.13 0.52,-0.3 0.52,0.33l5.68 0.21 0.07 -0.66c-4.3,-0.13 -4.86,0.75 -7.06,-1.03 -0.06,-0.05 -0.17,-0.14 -0.22,-0.18 -1.5,-1.27 -0.46,-2.79 0.26,-3.73 0.07,-0.09 0.39,-0.41 0.43,-0.61 0.04,-0.2 0.15,-0.23 0.23,-0.35l-0.97 0.07 -0.07 0.4z"/>
   <path class="fil1" d="M38.88 106.99c1.36,3.77 5.46,0.1 1.65,-1.62 -1.35,0.55 -1.13,0.19 -1.65,1.62z"/>
   <path class="fil4" d="M17.33 121.32l0.5 0.53 -1.65 0.43 -0.09 1.01 4.28 0.09 -1.17 -1.9 0.86 -0.73 -1.41 0.41c-0.76,0.48 -0.28,0.47 -1.3,0.17l-0.29 -0.73 0.28 0.72z"/>
   <path class="fil1" d="M49.72 89.23l2.1 0.08c0.16,-1.79 0.3,-1.29 -0.65,-2.47l-1.58 0.06c-1.09,2.37 0.01,2.17 0.13,2.33z"/>
   <path class="fil1" d="M82.1 113.32c2.09,0.41 3.52,-0.67 2.09,-2.09 -1.38,-1.37 -2.42,0.04 -2.09,2.09z"/>
   <path class="fil1" d="M109.91 86.7c1.98,0.28 3.48,-0.71 2.11,-2.1 -1.43,-1.46 -2.46,0.02 -2.11,2.1z"/>
   <path class="fil1" d="M73.79 11.39c2.1,1.1 2.08,0.03 2.24,-0.07l0.1 -2.14c-1.73,-0.13 -2.97,0.13 -2.34,2.21z"/>
   <path class="fil1" d="M-0 100.67l0 1.44 1.57 -0.01c0.02,-1.71 -0.18,-1.71 -1.57,-1.43z"/>
   <path class="fil2" d="M18.64 121.16l-1.3 0.17c1.02,0.29 0.54,0.31 1.3,-0.17zm-3.33 2.05l0.78 0.07 0.09 -1.01 1.65 -0.43 -0.5 -0.53c-1.5,0.55 -1.24,0.35 -2.01,1.89z"/>
   <path class="fil0" d="M128.1 29.19l0.03 0.53 0.61 0.64 0.59 0.02 0.5 -0.55 0.03 -0.75 -0.47 -0.46 -0.73 0.02c0.06,0.06 0.17,0.13 0.2,0.17 2.32,2.99 -0.12,-1 0.58,1.12 -0.72,-0.24 -0.33,-0.08 -0.92,-0.39l-0.41 -0.35z"/>
   <path class="fil1" d="M79.98 1.6c0.1,0.09 0.34,0.31 0.36,0.34 0.21,0.24 0.12,0.09 0.16,0.23 0.36,-2.3 0.07,-1.28 -0.26,-1.76 -0.64,0.82 -0.33,0.1 -0.27,1.2zm1.21 2.15l-0.23 -0.87 -0.07 -0.03c-0.34,2.11 -0.15,0.28 0.3,0.9zm-1.6 -0.73c0.06,-0.03 0.35,0.73 0.12,-0.26 -0.24,-1.08 -0.01,-0.18 -0.26,-0.53l0.13 0.79z"/>
   <path class="fil1" d="M128.66 28.64c-0.68,0.06 -0.5,-0.13 -0.55,0.54l0.41 0.35c0.59,0.31 0.2,0.15 0.92,0.39 -0.7,-2.11 1.74,1.87 -0.58,-1.12 -0.03,-0.04 -0.13,-0.11 -0.2,-0.17zm0.73 -0.02l0.47 0.46 -0.47 -0.46zm0.44 1.2l-0.5 0.55 0.5 -0.55zm-1.09 0.53l-0.61 -0.64c0.07,0.77 -0.14,0.57 0.61,0.64z"/>
  </g>
 </g>
</svg>
