<?xml version="1.0" encoding="UTF-8"?>
<!DOCTYPE svg PUBLIC "-//W3C//DTD SVG 1.1//EN" "http://www.w3.org/Graphics/SVG/1.1/DTD/svg11.dtd">
<!-- Creator: CorelDRAW -->
<svg xmlns="http://www.w3.org/2000/svg" xml:space="preserve" width="72.1227mm" height="69.2595mm" version="1.1" style="shape-rendering:geometricPrecision; text-rendering:geometricPrecision; image-rendering:optimizeQuality; fill-rule:evenodd; clip-rule:evenodd"
viewBox="0 0 1090.47 1047.18"
 xmlns:xlink="http://www.w3.org/1999/xlink"
 xmlns:xodm="http://www.corel.com/coreldraw/odm/2003">
 <defs>
  <style type="text/css">
   <![CDATA[
    .fil1 {fill:#333333;fill-rule:nonzero}
    .fil0 {fill:#DAD9EB;fill-rule:nonzero}
    .fil2 {fill:white;fill-rule:nonzero}
   ]]>
  </style>
 </defs>
 <g id="Layer_x0020_1">
  <metadata id="CorelCorpID_0Corel-Layer"/>
  <path class="fil0" d="M37.04 844.33c-10.15,-24.47 -18.24,-49.59 -24.27,-75.38 -6.03,-25.79 -9.93,-51.9 -11.7,-78.33 -1.76,-26.43 -1.36,-52.82 1.19,-79.18 2.56,-26.36 7.24,-52.34 14.05,-77.94 11,-41.04 28.03,-81.67 58.48,-113.27 35.66,-36.93 86.18,-58.28 134.2,-80.76 74.49,-34.88 146.84,-75.84 206.26,-130.18 39.32,-35.91 72.52,-77.23 113.64,-111.42 105.26,-87.49 261.58,-119.96 397.71,-82.57 57.45,15.8 114.09,45.76 142.32,94.39 22.28,38.45 24.62,84.21 18.88,127.47 -5.75,43.26 -18.34,85.53 -24.17,128.78 -10.75,79.41 2.01,159.68 5.34,239.67 3.32,79.98 -4.1,164.16 -50.23,231.91 -17.61,25.85 -40.22,48.47 -63.4,70.34 -72.02,67.8 -158.86,132.88 -261.87,138.88 -144.29,8.21 -265.81,-100.01 -408.09,-123.53 -42.23,-6.94 -85.73,-6.28 -127.59,-14.98 -41.86,-8.7 -102.93,-28.19 -120.74,-63.98l0 0.08z"/>
  <path class="fil1" d="M364.46 141.19c0,7.87 0,15.74 0,23.61 0,17.48 0,34.96 0,52.45 0,26.65 0,53.29 0,79.94 0,32.57 0,65.14 0,97.72 0,36.04 0,72.09 0,108.13 0,36.15 0,72.3 0,108.45 0,33.84 0,67.69 0,101.54 0,28.21 0,56.42 0,84.63 0,20.06 0,40.11 0,60.17 0,8.76 0,17.52 0,26.27 0,2.33 0,4.66 0,6.99 0,4.14 6.43,4.14 6.43,0 0,-7.87 0,-15.74 0,-23.6 0,-17.49 0,-34.97 0,-52.45 0,-26.65 0,-53.29 0,-79.94 0,-32.57 0,-65.14 0,-97.72 0,-36.04 0,-72.09 0,-108.13 0,-36.14 0,-72.29 0,-108.44 0,-33.85 0,-67.7 0,-101.55 0,-28.21 0,-56.42 0,-84.63 0,-20.06 0,-40.11 0,-60.17 0,-8.76 0,-17.52 0,-26.27 0,-2.33 0,-4.66 0,-7 0,-4.14 -6.43,-4.14 -6.43,0z"/>
  <path class="fil1" d="M324.52 881.81c0,-7.67 0,-15.34 0,-23.01 0,-17.06 0,-34.11 0,-51.16 0,-25.85 0,-51.71 0,-77.56 0,-31.96 0,-63.92 0,-95.87 0,-34.9 0,-69.78 0,-104.68 0,-35.47 0,-70.94 0,-106.41 0,-32.86 0,-65.74 0,-98.6 0,-27.56 0,-55.13 0,-82.7 0,-19.49 0,-38.98 0,-58.48 0,-8.45 0,-16.91 0,-25.37 0,-2.33 0,-4.66 0,-6.99 0,-4.14 -6.44,-4.15 -6.44,0 0,7.66 0,15.32 0,22.99 0,17.05 0,34.1 0,51.15 0,25.86 0,51.72 0,77.57 0,31.96 0,63.92 0,95.87 0,34.89 0,69.78 0,104.67 0,35.48 0,70.95 0,106.42 0,32.86 0,65.73 0,98.6 0,27.56 0,55.13 0,82.69 0,19.5 0,38.99 0,58.48 0,8.46 0,16.92 0,25.38 0,2.33 0,4.67 0,7 0,4.14 6.44,4.15 6.44,0z"/>
  <path class="fil1" d="M881.47 153.54c0,7.62 0,15.25 0,22.87 0,16.97 0,33.95 0,50.93 0,25.74 0,51.48 0,77.22 0,31.81 0,63.63 0,95.44 0,34.74 0,69.46 0,104.2 0,35.31 0,70.62 0,105.93 0,32.72 0,65.44 0,98.16 0,27.44 0,54.88 0,82.32 0,19.41 0,38.82 0,58.22 0,8.43 0,16.84 0,25.26 0,2.31 0,4.63 0,6.94 0,4.14 6.44,4.15 6.44,0 0,-7.62 0,-15.24 0,-22.87 0,-16.98 0,-33.96 0,-50.94 0,-25.74 0,-51.48 0,-77.23 0,-31.8 0,-63.62 0,-95.44 0,-34.73 0,-69.46 0,-104.2 0,-35.31 0,-70.62 0,-105.93 0,-32.71 0,-65.44 0,-98.15 0,-27.44 0,-54.89 0,-82.33 0,-19.4 0,-38.81 0,-58.22 0,-8.42 0,-16.83 0,-25.26 0,-2.31 0,-4.63 0,-6.94 0,-4.14 -6.44,-4.14 -6.44,0z"/>
  <path class="fil1" d="M841.54 890.83c0,-7.86 0,-15.71 0,-23.57 0,-17.47 0,-34.95 0,-52.43 0,-26.64 0,-53.28 0,-79.92 0,-32.56 0,-65.13 0,-97.69 0,-36.03 0,-72.07 0,-108.1 0,-36.14 0,-72.27 0,-108.41 0,-33.84 0,-67.68 0,-101.52 0,-28.2 0,-56.41 0,-84.61 0,-20.06 0,-40.1 0,-60.15 0,-8.76 0,-17.51 0,-26.28 0,-2.31 0,-4.64 0,-6.96 0,-4.14 -6.44,-4.14 -6.44,0 0,7.86 0,15.71 0,23.56 0,17.49 0,34.96 0,52.44 0,26.65 0,53.28 0,79.92 0,32.56 0,65.13 0,97.69 0,36.03 0,72.07 0,108.1 0,36.13 0,72.27 0,108.41 0,33.83 0,67.68 0,101.52 0,28.2 0,56.41 0,84.61 0,20.05 0,40.11 0,60.16 0,8.76 0,17.51 0,26.27 0,2.31 0,4.64 0,6.96 0,4.13 6.44,4.14 6.44,0z"/>
  <path class="fil1" d="M914.72 153.95c-45.94,-11.19 -92.44,-19.92 -139.31,-26.14 -47.04,-6.25 -94.43,-9.95 -141.88,-11.08 -47.2,-1.11 -94.46,0.34 -141.51,4.31 -47.22,4 -94.24,10.54 -140.76,19.6 -11.65,2.26 -23.26,4.69 -34.84,7.27 -5.69,1.27 -11.37,2.58 -17.05,3.92 -4.91,1.17 -10.37,3.46 -15.42,1.88 -4.7,-1.48 -7.25,-5.15 -8.44,-9.72 -1.52,-5.8 -2.98,-11.61 -4.48,-17.43 -2.28,-8.87 -7.8,-20.76 2.49,-26.72 4.65,-2.69 11.09,-3.25 16.28,-4.47 5.68,-1.33 11.37,-2.62 17.07,-3.89 11.6,-2.56 23.23,-4.97 34.89,-7.23 23.28,-4.51 46.67,-8.43 70.15,-11.73 47.2,-6.64 94.76,-10.77 142.4,-12.44 47.23,-1.67 94.56,-0.88 141.72,2.32 47.6,3.24 95.02,8.96 142.02,17.16 23.4,4.08 46.69,8.77 69.83,14.05 5.91,1.35 11.8,2.74 17.68,4.16 4.58,1.11 8.58,2.64 11.01,6.96 2.61,4.65 0.88,9.29 -0.35,14.09 -1.49,5.8 -2.98,11.61 -4.47,17.42 -1.22,4.75 -1.74,10.71 -5.34,14.36 -3.07,3.11 -7.46,4.25 -11.69,3.35 -4.04,-0.86 -5.77,5.34 -1.71,6.21 8.81,1.86 18.06,-2.11 21.72,-10.6 2.25,-5.22 3.15,-11.28 4.56,-16.77 1.58,-6.15 3.44,-12.29 4.74,-18.51l0.12 -0.63 0 -6.26c-1.04,-5.99 -5.03,-11.29 -10.82,-13.94 -5.16,-2.35 -11.28,-3.14 -16.77,-4.42 -6.1,-1.43 -12.22,-2.82 -18.34,-4.16 -48.28,-10.59 -97.13,-18.57 -146.28,-23.94 -49.14,-5.37 -98.57,-8.08 -148.01,-8.13 -49.21,-0.04 -98.43,2.55 -147.37,7.78 -49.15,5.26 -98.02,13.11 -146.32,23.6 -11.84,2.57 -24.14,4.66 -35.71,8.28 -8.36,2.61 -14.56,10.69 -13.63,19.62 0.61,5.85 2.81,11.8 4.27,17.49 1.53,5.94 2.81,12.02 4.61,17.88 2.65,8.62 11.21,14.22 20.18,13.12 5.85,-0.72 11.7,-2.67 17.44,-4 5.89,-1.36 11.79,-2.68 17.7,-3.97 12.21,-2.65 24.47,-5.13 36.77,-7.44 24.26,-4.55 48.64,-8.42 73.11,-11.58 48.98,-6.31 98.33,-9.86 147.71,-10.61 49.36,-0.75 98.76,1.29 147.89,6.1 49.42,4.84 98.54,12.53 147.07,22.97 11.83,2.54 23.61,5.26 35.35,8.13 4.03,0.98 5.74,-5.23 1.71,-6.21z"/>
  <path class="fil1" d="M914.72 878.6c-45.94,11.19 -92.44,19.92 -139.31,26.14 -47.04,6.26 -94.43,9.95 -141.88,11.08 -47.2,1.11 -94.46,-0.34 -141.51,-4.31 -47.22,-4 -94.24,-10.54 -140.76,-19.6 -11.65,-2.26 -23.26,-4.69 -34.84,-7.27 -5.69,-1.27 -11.37,-2.58 -17.05,-3.92 -4.91,-1.17 -10.37,-3.46 -15.42,-1.88 -4.7,1.48 -7.25,5.15 -8.44,9.72 -1.52,5.8 -2.98,11.61 -4.48,17.43 -2.28,8.87 -7.8,20.75 2.49,26.72 4.65,2.69 11.09,3.25 16.28,4.47 5.68,1.33 11.37,2.62 17.07,3.89 11.6,2.56 23.23,4.97 34.89,7.23 23.28,4.51 46.67,8.43 70.15,11.73 47.2,6.64 94.76,10.77 142.4,12.44 47.23,1.67 94.56,0.88 141.72,-2.32 47.6,-3.24 95.02,-8.96 142.02,-17.16 23.4,-4.08 46.69,-8.77 69.83,-14.05 5.91,-1.35 11.8,-2.74 17.68,-4.16 4.58,-1.11 8.58,-2.65 11.01,-6.96 2.61,-4.65 0.88,-9.29 -0.35,-14.09 -1.49,-5.8 -2.98,-11.61 -4.47,-17.42 -1.22,-4.75 -1.74,-10.71 -5.34,-14.36 -3.07,-3.11 -7.46,-4.25 -11.69,-3.35 -4.04,0.86 -5.77,-5.34 -1.71,-6.21 8.81,-1.86 18.06,2.11 21.72,10.6 2.25,5.22 3.15,11.28 4.56,16.77 1.58,6.15 3.44,12.29 4.74,18.51l0.12 0.63 0 6.26c-1.04,5.99 -5.03,11.29 -10.82,13.94 -5.16,2.35 -11.28,3.14 -16.77,4.42 -6.1,1.43 -12.22,2.82 -18.34,4.16 -48.28,10.59 -97.13,18.57 -146.28,23.94 -49.14,5.36 -98.57,8.08 -148.01,8.13 -49.21,0.04 -98.43,-2.55 -147.37,-7.78 -49.15,-5.26 -98.02,-13.12 -146.32,-23.6 -11.84,-2.57 -24.14,-4.66 -35.71,-8.28 -8.36,-2.61 -14.56,-10.69 -13.63,-19.62 0.61,-5.85 2.81,-11.8 4.27,-17.49 1.53,-5.94 2.81,-12.02 4.61,-17.88 2.65,-8.62 11.21,-14.22 20.18,-13.12 5.85,0.72 11.7,2.67 17.44,4 5.89,1.36 11.79,2.68 17.7,3.97 12.21,2.65 24.47,5.13 36.77,7.44 24.26,4.55 48.64,8.42 73.11,11.58 48.98,6.31 98.33,9.86 147.71,10.61 49.36,0.75 98.76,-1.29 147.89,-6.1 49.42,-4.84 98.54,-12.53 147.07,-22.97 11.83,-2.54 23.61,-5.26 35.35,-8.13 4.03,-0.98 5.74,5.23 1.71,6.21z"/>
  <path class="fil1" d="M429.46 128.31c-4.83,2.52 -9.14,6.52 -13.17,10.15 -6.17,5.56 -11.66,11.85 -16.49,18.6 -9.64,13.45 -16.42,28.93 -20.06,45.06 -6.76,29.89 -3,61.17 7.11,89.86 10.19,28.93 26.36,55.61 46,79.09 9.36,11.22 19.6,21.73 30.68,31.24 12.66,10.86 26.35,20.41 39.71,30.35 13.34,9.91 26.62,20.35 37.6,32.9 9.26,10.59 15.19,23.77 17.54,37.61 2.32,13.64 0.89,27.88 -3.9,40.85 -5.35,14.49 -15.32,25.75 -26.61,36 -24.38,22.14 -53.28,38.58 -76.84,61.74 -21.58,21.21 -39.96,46.1 -53.36,73.24 -13.42,27.19 -22.12,57.33 -21.34,87.85 0.81,31.51 12.19,62.51 34.08,85.49 5.2,5.46 10.77,10.58 16.78,15.13 3.3,2.5 6.51,-3.08 3.25,-5.55 -25.76,-19.51 -42.39,-48.8 -46.58,-80.77 -3.95,-30.06 2.51,-60.72 14.46,-88.32 11.99,-27.72 29.33,-53.16 50.02,-75.13 10.49,-11.14 21.96,-21.21 34.12,-30.47 13.07,-9.95 26.62,-19.26 39.38,-29.61 11.6,-9.4 23.31,-19.72 31.32,-32.47 7.16,-11.39 11.3,-24.49 12.43,-37.85 1.12,-13.38 -0.96,-27.08 -6.09,-39.49 -5.45,-13.22 -14.29,-23.85 -24.63,-33.55 -23.72,-22.27 -52.41,-38.42 -76.03,-60.83 -21.49,-20.4 -39.73,-44.41 -53.39,-70.72 -14.02,-26.99 -23.25,-57.14 -22.71,-87.78 0.56,-32.26 12.81,-64.27 36.6,-86.54 2.99,-2.79 6.17,-5.25 9.36,-7.8 2.14,-1.7 1.32,-1.32 4,-2.71 3.67,-1.92 0.42,-7.48 -3.25,-5.55z"/>
  <path class="fil1" d="M780.7 903.26c12.08,-9.31 22.66,-22.42 30.54,-35.43 8.35,-13.79 13.89,-29.2 16.51,-45.08 4.96,-30.06 -0.13,-60.87 -11.16,-89.05 -11.16,-28.49 -27.89,-54.69 -48.07,-77.62 -9.85,-11.2 -20.6,-21.56 -32.19,-30.95 -12.95,-10.47 -26.71,-19.91 -39.93,-30.03 -12.74,-9.73 -26.18,-20.38 -35.56,-33.55 -8.08,-11.36 -12.96,-24.9 -14.03,-38.8 -1.07,-13.81 1.32,-27.94 7.36,-40.44 6.7,-13.91 17.82,-24.69 29.45,-34.58 24.68,-21.03 52.65,-37.63 75.4,-60.98 21.21,-21.76 39.21,-47.11 51.97,-74.73 12.7,-27.47 20.47,-57.83 18.42,-88.26 -2.17,-32.05 -15.5,-63.48 -39.58,-85.2 -4.62,-4.17 -9.2,-7.47 -14.68,-10.25 -3.68,-1.87 -6.95,3.67 -3.25,5.55 5.77,2.92 10.56,6.5 15.34,11.05 6.06,5.75 11.42,12.2 16.01,19.17 9,13.65 14.95,29 17.9,45.07 5.43,29.61 0.12,60.22 -10.76,87.98 -11.08,28.31 -28.09,54.41 -48.37,76.99 -9.91,11.02 -20.7,21.17 -32.31,30.41 -12.82,10.2 -26.36,19.44 -39.31,29.47 -12.16,9.43 -24.49,19.59 -33.8,31.96 -8.13,10.8 -13.43,23.72 -15.43,37.08 -4.12,27.44 5.02,53.92 24.26,73.67 22.81,23.4 51.69,39.46 75.98,61.13 22.21,19.83 41.16,43.51 55.64,69.52 14.64,26.27 24.95,55.68 26.12,85.93 1.25,32.48 -8.81,63.24 -29.79,88.12 -4.87,5.77 -9.92,11.68 -15.92,16.3 -3.23,2.49 -0.03,8.09 3.25,5.56z"/>
  <path class="fil1" d="M772.09 177.73c10.85,11.68 16.2,27.43 17.16,43.16 1.08,17.56 -3.25,34.83 -9.71,51.05 -3.88,9.73 -8.57,19.12 -13.44,28.39 -1.93,3.66 3.62,6.91 5.55,3.25 16.91,-32.13 32.28,-69.73 19.47,-106.07 -3.17,-9.01 -7.97,-17.32 -14.48,-24.32 -2.83,-3.04 -7.37,1.52 -4.55,4.55z"/>
  <path class="fil1" d="M446.83 699.03c-22.33,23.85 -34.02,57 -32.24,89.58 0.5,9.18 2.05,18.3 4.67,27.11 1.18,3.96 7.39,2.27 6.21,-1.71 -8.87,-29.73 -4.68,-62.71 10.62,-89.63 4.27,-7.52 9.37,-14.49 15.29,-20.81 2.83,-3.02 -1.71,-7.59 -4.55,-4.55z"/>
  <path class="fil1" d="M588.7 475.5c-44.5,-26.73 -94.22,-67.02 -125.78,-103.84 -16.56,-19.32 0.05,-49.01 25.19,-45.04 76.12,12.01 153.65,12.01 229.77,0 25.13,-3.97 41.74,25.71 25.18,45.03 -31.56,36.83 -81.27,77.12 -125.77,103.85 -8.81,5.3 -19.79,5.3 -28.6,0z"/>
  <path class="fil1" d="M588.03 533.8c-1.88,4.04 -2.42,9.02 -1.68,13.39 1.1,6.46 5.31,11.27 12.03,11.68 4.04,0.24 9.36,-0.13 12.65,-2.77 7.69,-6.16 5.7,-19.04 2.13,-26.78 -1.64,-3.57 -3.8,-6.86 -6.14,-10 -2.59,-3.48 -3.73,-6.66 -7.05,-2.99 -4.16,4.6 -9.31,11.82 -11.94,17.47z"/>
  <path class="fil1" d="M618.31 602.93c-1.88,4.04 -2.41,9.02 -1.67,13.4 1.1,6.45 5.3,11.27 12.02,11.67 4.04,0.24 9.37,-0.13 12.65,-2.76 7.7,-6.17 5.7,-19.03 2.14,-26.78 -1.65,-3.57 -3.8,-6.85 -6.14,-10 -2.59,-3.47 -3.73,-6.65 -7.05,-2.98 -4.16,4.59 -9.31,11.82 -11.95,17.46z"/>
  <path class="fil1" d="M557.75 638.21c-1.88,4.04 -2.41,9.02 -1.67,13.39 1.09,6.46 5.3,11.27 12.02,11.68 4.04,0.24 9.37,-0.13 12.65,-2.77 7.69,-6.16 5.7,-19.04 2.13,-26.78 -1.64,-3.57 -3.79,-6.86 -6.14,-10 -2.59,-3.48 -3.72,-6.66 -7.04,-3 -4.16,4.6 -9.32,11.82 -11.95,17.47z"/>
  <path class="fil1" d="M521.31 194.19c-8.36,0.95 -17.89,1.47 -25.41,5.66 -5.93,3.3 -8.71,9.3 -10.19,15.67 -1.29,5.52 -1.92,11.2 -2.54,16.82 1.5,0 2.99,0 4.5,0 -0.94,-8.36 -1.46,-17.89 -5.65,-25.41 -3.3,-5.93 -9.31,-8.71 -15.67,-10.19 -5.52,-1.3 -11.2,-1.92 -16.82,-2.55 0,1.5 0,3 0,4.5 8.35,-0.94 17.89,-1.46 25.41,-5.65 5.93,-3.3 8.71,-9.31 10.19,-15.68 1.29,-5.52 1.91,-11.19 2.54,-16.82 -1.5,0 -2.99,0 -4.5,0 0.94,8.36 1.46,17.89 5.65,25.41 3.3,5.93 9.31,8.71 15.67,10.19 5.52,1.29 11.2,1.91 16.83,2.54 2.87,0.33 2.85,-4.18 0,-4.5 -4.64,-0.52 -9.29,-1.06 -13.87,-2 -3.1,-0.64 -6.27,-1.42 -9.04,-2.91 -5.01,-2.7 -7.09,-7.65 -8.39,-13.28 -1.17,-5.08 -1.76,-10.29 -2.35,-15.46 -0.33,-2.89 -4.17,-2.9 -4.5,0 -0.53,4.64 -1.07,9.28 -2,13.86 -0.64,3.11 -1.42,6.28 -2.91,9.05 -2.7,5 -7.65,7.09 -13.28,8.39 -5.08,1.17 -10.29,1.76 -15.46,2.34 -2.89,0.33 -2.9,4.18 0,4.5 4.64,0.53 9.28,1.07 13.87,2 3.1,0.64 6.27,1.42 9.04,2.91 5,2.7 7.09,7.65 8.39,13.28 1.17,5.08 1.76,10.28 2.35,15.46 0.33,2.89 4.17,2.9 4.5,0 0.53,-4.64 1.07,-9.29 2,-13.87 0.64,-3.11 1.42,-6.28 2.92,-9.04 2.7,-5.01 7.65,-7.09 13.28,-8.39 5.08,-1.17 10.28,-1.76 15.46,-2.35 2.84,-0.32 2.88,-4.83 0,-4.5z"/>
  <path class="fil1" d="M694.45 263.94c-29.81,3.37 -32.54,6.09 -35.9,35.9 -3.36,-29.81 -6.09,-32.54 -35.89,-35.9 29.81,-3.36 32.54,-6.09 35.89,-35.89 3.36,29.81 6.09,32.54 35.9,35.89z"/>
  <path class="fil1" d="M785.7 734.84c-8.36,0.94 -17.89,1.46 -25.41,5.65 -5.92,3.31 -8.7,9.31 -10.19,15.68 -1.29,5.51 -1.91,11.19 -2.54,16.82 1.5,0 3,0 4.5,0 -0.94,-8.36 -1.46,-17.89 -5.65,-25.41 -3.31,-5.93 -9.31,-8.71 -15.68,-10.19 -5.52,-1.29 -11.2,-1.91 -16.82,-2.54 0,1.5 0,3 0,4.51 8.36,-0.95 17.89,-1.47 25.41,-5.66 5.92,-3.3 8.7,-9.31 10.19,-15.67 1.29,-5.52 1.91,-11.2 2.54,-16.83 -1.5,0 -3,0 -4.5,0 0.94,8.36 1.46,17.89 5.65,25.41 3.31,5.93 9.31,8.71 15.68,10.2 5.52,1.29 11.2,1.91 16.82,2.54 2.88,0.33 2.85,-4.19 0,-4.51 -4.64,-0.53 -9.28,-1.07 -13.86,-2 -3.11,-0.63 -6.28,-1.41 -9.04,-2.91 -5.01,-2.7 -7.09,-7.65 -8.4,-13.28 -1.17,-5.08 -1.76,-10.28 -2.34,-15.46 -0.33,-2.89 -4.18,-2.89 -4.5,0 -0.53,4.64 -1.07,9.29 -2,13.87 -0.64,3.1 -1.42,6.28 -2.92,9.04 -2.71,5.01 -7.66,7.09 -13.28,8.39 -5.08,1.17 -10.28,1.76 -15.45,2.35 -2.9,0.33 -2.9,4.18 0,4.51 4.64,0.52 9.28,1.07 13.86,2 3.11,0.64 6.28,1.42 9.04,2.91 5.01,2.71 7.09,7.66 8.39,13.28 1.17,5.08 1.77,10.29 2.35,15.46 0.33,2.89 4.18,2.9 4.5,0 0.52,-4.64 1.07,-9.28 2,-13.86 0.64,-3.11 1.42,-6.28 2.91,-9.04 2.71,-5.01 7.66,-7.1 13.28,-8.4 5.08,-1.17 10.28,-1.76 15.45,-2.34 2.85,-0.33 2.88,-4.83 0,-4.51z"/>
  <path class="fil2" d="M610.43 372.6c-0.04,3.06 -1.93,5.93 -4.84,6.98 -3,1.08 -6.39,0.16 -8.4,-2.32 -1.94,-2.39 -2.14,-5.84 -0.57,-8.47 1.55,-2.61 4.67,-4.05 7.67,-3.5 3.54,0.64 6.08,3.74 6.13,7.31 0.03,2.07 3.25,2.07 3.21,0 -0.06,-4.46 -2.8,-8.4 -6.98,-9.99 -4.12,-1.56 -9.03,-0.24 -11.83,3.16 -2.83,3.45 -3.3,8.41 -1,12.28 2.3,3.86 6.8,5.79 11.19,5 4.99,-0.89 8.55,-5.46 8.61,-10.45 0.03,-2.07 -3.19,-2.07 -3.21,0z"/>
  <path class="fil2" d="M699.24 359.38c-0.03,3.06 -1.92,5.92 -4.84,6.98 -2.99,1.08 -6.39,0.16 -8.4,-2.33 -1.93,-2.39 -2.14,-5.83 -0.57,-8.46 1.56,-2.61 4.68,-4.06 7.68,-3.51 3.54,0.65 6.08,3.75 6.12,7.32 0.03,2.08 3.25,2.08 3.22,0 -0.06,-4.46 -2.81,-8.4 -6.99,-9.99 -4.12,-1.56 -9.03,-0.24 -11.83,3.16 -2.83,3.45 -3.3,8.41 -0.99,12.28 2.3,3.86 6.8,5.79 11.19,5 4.99,-0.89 8.54,-5.47 8.61,-10.45 0.03,-2.07 -3.19,-2.07 -3.22,0z"/>
  <path class="fil2" d="M654.02 413.32c-0.03,3.06 -1.92,5.92 -4.84,6.98 -2.99,1.08 -6.39,0.16 -8.4,-2.33 -1.93,-2.39 -2.14,-5.84 -0.57,-8.46 1.56,-2.61 4.68,-4.06 7.68,-3.51 3.54,0.65 6.08,3.75 6.12,7.32 0.03,2.07 3.25,2.08 3.22,0 -0.06,-4.46 -2.81,-8.41 -6.99,-9.99 -4.12,-1.56 -9.04,-0.24 -11.83,3.16 -2.83,3.45 -3.3,8.4 -0.99,12.27 2.3,3.86 6.8,5.79 11.19,5.01 4.99,-0.9 8.54,-5.47 8.61,-10.45 0.03,-2.07 -3.19,-2.07 -3.22,0z"/>
  <path class="fil2" d="M526.59 368.43c-0.05,3.06 -1.92,5.92 -4.84,6.97 -2.99,1.09 -6.39,0.16 -8.4,-2.32 -1.93,-2.39 -2.14,-5.84 -0.57,-8.46 1.56,-2.61 4.68,-4.06 7.68,-3.51 3.55,0.65 6.08,3.75 6.13,7.32 0.03,2.07 3.25,2.07 3.22,0 -0.06,-4.46 -2.81,-8.41 -6.99,-9.99 -4.12,-1.57 -9.04,-0.25 -11.83,3.16 -2.83,3.44 -3.3,8.4 -1,12.27 2.31,3.86 6.8,5.79 11.2,5.01 4.98,-0.9 8.54,-5.47 8.61,-10.45 0.03,-2.08 -3.2,-2.08 -3.22,0z"/>
  <path class="fil2" d="M593.46 424.19c-0.04,3.06 -1.92,5.92 -4.84,6.97 -2.99,1.09 -6.39,0.16 -8.4,-2.32 -1.93,-2.39 -2.14,-5.84 -0.57,-8.47 1.56,-2.61 4.67,-4.05 7.68,-3.51 3.54,0.65 6.08,3.75 6.12,7.33 0.03,2.07 3.25,2.07 3.22,0 -0.06,-4.47 -2.81,-8.41 -6.99,-10 -4.12,-1.56 -9.04,-0.24 -11.83,3.16 -2.83,3.45 -3.3,8.41 -1,12.28 2.31,3.86 6.81,5.79 11.2,5 4.99,-0.89 8.54,-5.46 8.61,-10.44 0.03,-2.08 -3.19,-2.08 -3.22,0z"/>
  <path class="fil1" d="M632.85 724.96c36.21,31.16 85.86,64.31 123.38,95.46 27.3,22.68 13.99,67.18 -21.29,71.07 -85.39,9.41 -171.56,9.41 -256.95,0 -35.27,-3.89 -48.58,-48.39 -21.29,-71.07 37.52,-31.15 87.16,-64.3 123.38,-95.46 15.19,-13.07 37.58,-13.07 52.77,0z"/>
  <path class="fil2" d="M578.32 823.72c-0.04,3.06 -1.92,5.92 -4.84,6.97 -3,1.09 -6.39,0.17 -8.4,-2.32 -1.93,-2.39 -2.14,-5.84 -0.57,-8.46 1.55,-2.61 4.67,-4.06 7.67,-3.51 3.54,0.65 6.08,3.74 6.13,7.32 0.03,2.07 3.24,2.08 3.22,0 -0.06,-4.46 -2.8,-8.41 -6.98,-9.99 -4.12,-1.56 -9.04,-0.25 -11.83,3.16 -2.83,3.45 -3.31,8.4 -1,12.27 2.31,3.86 6.8,5.79 11.19,5.01 4.99,-0.9 8.55,-5.47 8.61,-10.45 0.03,-2.08 -3.19,-2.08 -3.22,0z"/>
  <path class="fil2" d="M628.51 864.47c-0.04,3.06 -1.92,5.92 -4.84,6.98 -3,1.08 -6.39,0.16 -8.4,-2.33 -1.93,-2.39 -2.14,-5.84 -0.57,-8.46 1.55,-2.61 4.67,-4.06 7.67,-3.51 3.55,0.65 6.08,3.75 6.13,7.32 0.03,2.07 3.25,2.07 3.21,0 -0.06,-4.46 -2.8,-8.41 -6.98,-9.99 -4.12,-1.56 -9.04,-0.24 -11.83,3.16 -2.83,3.45 -3.3,8.4 -1,12.27 2.31,3.86 6.8,5.79 11.19,5.01 4.99,-0.9 8.55,-5.47 8.61,-10.45 0.04,-2.07 -3.19,-2.08 -3.21,0z"/>
  <path class="fil2" d="M513.84 847.47c-0.04,3.06 -1.92,5.92 -4.85,6.97 -2.99,1.08 -6.39,0.16 -8.39,-2.32 -1.93,-2.39 -2.14,-5.84 -0.57,-8.47 1.56,-2.61 4.68,-4.05 7.68,-3.51 3.54,0.65 6.08,3.75 6.13,7.33 0.03,2.07 3.24,2.07 3.22,0 -0.06,-4.47 -2.81,-8.41 -6.98,-10 -4.12,-1.56 -9.04,-0.24 -11.83,3.16 -2.83,3.45 -3.31,8.41 -1,12.28 2.31,3.86 6.8,5.79 11.19,5 4.99,-0.89 8.54,-5.46 8.61,-10.44 0.03,-2.08 -3.19,-2.08 -3.22,0z"/>
  <path class="fil2" d="M654.02 807.3c-0.03,3.06 -1.92,5.92 -4.84,6.97 -2.99,1.09 -6.39,0.16 -8.4,-2.32 -1.93,-2.39 -2.14,-5.84 -0.57,-8.46 1.56,-2.61 4.68,-4.06 7.68,-3.51 3.54,0.65 6.08,3.74 6.12,7.32 0.03,2.07 3.25,2.08 3.22,0 -0.06,-4.47 -2.81,-8.41 -6.99,-9.99 -4.12,-1.56 -9.04,-0.25 -11.83,3.16 -2.83,3.45 -3.3,8.4 -0.99,12.27 2.3,3.86 6.8,5.79 11.19,5.01 4.99,-0.9 8.54,-5.47 8.61,-10.45 0.03,-2.07 -3.19,-2.08 -3.22,0z"/>
  <path class="fil2" d="M709.13 846.39c-0.04,3.06 -1.92,5.92 -4.84,6.97 -3,1.09 -6.39,0.16 -8.4,-2.32 -1.93,-2.39 -2.14,-5.84 -0.57,-8.46 1.55,-2.61 4.67,-4.06 7.67,-3.51 3.55,0.65 6.09,3.74 6.13,7.32 0.03,2.07 3.25,2.08 3.22,0 -0.06,-4.47 -2.8,-8.41 -6.98,-9.99 -4.12,-1.56 -9.04,-0.25 -11.83,3.16 -2.83,3.45 -3.3,8.4 -1,12.27 2.31,3.86 6.8,5.79 11.19,5.01 4.99,-0.9 8.55,-5.47 8.61,-10.45 0.03,-2.07 -3.19,-2.08 -3.22,0z"/>
  <path class="fil2" d="M602.51 759.73c-0.04,3.06 -1.92,5.92 -4.84,6.98 -2.99,1.08 -6.39,0.15 -8.4,-2.33 -1.93,-2.39 -2.14,-5.84 -0.57,-8.46 1.55,-2.61 4.67,-4.06 7.67,-3.51 3.55,0.65 6.09,3.75 6.13,7.32 0.03,2.07 3.25,2.08 3.22,0 -0.06,-4.46 -2.81,-8.41 -6.99,-9.99 -4.12,-1.56 -9.04,-0.25 -11.83,3.16 -2.83,3.45 -3.3,8.4 -1,12.27 2.31,3.86 6.81,5.79 11.2,5.01 4.99,-0.9 8.54,-5.47 8.61,-10.45 0.03,-2.07 -3.2,-2.07 -3.22,0z"/>
 </g>
</svg>
