<?xml version="1.0" encoding="UTF-8"?>
<!DOCTYPE svg PUBLIC "-//W3C//DTD SVG 1.1//EN" "http://www.w3.org/Graphics/SVG/1.1/DTD/svg11.dtd">
<!-- Creator: CorelDRAW -->
<svg xmlns="http://www.w3.org/2000/svg" xml:space="preserve" width="92.2038mm" height="75.6274mm" version="1.1" style="shape-rendering:geometricPrecision; text-rendering:geometricPrecision; image-rendering:optimizeQuality; fill-rule:evenodd; clip-rule:evenodd"
viewBox="0 0 803.07 658.7"
 xmlns:xlink="http://www.w3.org/1999/xlink"
 xmlns:xodm="http://www.corel.com/coreldraw/odm/2003">
 <defs>
  <style type="text/css">
   <![CDATA[
    .fil0 {fill:#424242;fill-rule:nonzero}
   ]]>
  </style>
 </defs>
 <g id="Layer_x0020_1">
  <metadata id="CorelCorpID_0Corel-Layer"/>
  <path class="fil0" d="M622.76 600.71c17.79,-0.57 35.59,-1.05 53.38,-1.74 17.71,-0.68 35.77,-0.53 53.38,-2.69 0.65,-0.08 0.7,-1.02 0,-1.05 -17.7,-0.72 -35.69,0.92 -53.38,1.68 -17.8,0.76 -35.59,1.74 -53.38,2.62 -0.75,0.04 -0.76,1.2 0,1.17z"/>
  <path class="fil0" d="M651.28 579.04c24.43,1.04 49.02,0.82 73.27,-2.57 0.83,-0.11 0.64,-1.53 -0.2,-1.46 -24.36,1.96 -48.62,3.55 -73.07,2.81 -0.8,-0.02 -0.79,1.19 0,1.22z"/>
  <path class="fil0" d="M685.18 565c16.28,-0.94 32.64,-2.27 48.71,-5.12 0.46,-0.09 0.36,-0.87 -0.11,-0.82 -16.2,1.82 -32.32,3.76 -48.6,4.7 -0.8,0.05 -0.81,1.3 0,1.25z"/>
  <path class="fil0" d="M716.74 545.64c8.93,0.02 18.43,-0.42 27.02,-3.04 0.86,-0.26 0.76,-1.78 -0.23,-1.66 -8.99,1.14 -17.69,2.59 -26.79,2.57 -1.37,-0.01 -1.37,2.12 0,2.13z"/>
  <path class="fil0" d="M730.09 518.48c4.85,-0.16 9.39,-1.28 13.67,-3.59 0.76,-0.41 0.09,-1.48 -0.67,-1.14 -4.1,1.83 -8.51,2.79 -13,2.87 -1.19,0.02 -1.19,1.9 0,1.86z"/>
  <path class="fil0" d="M746.57 501.19c0.4,-0.77 0.73,-1.55 1.07,-2.34 0.28,-0.65 -0.7,-0.9 -1.05,-0.45 -0.5,0.65 -0.97,1.29 -1.41,1.97 -0.57,0.88 0.92,1.74 1.39,0.82z"/>
  <path class="fil0" d="M47.9 60.19c27.28,1.17 55.02,2.48 82.29,0.79 0.56,-0.04 0.57,-0.87 0,-0.88 -27.41,-0.62 -54.87,0.38 -82.29,-0.14 -0.14,0 -0.14,0.21 0,0.22z"/>
  <path class="fil0" d="M41.18 71.7c22.03,0.16 44.06,0.39 66.09,0.44 10.76,0.02 21.52,0.05 32.28,0.07 11.15,0.01 22.74,0.87 33.81,-0.34 0.78,-0.09 0.79,-1.14 0,-1.22 -11.08,-1.17 -22.66,-0.26 -33.81,-0.21 -10.75,0.06 -21.52,0.13 -32.28,0.2 -22.03,0.13 -44.06,0.46 -66.09,0.7 -0.23,0.01 -0.23,0.37 0,0.37z"/>
  <path class="fil0" d="M43.89 79.78c30.97,1.46 62.05,1.34 93.06,1.69 30.94,0.36 62.15,1.83 93.06,0.74 0.92,-0.04 0.91,-1.37 0,-1.42 -30.89,-1.72 -62.12,-0.87 -93.06,-1.13 -31,-0.26 -62.06,-1 -93.06,-0.18 -0.19,0.01 -0.19,0.29 0,0.29z"/>
  <path class="fil0" d="M477.63 293.73c-5.34,5.97 -10.8,11.85 -15.94,17.98 -0.53,0.63 0.34,1.53 0.92,0.92 5.47,-5.85 10.64,-11.98 15.92,-18 0.53,-0.61 -0.35,-1.51 -0.9,-0.9z"/>
  <path class="fil0" d="M478.2 311.21c-10.09,12.02 -21.8,21.56 -34.79,30.26 -0.83,0.56 -0.09,1.86 0.79,1.35 13.41,-7.84 25.1,-18.74 34.94,-30.68 0.54,-0.65 -0.38,-1.59 -0.93,-0.94z"/>
  <path class="fil0" d="M477.68 331.88c-16.14,14.45 -33.44,27.18 -51.65,38.89 -1.09,0.7 -0.1,2.45 1.02,1.75 18.54,-11.37 35.81,-24.77 51.91,-39.37 0.86,-0.79 -0.42,-2.05 -1.28,-1.28z"/>
  <path class="fil0" d="M467.75 360.38c-14.61,11.31 -30.42,20.53 -47.33,27.94 -0.79,0.35 -0.11,1.5 0.68,1.16 17.07,-7.28 32.92,-16.8 47.57,-28.19 0.66,-0.51 -0.27,-1.42 -0.92,-0.92z"/>
  <path class="fil0" d="M453.95 385.62c-14.03,8.01 -28.74,13.84 -43.95,19.19 -0.95,0.33 -0.57,1.8 0.42,1.53 15.57,-4.24 30.4,-11.28 44.35,-19.31 0.91,-0.53 0.09,-1.94 -0.82,-1.41z"/>
  <path class="fil0" d="M431.14 409.95c-12.75,5.03 -25.76,8.87 -39.11,11.96 -1.15,0.27 -0.66,2.02 0.49,1.77 13.38,-2.84 26.39,-7.01 39.08,-12.1 0.99,-0.4 0.57,-2.02 -0.45,-1.63z"/>
  <path class="fil0" d="M398.86 432.16c-8.33,2.61 -16.77,4.06 -25.46,4.75 -1.11,0.09 -1.14,1.81 0,1.76 8.85,-0.4 17.49,-2.13 25.92,-4.84 1.06,-0.34 0.61,-2.01 -0.46,-1.68z"/>
  <path class="fil0" d="M304 460.55c-55.4,-15.62 -95.19,-57.41 -113.28,-111.43 -0.62,-1.85 -3.56,-1.07 -2.95,0.81 17.87,54.94 58.95,98.19 115.87,111.97 0.87,0.21 1.24,-1.1 0.37,-1.34z"/>
  <path class="fil0" d="M532.39 490.76c-11.11,-12.41 -23.2,-24.79 -35.58,-35.93 -0.92,-0.82 -2.17,0.43 -1.35,1.35 11.14,12.38 23.51,24.47 35.93,35.58 0.68,0.61 1.61,-0.32 1,-1z"/>
  <path class="fil0" d="M560.68 509.06c-19.92,-21.77 -41.34,-42.44 -62.08,-63.43 -0.81,-0.81 -1.99,0.4 -1.25,1.24 19.58,21.94 41.06,42.92 62.63,62.89 0.47,0.44 1.14,-0.23 0.7,-0.7z"/>
  <path class="fil0" d="M473.76 444.18c4.6,-3.3 10.27,-8.16 12.13,-13.7 0.25,-0.75 -0.83,-1.39 -1.35,-0.79 -1.94,2.23 -3.29,4.93 -5.22,7.21 -1.93,2.27 -4.07,4.35 -6.38,6.22 -0.59,0.48 0.2,1.5 0.82,1.06z"/>
  <path class="fil0" d="M473.84 450.66c3.82,-1.7 7.17,-4.65 9.95,-7.72 2.43,-2.67 5.64,-6.33 6.28,-9.95 0.13,-0.72 -0.72,-1.36 -1.31,-0.76 -2.68,2.77 -4.29,6.66 -6.84,9.64 -2.6,3.03 -5.67,5.45 -8.6,8.13 -0.37,0.34 0.1,0.83 0.51,0.65z"/>
  <path class="fil0" d="M601.61 582.41c10.02,-5.2 19.31,-15.91 22.84,-26.66 0.23,-0.68 -0.78,-1.07 -1.14,-0.48 -3.19,5.19 -6.05,10.44 -10.01,15.13 -3.63,4.3 -7.89,7.79 -12.08,11.51 -0.28,0.25 0.08,0.66 0.38,0.5z"/>
  <path class="fil0" d="M734.52 623.67c-0.64,-0.21 -1.28,-0.42 -1.92,-0.62 -0.57,-0.18 -1.19,-0.48 -1.78,-0.57 -2.82,-0.45 0.12,0.15 -0.81,-0.08 -5.1,-1.27 -10.52,-1.2 -15.95,-1.37 -17.45,-0.56 -34.89,-0.75 -52.34,-0.92 -56.04,-0.53 -112.08,-0.2 -168.12,-0.15 -66.84,0.06 -133.68,0.08 -200.52,0.2 -56.62,0.1 -113.24,0.2 -169.86,0.29 -25.31,0.05 -50.84,1.1 -76.13,0.19 -5.92,-0.21 -12.59,-4.29 -12.37,-9.78 0.19,-4.82 -7.29,-4.81 -7.48,0 -0.45,11.4 7.28,19.45 20.25,19.89 2.78,0.1 5.57,0.02 8.35,0.03 14.22,0.04 28.44,-0.02 42.65,-0.04 53.28,-0.06 106.57,-0.13 159.86,-0.19 67.85,-0.09 135.71,-0.23 203.57,-0.37 60.14,-0.13 120.27,-0.3 180.41,-0.57 20.21,-0.1 40.43,-0.29 60.64,-0.84 6.42,-0.18 12.85,-0.43 19.27,-0.65 2.66,-0.09 4.97,-0.33 7.47,-0.87 2.13,-0.47 -1.99,0.12 1.01,-0.3 0.58,-0.09 1.37,-0.38 1.91,-0.62 0.61,-0.27 1.29,-0.42 1.92,-0.62 1,-0.32 1,-1.71 0,-2.03z"/>
  <path class="fil0" d="M769.08 99.07c-2.12,14.07 -1.66,28.69 -1.99,42.9 -0.42,17.93 -0.48,35.87 -0.54,53.81 -0.14,41.81 -0.3,83.63 -0.46,125.44 -0.29,75.17 0.59,150.34 0.39,225.51 -0.04,15.63 0.02,31.27 -0.03,46.89 -0.02,4.69 7.27,4.7 7.29,0 0.15,-44.21 0.36,-88.43 0.63,-132.64 0.51,-83.58 1.51,-167.13 1.64,-250.72 0.03,-20.6 0.01,-41.2 -0.18,-61.79 -0.15,-16.29 0.45,-33.25 -1.93,-49.39 -0.35,-2.38 -4.46,-2.38 -4.81,0z"/>
  <path class="fil0" d="M32.83 615.03c1.6,-11.08 1.43,-22.42 1.69,-33.61 0.38,-16.51 0.65,-33.04 0.67,-49.56 0.04,-42.5 0.08,-85 0.12,-127.5 0.06,-83.88 -1.05,-167.92 -1.13,-251.81 -0.02,-18.18 -0.14,-35.91 -0.15,-54.7 0,-4.7 -7.29,-4.7 -7.29,0 0.02,51.65 -0.06,101.76 -0.2,152.57 -0.23,89.33 -0.9,178.72 -0.82,268.06 0.02,19.19 0.1,38.43 0.54,57.62 0.29,12.92 -0.05,26.09 1.76,38.9 0.34,2.38 4.47,2.4 4.81,0.02z"/>
  <path class="fil0" d="M436.13 418.67c-44.33,34.23 -105.99,42.77 -156.12,16.04 -52.5,-27.99 -84.31,-83.57 -76.41,-143.35 8.01,-60.66 53.1,-107.63 112.56,-120.45 60,-12.95 123.19,16.48 152.64,70.26 15.77,28.78 20.33,60.33 15.13,92.71 -2.59,16.1 -7.89,31.29 -16.49,45.18 -2.4,3.86 -5.09,7.51 -7.55,11.32 -2.22,3.44 -3.52,7.41 -5.94,10.72 -4.95,6.78 -12,12.75 -18.45,18.04 -3.11,2.56 1.34,6.99 4.43,4.43 6.26,-5.21 11.37,-11.04 16.48,-17.35 5.1,-6.28 11.33,-11.2 16.03,-17.94 9.17,-13.2 15.74,-28.19 19.17,-43.88 6.27,-28.68 6.13,-61.4 -5.39,-88.76 -11.46,-27.21 -28.4,-50.34 -52.23,-68.01 -27.82,-20.62 -62.64,-31.51 -97.19,-29.16 -63.32,4.31 -118.92,45.68 -137.18,107 -18.27,61.35 4.22,128.68 57.11,165.28 24.02,16.63 52.35,27.58 81.77,28.15 37.23,0.72 72.48,-12.06 101.43,-35.32 2.74,-2.21 -0.98,-7.1 -3.8,-4.92z"/>
  <path class="fil0" d="M216.23 280.71c15.57,-50.81 54.13,-87.09 105.09,-101.33 1.47,-0.4 0.81,-2.43 -0.61,-2.21 -51.16,7.56 -96.88,52.4 -106.93,102.87 -0.31,1.59 1.97,2.26 2.46,0.67z"/>
  <path class="fil0" d="M579 582.46c6.99,0.86 15.6,-8.16 20.38,-12.68 6.8,-6.46 13.33,-13.9 17.8,-22.19 1.32,-2.45 -2.13,-5.48 -4.03,-3.11 -5.83,7.23 -11.14,14.74 -17.82,21.25 -3.69,3.6 -7.63,6.98 -11.75,10.07 -2.57,1.93 -4.23,2.68 -5.39,5.61 -0.23,0.56 0.33,0.99 0.8,1.05z"/>
  <path class="fil0" d="M10.88 48.84c1.38,-2.09 3.31,-4.06 4.46,-6.27 1.24,-2.36 1.47,-5.17 2.59,-7.61 1.82,-3.98 4.6,-7.03 8.37,-9.22 7.27,-4.2 16.54,-4.6 24.74,-4.74 6.8,-0.12 13.6,0.17 20.4,0.28 13.78,0.24 27.55,0.18 41.33,0.23 56.55,0.18 113.1,0.16 169.65,0.09 72.97,-0.1 145.95,-0.15 218.93,-0.37 62.69,-0.18 125.39,-0.37 188.1,-0.56 19.15,-0.05 38.3,-0.12 57.46,-0.17 10.88,-0.03 29.66,-3 35.68,7.68 0.65,1.14 0.89,2.1 1.69,3.91 0.12,0.27 1.61,3.41 0.95,1.85 0.35,0.83 0.5,1.72 0.82,2.55 1.93,5.17 -0.04,-0.95 -0.04,-1.01 -0.45,9.63 14.52,9.61 14.97,0 0.07,-1.5 -1.17,7.24 -0.03,1.01 0.25,-1.34 0.47,-2.68 0.62,-4.05 0.36,-3.3 0.27,-6.36 -0.69,-9.58 -2.78,-9.29 -9.84,-16.53 -18.78,-20.04 -7.27,-2.85 -14.95,-2.82 -22.6,-2.81 -15.46,0.03 -30.93,0.06 -46.4,0.09 -60.48,0.12 -120.96,0.24 -181.44,0.36 -75.46,0.15 -150.92,0.43 -226.38,0.7 -61.2,0.22 -122.39,0.44 -183.59,0.92 -15.8,0.12 -31.62,0.07 -47.42,0.42 -22.07,0.5 -50.8,-2.23 -64.88,18.43 -2.62,3.85 -4.45,8.3 -5.39,12.86 -1.25,6.05 0.09,9.86 3.26,15.05 0.85,1.4 2.76,1.32 3.63,0z"/>
  <path class="fil0" d="M791.68 610.19c-1.38,2.08 -3.31,4.06 -4.46,6.27 -1.24,2.37 -1.48,5.17 -2.59,7.61 -1.82,3.98 -4.59,7.04 -8.37,9.21 -7.06,4.07 -15.98,4.54 -23.94,4.73 -7.07,0.16 -14.15,-0.14 -21.22,-0.26 -13.82,-0.24 -27.65,-0.18 -41.47,-0.23 -56.21,-0.18 -112.41,-0.17 -168.61,-0.09 -73.03,0.1 -146.07,0.15 -219.09,0.37 -62.5,0.18 -125.01,0.37 -187.52,0.56 -19.04,0.05 -38.08,0.12 -57.12,0.17 -10.9,0.03 -29.71,3 -35.74,-7.68 -0.6,-1.06 -0.92,-2.18 -1.69,-3.91 -0.12,-0.27 -1.6,-3.41 -0.95,-1.85 -0.35,-0.83 -0.5,-1.72 -0.82,-2.55 -1.94,-5.17 0.04,0.94 0.04,1.01 0.45,-9.63 -14.52,-9.61 -14.97,0 -0.07,1.5 1.17,-7.25 0.02,-1.01 -0.24,1.34 -0.47,2.68 -0.62,4.05 -0.36,3.29 -0.27,6.36 0.69,9.58 2.77,9.28 9.84,16.54 18.78,20.04 3.67,1.43 7.45,2.14 11.27,2.49l175.83 0 63.24 -0.13c75.26,-0.15 150.52,-0.43 225.79,-0.7 60.84,-0.21 121.68,-0.43 182.53,-0.92 15.86,-0.12 31.73,-0.06 47.58,-0.42 22.08,-0.5 50.83,2.23 64.91,-18.43 2.62,-3.85 4.45,-8.3 5.39,-12.86 1.25,-6.05 -0.07,-9.87 -3.25,-15.05 -0.86,-1.4 -2.76,-1.32 -3.63,0z"/>
  <path class="fil0" d="M10.63 103.73c26.08,0.04 52.16,0.09 78.24,0.13 62.09,0.11 124.18,0.15 186.26,0.35 75.59,0.23 151.19,0.47 226.78,0.71 65.11,0.2 130.22,0.36 195.34,0.5 21.51,0.04 43.02,0.12 64.53,0.08 10.04,-0.02 20.34,0.6 30.37,-0.05 0.44,-0.03 0.89,-0.01 1.33,-0.01 7.37,0.01 7.37,-11.45 0,-11.45 -26.08,-0.01 -52.16,-0.11 -78.24,-0.07 -62.09,0.09 -124.18,0.16 -186.26,0.31 -75.59,0.18 -151.19,0.35 -226.78,0.54 -65.11,0.15 -130.23,0.18 -195.34,0.24 -21.51,0.03 -43.02,0.04 -64.53,0.07 -10.01,0.01 -20.37,-0.74 -30.37,0.03 -0.43,0.03 -0.89,0 -1.33,0 -5.54,0.01 -5.55,8.6 0,8.61z"/>
  <path class="fil0" d="M788.99 21.54c-4.26,16.68 -3.31,35.46 -3.93,52.64 -0.78,21.2 -0.87,42.44 -0.95,63.65 -0.19,50.13 -0.4,100.26 -0.61,150.39 -0.21,50.93 1.43,101.81 1.54,152.73 0.09,40.07 -0.04,80.14 -0.11,120.21 -0.02,13.76 -0.05,27.52 -0.08,41.28 -0.01,3.72 -0.05,7.45 0.04,11.16 0.02,1.02 0.05,2.04 0.09,3.07 0.15,4.27 0.04,0.12 0.03,1.04 -0.02,9.38 14.55,9.4 14.58,0 0.01,-1.17 -0.12,2.98 0.02,-0.73 0.04,-0.81 0.05,-1.62 0.09,-2.43 0.14,-3.03 0.11,-6.08 0.12,-9.12 0.04,-10.99 0.09,-21.99 0.13,-32.98 0.15,-37.96 0.19,-75.91 0.49,-113.87 0.38,-50.2 2.07,-100.36 2.42,-150.55 0.34,-50.8 0.16,-101.6 0.2,-152.4 0.01,-24.77 -0.07,-49.52 -0.51,-74.29 -0.33,-19.34 0.81,-41.04 -3.94,-59.82 -1.2,-4.76 -8.41,-4.74 -9.62,0z"/>
  <path class="fil0" d="M14.51 640.97c4.22,-16.59 3.25,-35.22 3.87,-52.31 0.79,-21.65 0.83,-43.33 0.86,-64.99 0.09,-50.67 0.16,-101.34 0.23,-152.01 0.07,-50.57 -1.72,-101.08 -1.99,-151.64 -0.21,-40.54 -0.23,-81.07 -0.29,-121.6 -0.02,-13.87 -0.04,-27.73 -0.06,-41.59 -0.01,-3.7 0.02,-7.4 -0.08,-11.09 -0.02,-1.01 -0.06,-2.03 -0.1,-3.04 -0.16,-4.29 -0.04,-0.12 -0.04,-1.04 -0.01,-9.38 -14.58,-9.39 -14.58,0 0,1.16 0.12,-2.98 -0.02,0.72 -0.03,0.81 -0.04,1.61 -0.07,2.42 -0.14,3.02 -0.1,6.05 -0.1,9.07 -0.01,11.26 -0.01,22.53 -0.02,33.8 -0.02,38.52 0.06,77.04 -0.12,115.56 -0.23,49.88 -1.76,99.73 -1.95,149.6 -0.2,51.31 0.12,102.62 0.19,153.93 0.04,24.93 0.19,49.84 0.65,74.77 0.36,19.23 -0.73,40.77 3.98,59.45 1.2,4.76 8.42,4.75 9.62,0z"/>
  <path class="fil0" d="M598.88 32.25c-4.32,14.12 -2.3,30.97 -2.26,45.6 0.01,2.81 2.34,5.06 5.12,5.12 11.57,0.25 23.13,0.5 34.7,0.41 7.61,-0.06 12.67,-0.98 13.08,-9.64 0.62,-13.08 0.07,-26.33 -0.02,-39.43 -0.02,-2.58 -2.18,-4.82 -4.8,-4.8 -14.06,0.12 -28.12,-0.01 -42.17,0 -6.23,0.01 -6.24,9.69 0,9.68 14.05,-0.01 28.12,-0.17 42.17,-0.09 -1.6,-1.6 -3.2,-3.2 -4.8,-4.8 -0.07,10.46 -0.13,20.93 -0.49,31.39 -0.1,2.67 -0.88,6.22 -0.37,8.82 -0.35,-1.82 5,-1.85 -1.33,-1.96 -2.18,-0.04 -4.37,-0.04 -6.55,-0.05 -9.81,-0.04 -19.61,0.07 -29.42,0.21 1.71,1.71 3.42,3.41 5.13,5.12 -0.57,-14.64 0.78,-31.65 -4.11,-45.6 -0.65,-1.84 -3.27,-1.96 -3.87,0z"/>
  <path class="fil0" d="M659.92 32.25c-4.32,14.12 -2.3,30.97 -2.26,45.6 0.01,2.81 2.34,5.06 5.12,5.12 11.57,0.25 23.14,0.5 34.7,0.41 7.61,-0.06 12.67,-0.98 13.08,-9.64 0.62,-13.08 0.07,-26.33 -0.02,-39.43 -0.02,-2.58 -2.18,-4.82 -4.8,-4.8 -14.06,0.12 -28.12,-0.01 -42.18,0 -6.23,0.01 -6.24,9.69 0,9.68 14.05,-0.01 28.12,-0.17 42.18,-0.09 -1.6,-1.6 -3.2,-3.2 -4.8,-4.8 -0.07,10.46 -0.13,20.93 -0.49,31.39 -0.1,2.67 -0.88,6.22 -0.37,8.82 -0.35,-1.82 5,-1.85 -1.33,-1.96 -2.18,-0.04 -4.37,-0.04 -6.55,-0.05 -9.81,-0.04 -19.61,0.07 -29.42,0.21 1.71,1.71 3.42,3.41 5.13,5.12 -0.57,-14.64 0.78,-31.65 -4.11,-45.6 -0.65,-1.84 -3.27,-1.96 -3.87,0z"/>
  <path class="fil0" d="M720.97 32.25c-4.32,14.12 -2.3,30.97 -2.26,45.6 0.01,2.81 2.34,5.06 5.12,5.12 11.57,0.25 23.14,0.5 34.7,0.41 7.61,-0.06 12.67,-0.98 13.08,-9.64 0.62,-13.08 0.07,-26.33 -0.02,-39.43 -0.02,-2.58 -2.18,-4.82 -4.8,-4.8 -14.06,0.12 -28.12,-0.01 -42.17,0 -6.23,0.01 -6.24,9.69 0,9.68 14.05,-0.01 28.12,-0.17 42.17,-0.09 -1.6,-1.6 -3.2,-3.2 -4.8,-4.8 -0.07,10.46 -0.13,20.93 -0.49,31.39 -0.1,2.67 -0.88,6.22 -0.37,8.82 -0.35,-1.82 5,-1.85 -1.33,-1.96 -2.18,-0.04 -4.37,-0.04 -6.55,-0.05 -9.81,-0.04 -19.61,0.07 -29.42,0.21 1.71,1.71 3.42,3.41 5.13,5.12 -0.57,-14.64 0.78,-31.65 -4.12,-45.6 -0.65,-1.84 -3.27,-1.96 -3.87,0z"/>
  <path class="fil0" d="M623.55 48.05c-4.8,-2.62 -9.23,2.68 -9.08,7.28 0.23,6.66 6.95,11.82 13.08,7.98 5.64,-3.55 5.85,-11.79 0.67,-15.86 -2.07,-1.63 -4.85,-2.61 -7.48,-1.91 -2.83,0.75 -4.93,3.48 -3.19,6.26 0.66,1.05 1.86,1.28 2.95,0.77 1.57,-0.74 2.16,-1.74 3.82,-0.46 1.81,1.39 0.96,3.54 -0.77,4.7 -3.09,2.07 -5.39,-7.89 -0.2,-8.02 0.37,-0.01 0.55,-0.54 0.2,-0.73z"/>
  <path class="fil0" d="M676.03 57.15c5.58,1.19 11.35,1.14 17.03,1.03 5.04,-0.1 5.04,-7.7 0,-7.83 -5.68,-0.14 -11.46,-0.21 -17.03,0.95 -2.9,0.61 -2.89,5.24 0,5.85z"/>
  <path class="fil0" d="M736.89 50.07c1.65,2.95 3.9,5.62 6.18,8.1 2.22,2.41 4.6,5.77 7.55,7.24 3.46,1.74 7.12,-1.77 5.28,-5.28 -1.55,-2.95 -4.9,-5.22 -7.37,-7.42 -2.53,-2.24 -5.25,-4.46 -8.23,-6.05 -2.19,-1.17 -4.66,1.19 -3.41,3.41z"/>
  <path class="fil0" d="M755.16 45.06c-4.21,1.71 -7.71,5.28 -11.1,8.23 -3.14,2.74 -8.98,5.96 -8.82,10.57 0.06,1.58 1.28,2.85 2.89,2.89 4.62,0.1 7.78,-5.75 10.47,-8.91 2.92,-3.42 6.46,-6.99 8.12,-11.21 0.34,-0.86 -0.7,-1.92 -1.57,-1.57z"/>
  <path class="fil0" d="M718.37 642.26c24.59,-16.15 47.66,-36.32 69.16,-56.34 3.61,-3.36 -1.65,-8.35 -5.33,-5.33 -22.54,18.56 -45.42,38.65 -64.55,60.74 -0.41,0.48 0.12,1.32 0.71,0.92z"/>
  <path class="fil0" d="M744.41 644.72c8.12,-2.65 14.56,-10.52 20.76,-16.1 7.83,-7.06 16.4,-13.4 23.94,-20.74 2.97,-2.9 -0.92,-8.19 -4.51,-5.85 -8.66,5.67 -16.25,13.15 -23.64,20.35 -6.16,6 -14.8,13.33 -16.92,21.98 -0.05,0.21 0.14,0.43 0.36,0.36z"/>
  <path class="fil0" d="M515.05 364.84c12.86,-39.88 14.66,-82.83 -0.07,-122.49 -10.17,-27.37 -29.5,-52.74 -51.72,-71.62 -29.94,-25.43 -65.18,-41.21 -104.52,-44.21 -37.69,-2.87 -75.85,6.08 -108.51,25.06 -30.94,17.99 -57.13,44.82 -72.38,77.35 -16.73,35.7 -21.41,76.03 -14.6,114.78 13.62,77.48 80.27,138.6 158.16,147.27 41.62,4.63 82.34,-4.84 118.66,-25.65 17.58,-10.08 32.58,-23.31 44.87,-39.42 3.43,-4.5 6.65,-9.09 9.45,-14.01 2.92,-5.18 3.57,-9.95 5.42,-15.43 1.77,-5.29 5.8,-10.22 8.42,-15.14 2.81,-5.29 4.95,-10.8 6.84,-16.5 2.52,-7.66 -9.62,-10.99 -12.08,-3.33 -2.79,8.71 -5.8,18.29 -10.49,26.18 -2.46,4.15 -6.71,6.27 -9.75,9.87 -3.34,3.97 -6.07,8.55 -9.12,12.75 -9.67,13.33 -21.42,24.79 -35.26,33.74 -26.55,17.15 -59.64,29.54 -91.54,29.46 -33.28,-0.08 -64.56,-7.99 -92.71,-26.04 -30.51,-19.57 -54.71,-49.01 -66.13,-83.46 -21.91,-66.07 -1.85,-141.64 53.9,-184.42 54.88,-42.12 134.09,-48.08 192.18,-8.89 25.41,17.14 47.48,40.42 61.26,67.95 18.98,37.89 19.12,82.91 7.66,122.88 -2.24,7.79 9.61,10.96 12.08,3.33z"/>
  <path class="fil0" d="M602.02 594.37c-35.01,-36.05 -70.44,-71.75 -106.44,-106.81 -6.46,-6.29 -12.92,-12.58 -19.37,-18.87 -5.19,-5.06 -13.01,2.76 -7.95,7.96 35.31,36.26 70.75,72.46 107.06,107.72 6.21,6.03 12.41,12.06 18.62,18.09 5.29,5.14 13.23,-2.8 8.09,-8.09z"/>
  <path class="fil0" d="M636.54 559.85c-35.16,-36.24 -70.75,-72.13 -106.92,-107.36 -6.49,-6.32 -12.99,-12.64 -19.48,-18.97 -5.19,-5.06 -13.01,2.76 -7.95,7.96 35.47,36.41 71.06,72.78 107.54,108.17 6.27,6.08 12.53,12.15 18.79,18.23 5.25,5.09 13.11,-2.77 8.02,-8.02z"/>
  <path class="fil0" d="M451.86 447.28c6.77,7.99 14.32,15.3 22.26,22.11 5.5,4.73 12.69,-2.45 7.95,-7.95 -6.82,-7.93 -14.13,-15.49 -22.11,-22.26 -5.64,-4.78 -12.88,2.45 -8.09,8.09z"/>
  <path class="fil0" d="M473.34 425.8c6.76,8.04 14.34,15.37 22.29,22.22 5.5,4.73 12.7,-2.45 7.96,-7.95 -6.85,-7.96 -14.18,-15.53 -22.23,-22.3 -5.61,-4.71 -12.74,2.42 -8.02,8.03z"/>
  <path class="fil0" d="M601.49 602.58c14.35,-6.84 29.82,-20.6 36.15,-35.45 2.13,-4.98 -3.65,-10.76 -8.06,-6.22 -5.63,5.78 -10.02,12.69 -15.6,18.56 -5.53,5.82 -11.67,11.05 -17.93,16.06 -4.23,3.39 1.16,9.1 5.44,7.06z"/>
  <path class="fil0" d="M474.54 475.63c14.35,-6.84 29.81,-20.6 36.15,-35.45 2.13,-4.98 -3.65,-10.76 -8.06,-6.22 -5.63,5.79 -10.01,12.69 -15.6,18.57 -5.53,5.81 -11.67,11.04 -17.93,16.06 -4.23,3.38 1.16,9.09 5.45,7.05z"/>
 </g>
</svg>
