<?xml version="1.0" encoding="UTF-8"?>
<!DOCTYPE svg PUBLIC "-//W3C//DTD SVG 1.1//EN" "http://www.w3.org/Graphics/SVG/1.1/DTD/svg11.dtd">
<!-- Creator: CorelDRAW -->
<svg xmlns="http://www.w3.org/2000/svg" xml:space="preserve" width="136.652mm" height="60.596mm" version="1.1" style="shape-rendering:geometricPrecision; text-rendering:geometricPrecision; image-rendering:optimizeQuality; fill-rule:evenodd; clip-rule:evenodd"
viewBox="0 0 1681.43 745.6"
 xmlns:xlink="http://www.w3.org/1999/xlink"
 xmlns:xodm="http://www.corel.com/coreldraw/odm/2003">
 <defs>
  <style type="text/css">
   <![CDATA[
    .fil0 {fill:#545454;fill-rule:nonzero}
   ]]>
  </style>
 </defs>
 <g id="Layer_x0020_1">
  <metadata id="CorelCorpID_0Corel-Layer"/>
  <path class="fil0" d="M876.26 414.15c27.81,-21.54 67.12,-10.25 97.64,-2.09 31.78,8.57 69.21,16.31 98.27,-3.76 5.85,-3.97 0.42,-13.8 -5.65,-9.62 -30.94,21.12 -70.04,7.53 -102.87,-1.04 -31.78,-8.16 -67.75,-12.96 -95.35,8.36 -5.65,4.81 2.3,12.55 7.95,8.15z"/>
  <path class="fil0" d="M965.75 215.3c2.51,1.46 6.48,0.63 7.74,-2.09 9.2,-19.86 18.61,-39.73 27.81,-59.59 1.26,-2.72 0.84,-6.06 -2.09,-7.74 -2.3,-1.46 -6.48,-0.84 -7.74,2.09 -9.2,19.86 -18.61,39.73 -27.81,59.59 -1.26,2.72 -0.63,6.06 2.09,7.74z"/>
  <path class="fil0" d="M870.82 194.18c0,-16.31 0,-32.62 0,-48.93 0,-7.32 -11.29,-7.32 -11.29,0 0,16.31 0,32.62 0,48.93 0.21,7.11 11.29,7.11 11.29,0z"/>
  <path class="fil0" d="M763.14 245.62c3.55,6.27 13.17,0.63 9.62,-5.65 -14.43,-25.51 -28.85,-51.02 -43.28,-76.32 -3.55,-6.27 -13.17,-0.63 -9.83,5.65 14.64,25.51 29.06,50.81 43.49,76.32z"/>
  <path class="fil0" d="M702.09 673.21c7.32,0 7.32,-11.29 0,-11.29 -7.32,0 -7.32,11.29 0,11.29z"/>
  <path class="fil0" d="M563.88 528.31c39.31,40.35 78.83,80.71 118.13,121.27 5.02,5.23 12.96,-2.72 7.95,-7.95 -39.31,-40.35 -78.83,-80.71 -118.14,-121.27 -5.23,-5.23 -13.17,2.72 -7.94,7.94z"/>
  <path class="fil0" d="M11.05 304.37c0.63,-2.3 1.26,-4.6 1.88,-7.11 90.95,44.54 181.7,89.07 272.65,133.4 46.84,23 93.67,45.79 140.51,68.79 11.5,5.65 23,11.29 34.5,16.94 10.25,5.02 21.12,12.13 32.2,14.85 1.88,0.42 3.97,0.63 5.65,0.63 0.21,0.42 0.63,0.84 1.04,1.25 63.56,58.13 127.13,116.05 190.69,174.17 23,21.12 53.11,50.39 86.77,33.04 5.85,-3.14 11.29,-7.74 14.43,-13.59 1.88,-3.35 3.55,-16.1 7.94,-15.89 3.97,0.21 9.2,7.32 11.92,9.62 4.39,3.76 9.41,7.32 15.26,7.94 11.92,1.26 17.77,-8.78 21.75,-18.4 2.09,-5.44 3.97,-11.08 6.48,-16.31 3.35,-6.48 8.15,-9.83 15.26,-11.29 7.74,-1.67 15.47,-2.3 22.37,-6.27 5.85,-3.35 10.66,-8.16 14.22,-13.8 52.48,11.08 105.17,-6.9 154.1,-25.09 20.91,-7.74 42.65,-15.89 59.17,-31.36 2.72,-2.51 5.02,-5.02 7.11,-7.74 -0.42,3.14 1.26,6.48 5.44,6.27 19.03,-0.42 41.61,-1.88 56.45,-15.47 6.69,32.41 47.46,41.19 74.44,30.32 17.56,-6.9 31.99,-19.45 45.58,-32.2 16.73,-15.89 33.45,-32.2 49.97,-48.3 67.54,-65.65 134.44,-131.94 200.73,-199.05 34.92,-35.34 69.63,-70.88 104.13,-106.85 2.72,7.32 4.81,14.85 6.69,22.58 1.67,6.9 12.54,3.97 10.87,-2.93 -2.51,-10.04 -5.44,-19.86 -9.2,-29.48 0.42,-2.09 -0.63,-4.39 -2.09,-5.65 -30.32,-74.23 -94.93,-129.64 -161.42,-172.29 -24.25,-15.47 -49.14,-29.9 -74.23,-44.33 -6.27,-3.55 -11.92,6.06 -5.65,9.62 10.25,5.85 20.49,11.71 30.74,17.77 -71.3,97.64 -160.37,182.12 -261.78,247.77 -22.79,14.64 -50.39,32.2 -51.65,62.1 0,0.84 0,1.46 0.42,2.09 -1.25,0.42 -2.3,0.84 -3.55,1.25 -10.87,4.6 -20.7,13.8 -32.83,14.43 -2.09,0 -3.55,1.05 -4.39,2.51 -0.63,0 -1.46,0.21 -2.09,0.42 -5.85,1.26 -11.5,3.97 -17.36,5.86 -7.32,2.3 -14.64,3.97 -22.16,5.23 -28.65,4.81 -56.46,1.04 -84.26,-5.85 -29.27,-7.11 -58.13,-12.96 -88.45,-10.04 -26.76,2.51 -52.9,10.04 -76.74,22.37 -11.5,-20.7 -33.66,-31.57 -57.29,-34.71 -33.87,-4.81 -65.03,6.27 -97.44,14.43 -21.95,5.44 -44.54,8.99 -66.7,3.14 -2.3,-0.63 -4.18,0.21 -5.44,1.46 5.02,-11.5 10.04,-23 15.26,-34.5 1.26,-2.93 0.63,-7.74 -3.34,-8.15 -1.88,-0.21 -3.97,-0.63 -5.85,-0.84 -67.54,-10.04 -133.4,-30.94 -194.87,-61.26 -63.15,-31.15 -121.27,-72.14 -171.66,-121.06 -28.44,-27.6 -54.36,-57.71 -77.15,-90.12 -2.51,-3.35 -6.9,-2.93 -9.2,-0.63 4.6,-5.65 9.41,-11.29 14.22,-16.73 4.81,-5.44 -3.14,-13.38 -7.94,-7.94 -54.78,62.73 -97.85,135.28 -126.29,213.48 -6.48,18.19 -12.34,36.59 -17.36,55.2 -1.04,4.18 -2.09,8.36 -3.34,12.55 -1.67,7.94 9.2,10.87 10.87,3.76zm1124.69 54.57c7.53,-4.18 16.52,-10.46 25.51,-7.53 8.78,2.93 12.96,12.75 15.26,20.7 3.35,11.71 5.02,24.05 6.69,35.96 4.18,27.39 6.9,54.78 8.36,82.38 0.63,13.8 1.04,27.6 1.04,41.61 0,12.13 1.05,25.93 -3.14,37.64 -8.15,21.95 -37.01,23.42 -56.66,24.05 -0.84,0 -1.46,0.21 -2.09,0.42 9.83,-15.05 13.17,-33.25 13.17,-51.65 -0.21,-28.23 -3.76,-56.66 -6.9,-84.47 -1.46,-14.43 -3.35,-29.06 -5.23,-43.49 -1.67,-13.38 -2.72,-27.6 -5.85,-40.77 -0.84,-3.14 -2.09,-5.85 -3.76,-8.16 4.81,-1.67 9.2,-3.97 13.59,-6.69zm-545.51 11.92c23,6.06 46.63,3.14 69.42,-2.3 21.12,-5.02 42.24,-12.75 63.98,-15.26 28.85,-3.14 68.37,1.88 82.38,30.95 -0.42,2.51 1.05,5.02 3.35,6.27 0,0 0.21,0 0.21,0 0.84,0.84 1.88,1.05 2.93,1.26 2.93,0.42 5.85,-1.05 6.48,-3.97 42.86,-22.58 91.58,-27.6 138.63,-16.94 25.09,5.65 49.55,12.96 75.48,13.38 12.34,0.21 24.67,-0.84 36.8,-3.14 6.06,-1.05 11.92,-2.51 17.77,-4.18 6.27,-1.88 12.13,-4.6 18.61,-6.27 1.04,-0.21 2.09,-0.42 2.93,-0.42 4.6,0 6.06,3.55 6.9,8.78 1.04,6.27 1.88,12.34 2.72,18.61 1.88,14.01 3.76,28.02 5.44,42.03 3.14,26.56 5.65,53.32 7.74,80.08 1.67,22.79 3.55,48.3 -9.83,68.16 -11.71,17.35 -31.78,26.76 -50.6,34.08 -49.34,19.44 -104.96,40.77 -158.7,30.32 4.6,-13.17 3.76,-27.81 0.63,-41.61 -6.69,-29.48 -18.19,-61.26 -37.01,-85.1 -8.36,-10.66 -19.03,-19.66 -31.78,-24.46 -16.73,-6.48 -34.29,-3.97 -51.02,0.63 -16.31,4.39 -33.04,10.87 -50.39,7.94 -15.26,-2.51 -27.39,-13.17 -26.55,-29.48 0.84,-15.89 11.71,-30.74 23,-41.19 13.17,-12.34 30.32,-21.54 47.04,-28.23 8.57,-3.35 17.36,-6.06 26.55,-8.15 6.06,-1.46 4.6,-9.62 -0.42,-10.87 -0.84,-0.21 -1.67,-0.21 -2.72,0 -32.62,7.74 -67.95,23.84 -89.07,50.81 -8.99,11.5 -16.31,25.93 -15.68,40.98 0.63,14.01 8.78,26.55 21.54,32.83 13.38,6.48 29.06,6.27 43.49,3.35 18.61,-3.76 36.38,-12.34 55.62,-11.29 30.11,1.88 48.3,29.69 59.59,54.57 6.69,14.64 11.92,30.53 16.1,46 3.55,13.59 5.44,29.27 -0.21,42.24 -1.67,1.05 -2.72,2.93 -2.72,5.02 -0.84,1.26 -1.67,2.51 -2.72,3.55 -11.08,13.17 -29.27,7.74 -41.82,17.98 -9.2,7.32 -11.71,19.44 -16.1,29.9 -1.46,3.35 -3.55,8.78 -7.74,9.62 -5.23,1.04 -10.04,-4.6 -13.38,-7.74 -7.53,-7.11 -18.4,-15.26 -27.39,-5.44 -4.81,5.44 -4.39,12.96 -8.36,18.61 -4.18,5.85 -10.87,8.99 -17.77,10.45 -17.14,3.55 -32.83,-6.48 -45.37,-16.94 -15.68,-13.17 -30.53,-27.6 -45.58,-41.4 -15.47,-14.22 -30.94,-28.44 -46.63,-42.65 -31.36,-28.64 -62.73,-57.29 -93.88,-85.94 -6.9,-6.27 -13.59,-12.55 -20.49,-18.82 2.51,-1.88 4.6,-4.18 6.48,-7.32 6.06,-10.45 10.04,-22.58 15.05,-33.66 17.98,-40.77 35.96,-81.75 53.95,-122.53 -1.05,3.35 0,6.06 3.14,6.9zm-149.29 120.23c26.14,-58.54 52.06,-117.09 78.2,-175.63 0.21,-0.42 0.42,-1.05 0.42,-1.46 23.21,6.27 46.84,11.08 70.67,14.64 -19.24,43.49 -38.26,86.98 -57.5,130.26 -5.02,11.29 -10.04,22.79 -15.05,34.08 -2.3,5.44 -4.6,10.66 -7.11,15.89 -2.09,4.81 -4.18,10.87 -9.83,11.92 -0.42,0 -0.84,0.21 -1.46,0.21 -5.23,0.21 -10.66,-3.14 -15.26,-5.44 -6.06,-2.93 -11.92,-5.85 -17.77,-8.78 -9.2,-4.39 -18.4,-8.99 -27.39,-13.38 0.84,-0.42 1.67,-1.05 2.09,-2.3z"/>
 </g>
</svg>
