<?xml version="1.0" encoding="UTF-8"?>
<!DOCTYPE svg PUBLIC "-//W3C//DTD SVG 1.1//EN" "http://www.w3.org/Graphics/SVG/1.1/DTD/svg11.dtd">
<!-- Creator: CorelDRAW -->
<svg xmlns="http://www.w3.org/2000/svg" xml:space="preserve" width="130.583mm" height="66.9279mm" version="1.1" style="shape-rendering:geometricPrecision; text-rendering:geometricPrecision; image-rendering:optimizeQuality; fill-rule:evenodd; clip-rule:evenodd"
viewBox="0 0 7416.44 3801.15"
 xmlns:xlink="http://www.w3.org/1999/xlink"
 xmlns:xodm="http://www.corel.com/coreldraw/odm/2003">
 <defs>
  <style type="text/css">
   <![CDATA[
    .fil0 {fill:#545454;fill-rule:nonzero}
    .fil1 {fill:white;fill-rule:nonzero}
   ]]>
  </style>
 </defs>
 <g id="Layer_x0020_1">
  <metadata id="CorelCorpID_0Corel-Layer"/>
  <path class="fil0" d="M5345.32 3728.76c58.16,-126.99 91.73,-259.76 116.13,-396.36 -44.21,4.48 -86.56,9 -129,13.01 -81.8,7.74 -167.89,13.76 -250.11,4.8 -25.32,-2.75 -50.51,-7.46 -74.85,-15.11 -26.82,-8.44 -54.61,-18.33 -74.2,-39.4 -17.44,-18.84 -27.47,-43.14 -34.6,-67.48 -8.03,-27.38 -3.83,-54.66 -1.26,-81.8 3.45,-36.56 9.79,-72.75 4.06,-109.73 -2.7,-17.58 -12.59,-30.45 -24.95,-41.37 -20.71,-18.28 -25.37,-39.87 -15.62,-64.87 4.99,-12.82 4.67,-22.57 -6.01,-33.48 -15.02,-15.35 -21.31,-25.09 -12.17,-44.26 13.81,-28.87 39.55,-58.85 51.3,-88.61 14.51,-36.66 0.7,-48.32 -28.26,-70.24 -25.55,-19.35 -53.35,-35.67 -80.17,-53.35 -2.47,-1.64 -4.85,-3.41 -7.41,-4.9 -36.84,-22.1 -37.64,-45.19 -12.59,-79.65 45.75,-62.96 93.31,-124.57 138.41,-187.99 28.31,-39.83 54.1,-81.52 69.02,-128.81 15.2,-48.04 24.25,-97.14 27.65,-147.37 3.36,-49.95 19.91,-160.47 47.89,-204.03 97.42,-151.57 209.3,-284.2 378.03,-358.16 101.44,-44.45 212.05,-65.2 322.58,-71.96 171.25,-10.54 346.13,12.45 503.48,80.91 157.35,68.47 296.14,184.17 379.34,334.24 72.33,130.49 125.68,310.27 108.1,460.3 -25.98,221.94 -164.72,404.8 -291.2,580.62 -55.26,76.81 -117.15,155.34 -159.59,240.17 -20.84,39.4 -32.5,81.75 -37.31,126.06 -14.51,134.82 30.45,253.79 97.79,366.79 10.17,17.07 21.04,33.72 31.53,50.55 0.42,0.65 1.26,1.91 2.89,4.48 -9.05,3.87 -20.57,8.03 -30.22,11.66 -75.97,28.82 -154.46,47.85 -234.48,61.61 -112.11,19.26 -225.11,28.49 -338.67,25.6 -68.04,-1.72 -136.18,-6.53 -203.8,-14.09 -77.23,-8.63 -153.11,-25.27 -225.53,-54.84 -1.45,-0.7 -2.94,-1.45 -6.21,-2.94z"/>
  <path class="fil1" d="M6938.92 1638.12c0.94,-0.1 4.71,63.66 4.95,68.27 1.77,31.99 1.21,61.56 -6.07,93.18 -19.49,84.78 -71.91,162.11 -145.04,210.79 -9.18,6.11 -18.65,11.76 -28.4,16.93 -55.87,29.52 -123.72,39.82 -186.35,34.65 -76.16,-6.29 -152.41,-33.91 -212.47,-80.92 -23.22,-18.14 -65.34,-63 -65.34,-63 0,0 -21.54,30.69 -23.41,33.44 -19.72,28.5 -39.27,55.55 -63.66,80.31 -23.27,23.64 -48.92,45.05 -76.34,63.89 -58.29,40.06 -125.12,68.55 -195.12,80.73 -4.2,0.74 -8.39,1.4 -12.59,2 -125.5,18.19 -255.15,-15.81 -361.71,-81.61 -77.33,-47.71 -191.21,-182.91 -191.21,-182.91 1.03,1.22 -76.48,47.8 -83.94,51.72 -29.66,15.62 -60.3,29.75 -92.71,38.85 -35.72,10.02 -73.03,13.48 -110.06,12.96 -73.12,-3.45 -146.76,-31.66 -200.25,-81.47 -30.55,-28.45 -54.7,-63.52 -70.56,-101.95 -17.4,-42.02 -21.64,-87.02 -24.53,-131.98 -0.42,-6.29 -0.8,-12.59 -1.26,-18.84 -0.09,-1.49 -0.28,-4.48 -0.28,-4.48 0,0 -28.31,-6.44 -30.92,-7 -13.34,-2.94 -26.53,-6.43 -39.55,-10.44 -26.02,-8.07 -51.35,-18.47 -75.28,-31.44 -64.5,-34.84 -120.97,-90.24 -149.6,-157.77 -25.98,-61.18 -26.77,-129.79 -3.41,-191.95 16,-42.53 41.04,-79.1 73.64,-112.77 -21.41,-28.64 -45.24,-54.47 -61.75,-84.18 -95.32,-171.48 -75.92,-373.27 49.71,-524.75 62.87,-75.78 141.54,-123.53 232.95,-157.77 101.99,-38.19 222.08,-41.74 323.65,-0.41 7.18,2.94 14.23,6.25 21.46,9.05 8.81,-23.37 17.39,-45.47 25.51,-67.77 63.8,-175.07 231.41,-303.83 415.48,-334 68.6,-11.24 139.07,-9.51 207.34,3.03 68.84,12.68 135.52,36.19 197.41,68.37 70.79,36.79 136.03,84.83 190.23,143.12 15.9,17.12 30.45,35.45 46.91,52.09 0,0 39.73,-27.47 61.56,-40.15 111.65,-64.96 266.25,-64.17 385.64,-19.3 79.89,30.03 150.63,82.59 203.14,149.05 30.55,38.66 55.69,81.99 70.33,128.9 8.81,28.26 13.1,57.69 14.41,87.21 1.22,27.75 1.26,50.79 -0.98,81.19 0,0 120.09,8.35 233.46,84.46 64.87,43.51 121.11,110.39 161.36,177.03 67.39,111.5 89.45,249.97 55.31,375.56 -22.66,83.48 -70.98,159.4 -135.43,217.6 -70.05,63.24 -157.45,103.43 -251.55,115 -24.58,2.94 -50.09,6.01 -74.67,7.46z"/>
  <path class="fil0" d="M2071.11 3728.76c-58.15,-126.99 -91.73,-259.76 -116.12,-396.36 44.21,4.48 86.56,9 129,13.01 81.8,7.74 167.88,13.76 250.11,4.8 25.32,-2.75 50.51,-7.46 74.85,-15.11 26.82,-8.44 54.61,-18.33 74.2,-39.4 17.44,-18.84 27.47,-43.14 34.6,-67.48 8.02,-27.38 3.82,-54.66 1.26,-81.8 -3.45,-36.56 -9.8,-72.75 -4.06,-109.73 2.71,-17.58 12.59,-30.45 24.95,-41.37 20.71,-18.28 25.37,-39.87 15.62,-64.87 -4.99,-12.82 -4.66,-22.57 6.01,-33.48 15.02,-15.35 21.32,-25.09 12.18,-44.26 -13.81,-28.87 -39.55,-58.85 -51.3,-88.61 -14.51,-36.66 -0.7,-48.32 28.26,-70.24 25.56,-19.35 53.35,-35.67 80.17,-53.35 2.48,-1.64 4.85,-3.41 7.42,-4.9 36.84,-22.1 37.64,-45.19 12.59,-79.65 -45.75,-62.96 -93.32,-124.57 -138.41,-187.99 -28.31,-39.83 -54.1,-81.52 -69.02,-128.81 -15.2,-48.04 -24.25,-97.14 -27.65,-147.37 -3.36,-49.95 -19.91,-160.47 -47.89,-204.03 -97.43,-151.57 -209.31,-284.2 -378.03,-358.16 -101.44,-44.45 -212.05,-65.2 -322.58,-71.96 -171.25,-10.54 -346.13,12.45 -503.48,80.91 -157.35,68.47 -296.14,184.17 -379.34,334.24 -72.33,130.49 -125.69,310.27 -108.1,460.3 25.98,221.94 164.72,404.8 291.2,580.62 55.26,76.81 117.14,155.34 159.59,240.17 20.84,39.4 32.5,81.75 37.31,126.06 14.5,134.82 -30.45,253.79 -97.79,366.79 -10.17,17.07 -21.04,33.72 -31.53,50.55 -0.42,0.65 -1.26,1.91 -2.89,4.48 9.05,3.87 20.57,8.03 30.22,11.66 75.97,28.82 154.46,47.85 234.48,61.61 112.11,19.26 225.11,28.49 338.67,25.6 68.04,-1.72 136.18,-6.53 203.8,-14.09 77.23,-8.63 153.11,-25.27 225.53,-54.84 1.45,-0.7 2.94,-1.45 6.2,-2.94z"/>
  <path class="fil1" d="M477.52 1638.12c-0.93,-0.1 -4.71,63.66 -4.94,68.27 -1.77,31.99 -1.22,61.56 6.06,93.18 19.5,84.78 71.91,162.11 145.04,210.79 9.18,6.11 18.65,11.76 28.4,16.93 55.87,29.52 123.73,39.82 186.36,34.65 76.16,-6.29 152.4,-33.91 212.47,-80.92 23.23,-18.14 65.34,-63 65.34,-63 0,0 21.54,30.69 23.41,33.44 19.72,28.5 39.27,55.55 63.66,80.31 23.27,23.64 48.92,45.05 76.34,63.89 58.29,40.06 125.12,68.55 195.12,80.73 4.2,0.74 8.39,1.4 12.59,2 125.5,18.19 255.14,-15.81 361.71,-81.61 77.33,-47.71 191.21,-182.91 191.21,-182.91 -1.03,1.22 76.48,47.8 83.94,51.72 29.66,15.62 60.3,29.75 92.71,38.85 35.72,10.02 73.03,13.48 110.06,12.96 73.12,-3.45 146.76,-31.66 200.25,-81.47 30.55,-28.45 54.7,-63.52 70.56,-101.95 17.4,-42.02 21.64,-87.02 24.53,-131.98 0.42,-6.29 0.8,-12.59 1.26,-18.84 0.09,-1.49 0.28,-4.48 0.28,-4.48 0,0 28.31,-6.44 30.92,-7 13.34,-2.94 26.53,-6.43 39.55,-10.44 26.02,-8.07 51.35,-18.47 75.27,-31.44 64.5,-34.84 120.98,-90.24 149.61,-157.77 25.98,-61.18 26.77,-129.79 3.41,-191.95 -16,-42.53 -41.04,-79.1 -73.64,-112.77 21.41,-28.64 45.24,-54.47 61.75,-84.18 95.32,-171.48 75.92,-373.27 -49.71,-524.75 -62.87,-75.78 -141.54,-123.53 -232.95,-157.77 -101.99,-38.19 -222.08,-41.74 -323.66,-0.41 -7.18,2.94 -14.22,6.25 -21.45,9.05 -8.81,-23.37 -17.4,-45.47 -25.51,-67.77 -63.8,-175.07 -231.41,-303.83 -415.48,-334 -68.6,-11.24 -139.07,-9.51 -207.34,3.03 -68.84,12.68 -135.52,36.19 -197.41,68.37 -70.79,36.79 -136.03,84.83 -190.23,143.12 -15.9,17.12 -30.45,35.45 -46.91,52.09 0,0 -39.74,-27.47 -61.56,-40.15 -111.65,-64.96 -266.25,-64.17 -385.64,-19.3 -79.89,30.03 -150.63,82.59 -203.14,149.05 -30.55,38.66 -55.69,81.99 -70.33,128.9 -8.81,28.26 -13.1,57.69 -14.41,87.21 -1.22,27.75 -1.26,50.79 0.98,81.19 0,0 -120.09,8.35 -233.46,84.46 -64.87,43.51 -121.11,110.39 -161.36,177.03 -67.39,111.5 -89.45,249.97 -55.31,375.56 22.66,83.48 70.98,159.4 135.43,217.6 70.05,63.24 157.45,103.43 251.55,115 24.58,2.94 50.09,6.01 74.66,7.46z"/>
  <path class="fil0" d="M314.24 1361.62c5.74,65.43 39.5,128.57 100.55,157.77 31.02,14.83 65.29,20.1 99.01,12.31 32.13,-7.41 60.95,-26.49 84.08,-49.52 44.82,-44.63 68.09,-105.77 111.74,-151.57 1.03,14.41 3.59,28.78 7.84,43 13.24,44.16 40.24,84.04 74.75,114.4 46.69,41.04 108.67,67.48 170.22,66.51 -0.56,16.51 -0.28,32.97 1.72,49.48 4.34,35.3 16.74,68.27 40.81,94.9 21.27,23.55 50.37,40.34 80.82,48.87 65.34,18.28 133.7,-4.15 183.84,-47.61 108.05,-93.6 112.2,-264.15 59.69,-387.36 -48.55,-113.83 -150.45,-198.86 -270.16,-228.7 -17.02,-40.53 -33.49,-81.33 -46.96,-122.93 -9.84,-30.41 -17.35,-62.49 -12.82,-94.63 3.59,-25.46 14.09,-49.29 28.49,-70.42 22.57,-33.07 56.2,-59.88 94.21,-77.32 16.04,49.67 45.89,95.84 88.05,126.85 45.94,33.81 117.89,47.8 165.93,10.21 27.8,-21.73 36.61,-58.67 25.56,-91.78 -10.17,-30.36 -32.6,-54.98 -58.58,-72.94 -49.29,-34.05 -111.88,-41.98 -169.8,-31.62 -6.81,1.22 -13.62,2.71 -20.38,4.48 -10.4,-76.34 14.27,-156.79 67.16,-215.65 44.02,-48.96 102.32,-78.48 166.07,-92.89 65.01,-14.69 136.13,-15.81 201.66,-3.41 55.87,10.59 113.79,33.81 147.18,82.36 36.56,53.07 36.7,120.46 18.42,180.29 -4.85,15.86 -10.91,30.97 -17.95,45.47 -131.28,17.96 -242.93,123.82 -253.05,258.55 -0.83,10.96 -0.79,22.01 -0.05,33.07 -38.01,47.89 -69.95,101.8 -82.13,162.29 -12.82,63.61 -7.32,131.33 12.22,193.03 14.46,45.61 37.31,89.54 67.11,127.5 -5.46,41.79 -3.13,85.39 3.49,125.54 10.4,62.68 37.22,125.03 83.53,169.57 41.69,40.06 96.63,61.88 154.04,65.38 117.01,7.13 232.71,-59.6 288.58,-161.73 32.7,-59.74 47.62,-130.35 39.27,-198.16 -8.44,-68.55 -37.86,-132.72 -84.13,-184.07 -47.47,-52.7 -111.78,-84.36 -178.06,-106.8 -61.18,-20.71 -128.9,-29.89 -184.86,-63.7 -43.19,-26.07 -68.14,-68.84 -75.41,-116.31 8.07,-9.52 16.32,-18.8 24.72,-27.85 71.16,-76.58 158.38,-146.01 210.79,-236.95 35.16,-2.29 70.94,1.77 104.98,11.71 -19.17,20.94 -37.03,43.04 -53.12,66.08 -39.03,56.01 -63.66,126.39 -44.21,194.38 19.54,68.14 81.56,107.4 149.42,115.15 60.25,6.86 125.91,-15.81 161.22,-66.74 39.92,-57.69 26.44,-136.22 -4.99,-194.28 -30.64,-56.62 -78.44,-100.73 -134.4,-129.65 19.68,-17.68 40.43,-33.95 61.98,-48.27 58.81,-39.13 126.9,-64.13 198.2,-62.03 64.96,1.91 126.57,28.82 167.79,79.79 17.82,22.01 30.5,48.18 36.47,75.83 6.91,32.08 2.06,64.96 -7.64,95.88 -14.65,46.69 -39.5,89.08 -59.37,133.57 -84.69,40.06 -152.78,112.3 -189.48,198.95 -22.06,52.14 -33.2,109.18 -30.03,165.89 3.27,58.71 19.21,123.54 58.62,168.82 21.64,24.81 52.98,40.48 86.18,40.2 33.72,-0.28 65.38,-16 91.97,-35.68 27.47,-20.29 50.32,-44.82 74.94,-68.27 23.13,-22.06 50.09,-43.04 81.52,-51.25 24.48,-6.39 50.6,-2.61 66.59,18.56 15.39,20.42 17.03,47.57 9.33,71.26 -0.61,1.82 -1.22,3.63 -1.91,5.45 -24.06,62.68 -98.59,85.91 -156.93,103.63 -21.5,6.53 -42.53,14.36 -63.05,23.55 -43.51,19.54 -85.99,47.52 -112.25,88.28 -25.6,39.73 -28.54,89.26 -14.13,133.61 28.03,86.23 111.6,136.51 191.3,168.21 89.68,35.72 186.41,51.35 281.59,64.08 129.51,17.3 261.68,23.73 391.65,6.9 64.17,-8.3 128.11,-21.45 188.78,-44.31 56.81,-21.36 110.39,-49.99 161.88,-81.94 100.17,-62.17 193.73,-139.21 302.24,-186.87 89.73,-39.36 208.74,-61.14 292.32,3.92 45,35.03 65.99,88.14 84.23,140.28 18.23,52.14 36.75,102.88 71.35,146.72 31.29,39.6 73.12,70.65 121.3,86.28 31.38,10.17 64.92,12.88 97.65,9.33 94.25,-10.21 198.01,-64.92 245.59,-148.95 49.2,-86.93 57.41,-192.05 114.91,-274.92 35.86,-51.63 81.98,-96.12 134.68,-130.35 26.35,-17.11 54.33,-31.66 83.52,-43.23 14.6,-5.78 29.48,-10.82 44.58,-15.06 4.25,-1.21 36.89,-9.79 44.12,-9.98 -9.65,51.02 -1.02,108.99 36.47,144.89 37.49,35.91 107.68,37.45 136.64,-5.64 20.99,-31.15 14.64,-75.04 -7,-105.77 -21.64,-30.73 -55.59,-50.46 -90.1,-65.29 37.4,-58.2 120.27,-72.94 185.7,-50.51 65.43,22.43 116.59,73.5 161.92,125.73 45.38,52.18 88.51,108.15 146.53,145.78 148.39,96.4 358.25,42.02 483.9,-82.59 60.02,-59.51 122.6,-139.86 206.45,-129.46 36.42,4.53 67.9,26.4 100.03,44.12 114.96,63.47 257.57,77.37 380.55,31.34 82.03,-30.73 162.2,-106.52 145.59,-192.51 -14.92,-77.09 -98.16,-119.2 -174.09,-139.21 -188.97,-49.71 -388.06,-33.02 -583.09,-21.03 -295.16,18.14 -591.2,24.76 -886.73,13.52 -100.64,-3.82 -201.37,-9.7 -300.75,-25.93 -43.79,-7.14 -98.27,-29.52 -95.74,-73.78 1.44,-25 22.15,-44.44 43.23,-57.96 69.49,-44.54 155.2,-54.38 237.66,-58.62 417.67,-21.55 833.34,69.68 1251.57,73.45 111.23,0.98 223.76,-4.38 330.51,-35.54 36.84,-10.73 73.73,-25.05 102.23,-50.79 28.49,-25.7 47.33,-64.83 40.24,-102.55 -5.36,-28.49 -24.53,-52.65 -46.54,-71.49 -73.73,-63.05 -177.22,-75.41 -274.13,-79.89 -505.81,-23.55 -1014.01,90.56 -1516.83,30.96 -25.65,-3.03 -52.89,-7.28 -72.15,-24.48 -32.27,-28.82 -27.05,-84.13 0.7,-117.29 27.75,-33.16 71.03,-48.78 113.04,-59.09 110.86,-27.19 226.46,-27.42 340.44,-21.68 418.51,21.03 843.59,119.43 1251.19,22.15 8.21,-1.96 17.16,-4.57 21.59,-11.75 6.49,-10.59 -1.68,-25.18 -13.06,-30.03 -11.38,-4.85 -24.39,-2.89 -36.66,-0.93 -193.91,31.06 -391.28,40.34 -587.24,27.65 -280.05,-18.14 -558.79,-80.96 -838.56,-59.41 -87.25,6.71 -176.47,22.62 -250.62,69.11 -43.19,27.1 -82.64,69.95 -82.41,120.97 0.19,45.09 32.41,85.2 71.87,107.07 39.4,21.83 85.25,28.59 130.07,33.58 507.35,56.15 1020.21,-70.84 1528.96,-29.61 56.52,4.57 115.24,12.03 162.57,43.28 30.78,20.29 56.57,59.13 41.23,92.62 -6.67,14.55 -19.87,24.95 -33.44,33.39 -55.73,34.7 -122.93,44.96 -188.31,51.07 -502.31,46.78 -1007.8,-107.4 -1509.7,-56.11 -75.5,7.7 -154.04,21.5 -214.2,67.81 -31.71,24.39 -58.11,60.86 -56.1,100.78 1.87,37.59 28.96,70.28 61.75,88.8 32.74,18.52 70.7,25.23 107.92,30.82 520.69,78.07 1051.17,-10.72 1577.41,6.11 75.22,2.43 153.06,7.7 219.65,42.72 46.59,24.48 89.03,74.52 74.57,125.07 -8.86,30.97 -36.56,52.56 -64.64,68.32 -99.33,55.78 -224.13,63.75 -329.76,21.13 -80.64,-32.55 -159.87,-94.07 -244.65,-74.57 -64.5,14.83 -108.29,72.33 -154.83,119.39 -56.48,57.18 -125.41,103.76 -202.87,125.12 -77.46,21.36 -163.92,15.76 -233.6,-24.3 -109.55,-63.01 -162.99,-198.34 -274.22,-258.32 -82.91,-44.73 -191.2,-37.35 -267.27,18.24 -13.85,10.12 -42.06,44.77 -42.06,44.77 0,0 -45.15,0.23 -68.56,5.59 -73.27,16.88 -142.05,51.58 -200.39,98.87 -45.28,36.7 -85.95,81.61 -115.7,131.89 -31.71,53.58 -48.88,114.95 -69.11,173.39 -18.89,54.43 -43.19,108.34 -87.21,147.23 -50.92,45 -117.85,75.13 -186.73,71.12 -45.14,-2.61 -87.86,-22.67 -120.88,-53.17 -36.89,-34.09 -60.07,-77.65 -77.05,-124.33 -18.46,-50.74 -33.39,-104.55 -65.34,-148.96 -31.81,-44.16 -77.41,-75.83 -130.11,-89.63 -101.34,-26.53 -211.63,7.79 -300.76,56.48 -103.34,56.43 -195.54,130.67 -297.77,188.92 -49.95,28.45 -102.04,52.61 -157.35,68.69 -59.41,17.31 -120.69,27.61 -182.3,32.7 -126.24,10.44 -253.93,1.35 -378.92,-18 -85.2,-13.2 -172.18,-29.38 -251.23,-65.15 -68.04,-30.78 -142.57,-81.89 -149.37,-162.62 -7.84,-92.71 92.8,-139.4 167.23,-161.97 1.31,-0.42 2.52,-0.89 3.64,-1.44 63.33,-19.96 130.21,-43.56 167.84,-102.13 30.87,-48.08 31.86,-118.83 -14.73,-157.82 -56.29,-47.11 -130.77,-12.13 -179.32,28.4 -25.32,21.17 -46.73,46.54 -72,67.81 -21.92,18.42 -49.53,37.86 -79.19,39.17 -61.51,2.75 -87.96,-67.99 -99.15,-117.24 -11.76,-51.81 -9.42,-106.19 4.85,-157.26 22.34,-80.02 74.34,-151.94 143.82,-197.45 0,0.05 -0.05,0.14 -0.05,0.18 -16.56,62.45 -14.78,134.64 33.21,183.24 47.05,47.66 123.35,60.25 185.7,39.59 64.36,-21.32 110.67,-74.9 117.85,-142.84 6.62,-62.68 -26.49,-122.7 -83.06,-150.4 -54.05,-26.44 -118.64,-26.63 -175.77,-10.63 30.45,-62.03 63.62,-128.53 54.7,-199.7 -7.93,-63.38 -44.4,-118.22 -94.95,-156.09 -55.36,-41.51 -127.92,-56.01 -195.87,-48.5 -71.86,7.93 -138.74,37.26 -196.62,80.12 -21.64,16.04 -42.44,33.58 -62.21,52.32 -37.22,-13.48 -76.76,-20.66 -116.45,-20.89 6.25,-14.97 11.52,-30.55 15.58,-46.83 15.9,-63.7 12.68,-134.77 -23.23,-191.39 -33.34,-52.65 -88.56,-84.87 -147.65,-100.87 -63.38,-17.16 -132.58,-19.68 -197.59,-12.17 -68.93,7.97 -137.81,28.77 -193.63,71.16 -91.92,69.82 -143.13,186.68 -123.96,300.85 -83.62,35.72 -153.39,111.27 -155.91,204.82 -0.93,35.3 8.63,70.47 20.29,103.49 10.64,30.03 22.76,59.55 34.93,89.07 -48.08,-5.69 -97.66,-1.86 -142.71,16.09 -62.3,24.76 -113.23,72.8 -140.19,134.45 -6.43,14.74 -11.38,29.9 -14.69,45.33 -29.75,22.38 -54.56,51.72 -75.64,82.4 -33.34,48.59 -61.51,111.88 -121.11,133.33 -59.46,21.36 -119.81,-15.2 -145.93,-69.11 -26.44,-54.56 -16.6,-120.09 2.33,-175.26 19.82,-57.78 52.7,-111.65 94.86,-155.81 43.84,-45.89 98.45,-83.43 160.33,-99.71 51.35,-13.52 116.87,-10.77 158.7,25.98 20.24,17.77 50,-11.8 29.66,-29.66 -45.15,-39.64 -110.57,-51.54 -168.78,-43 -63.84,9.33 -122.51,40.9 -171.8,81.56 -49.58,40.85 -90.1,93.04 -118.69,150.49 -28.45,57.69 -49.06,124.05 -43.33,189.21zm4827.24 170.26c0.32,-1.26 22.8,5.41 24.85,6.11 8.3,2.89 16.32,6.62 23.83,11.19 18.33,11.19 32.93,27.61 39.83,48.13 6.16,18.33 4.48,39.46 -13.62,50.13 -22.25,13.1 -42.39,1.4 -53.12,-7.28 -15.15,-12.22 -25.14,-38.66 -26.44,-57.27 -1.82,-26.16 4.66,-51.02 4.66,-51.02zm-2771.57 -529.41c2.89,-1.16 5.78,-2.33 8.67,-3.4 51.35,-19.12 109.09,-25.88 161.36,-6.07 51.95,19.69 81.01,72.48 69.35,126.99 -12.59,58.81 -65.43,97.56 -124.28,101.11 -60.86,3.69 -120.93,-28.45 -134.04,-91.04 -9.09,-43.09 2.29,-86.79 18.94,-127.59zm-461.13 -275.48c20.94,9.66 40.71,21.59 58.67,35.91 47.71,37.92 89.45,94.9 94.57,157.35 2.47,30.22 -2.94,62.16 -23.73,85.48 -18.89,21.17 -44.96,33.02 -72.52,38.1 -57.08,10.54 -126.52,-13.15 -151.01,-68.98 -27.19,-61.93 1.73,-130.11 38.29,-181.04 16.7,-23.22 35.45,-45.7 55.73,-66.83zm-415.67 280.37c11.43,35.03 31.57,67.02 60.44,90.43 52.56,42.68 119.58,56.39 183,74.9 63.24,18.42 128.58,42.29 177.91,87.58 48.04,44.07 80.31,103.67 91.08,167.98 10.63,63.52 -2.79,131.23 -34.23,187.1 -27.8,49.34 -69.35,87.45 -120.36,111.88 -94.72,45.33 -216.63,33.82 -280.19,-56.75 -35.58,-50.69 -50.6,-113 -51.67,-174.33 -0.1,-6.16 -0.1,-12.4 0,-18.7 47.62,43.83 106.89,73.5 174.46,78.3 65.58,4.67 132.4,-19.91 173.72,-72.28 37.35,-47.29 45.98,-111.37 12.73,-163.55 -53.21,-83.48 -179.97,-94.63 -266.15,-64.83 -56.75,19.63 -98.49,61.23 -119.34,117.38 -0.89,2.38 -1.68,4.75 -2.47,7.18 -18.75,-29.8 -33.2,-62.35 -42.48,-95.14 -16.7,-58.71 -20.38,-123.35 -3.08,-182.39 9.98,-34.14 26.53,-65.57 46.63,-94.77zm66.36 333.12c31.2,-37.68 80.12,-53.91 125.68,-57.03 44.77,-3.08 91.46,3.17 128.91,27.98 16.04,10.59 30.12,26.4 37.77,44.73 9.6,22.9 9.93,49.25 0.09,72.8 -22.62,54.14 -82.13,84.32 -138.46,85.35 -76.16,1.4 -141.4,-36.52 -189.39,-91.5 5.45,-30.03 15.99,-58.86 35.39,-82.31zm147.79 -632.01c-49.16,71.73 -120.42,129.74 -180.67,192.84 8.72,-53.12 38.34,-102.09 78.12,-137.9 29.8,-26.81 65.06,-44.86 102.55,-54.94zm-545.31 -3.92c50.92,-13.43 105.49,-10.07 150.59,16.84 22.8,13.61 45.75,35.39 51.02,62.54 5.74,29.33 -16.69,46.78 -43.23,51.21 -53.07,8.86 -102.13,-28.45 -129.79,-70.28 -12.55,-19.03 -22.01,-39.31 -28.58,-60.3zm-132.17 415.29c12.26,29.85 24.48,59.65 36.33,89.63 13.3,33.67 27.24,67.48 36.33,102.55 8.12,31.2 11.24,63.71 1.54,94.95 -8.39,27.1 -26.11,50.97 -47.2,69.68 -14.6,12.92 -31.06,22.2 -48.68,28.12 2.05,-18.98 4.06,-37.68 4.33,-55.4 0.98,-63.42 -11.38,-125.68 -57.97,-171.8 -44.58,-44.16 -113.65,-57.36 -173.16,-40.62 -4.8,1.35 -9.47,2.94 -14.04,4.62 25.79,-55.64 72.99,-98.68 131.98,-116.5 42.11,-12.69 86.88,-13.48 130.54,-5.23zm-25.75 429.57c15.06,-3.5 29.9,-8.86 44.21,-16.32 51.39,-26.77 92.95,-80.59 101.48,-138.18 10.77,-72.61 -21.73,-143.08 -47.99,-208.93 -7,-17.58 -14.32,-35.12 -21.68,-52.65 50.41,17.77 97.14,46.92 133.75,82.64 92.99,90.8 132.68,236.44 89.03,360.31 -21.08,59.84 -66.69,112.53 -129.09,130.26 -54.52,15.53 -119.71,-2.43 -150.31,-52.61 -19.12,-31.34 -21.59,-67.62 -19.4,-104.51zm-252.25 -253.14c33.95,-20.75 73.59,-30.22 114.35,-20.57 57.97,13.72 94.02,63.8 101.81,121.11 5.26,38.66 0.83,77.27 -2.61,115.84 -6.2,0.28 -12.46,0.23 -18.75,-0.14 -78.68,-5.04 -159.08,-65.52 -185.66,-141.08 -8.81,-24.85 -11.89,-50.09 -9.14,-75.17z"/>
 </g>
</svg>
